<svg width="155" height="35" viewBox="0 0 155 35" fill="none" xmlns="http://www.w3.org/2000/svg">
<g clip-path="url(#clip0_9210_8245)">
<path d="M18.9422 6.72514L18.4031 8.72449C22.7522 10.5784 25.8074 14.9407 25.8074 19.9936C25.8074 26.755 20.38 32.2441 13.6945 32.2441C7.00899 32.2805 1.58151 26.7913 1.58151 19.9936C1.58151 14.6498 4.99615 10.0695 9.70475 8.43367L10.5315 6.25256C4.457 7.85204 0 13.4502 0 20.139C0 28.0637 6.25417 34.4616 14.018 34.4616C21.7818 34.4616 28.0359 28.0637 28.0359 20.139C28 13.9955 24.2259 8.76084 18.9422 6.72514Z" fill="#E8441E"/>
<path d="M24.0822 19.5209L22.8242 19.4846C22.7882 19.4846 22.7523 19.4482 22.7523 19.4119L23.0758 15.4495C23.0758 15.4132 23.0758 15.3768 23.0398 15.3768C22.7163 15.1951 20.8473 14.1045 17.4686 13.2684C17.4326 13.2684 17.3967 13.2321 17.3967 13.1594C17.4686 12.6504 17.5045 12.3233 17.5405 12.1779C17.5405 12.1415 17.5045 12.1052 17.4686 12.0688C17.2529 11.9961 16.57 11.8144 15.7433 11.778C15.7073 11.778 15.6355 11.7416 15.6714 11.6689C15.8871 10.7602 16.7857 6.7978 16.9654 6.07076C16.9654 5.99806 16.9294 5.96171 16.8935 5.96171L14.4134 6.17982C14.3415 6.17982 14.3055 6.14347 14.3415 6.07076L15.6714 0.109064C15.7073 8.07701e-06 15.5636 -0.0363438 15.4917 0.0363599L11.7176 7.99741C11.6817 8.07012 11.7176 8.14282 11.7895 8.10647L14.3774 7.99741C14.4493 7.99741 14.4853 8.07012 14.4493 8.10647L13.4429 11.4145C13.4429 11.4508 13.407 11.4872 13.371 11.4872L11.7895 11.5235C11.7536 11.5235 11.7176 11.5599 11.7176 11.5962L11.6817 12.5777C11.6817 12.6141 11.6457 12.6504 11.6098 12.6504C11.0706 12.6868 7.72788 12.8322 5.6791 13.5229C5.64316 13.5229 5.60722 13.5592 5.60722 13.5956L5.24778 17.4852C5.24778 17.5216 5.21184 17.5579 5.13995 17.5579L3.84598 17.4489C3.81004 17.4489 3.7741 17.4852 3.73815 17.5216L3.34277 21.0477C3.34277 21.0841 3.37872 21.1568 3.41466 21.1568L4.67268 21.2658C4.70863 21.2658 4.74457 21.3022 4.74457 21.3749L4.45702 24.283C4.45702 24.3194 4.45702 24.3557 4.49297 24.3557C5.13995 24.7556 12.76 29.1542 21.8537 26.3187C21.8896 26.3187 21.9256 26.2824 21.9256 26.246C22.0693 25.0101 22.1772 23.7014 22.2131 23.3742C22.2131 23.3379 22.2491 23.3015 22.321 23.3015L23.6509 23.4469C23.6868 23.4469 23.7228 23.4106 23.7587 23.3742L24.1541 19.7391C24.1541 19.5573 24.1181 19.5209 24.0822 19.5209ZM19.6971 24.174C19.6971 24.174 13.4788 25.9189 7.11684 22.9017C7.3325 20.6479 7.79977 15.4495 7.79977 15.4495C7.79977 15.4495 14.3415 14.0318 20.4159 16.8673L19.6971 24.174Z" fill="#E8441E"/>
<path d="M11.2503 18.1032C11.2503 18.1032 11.1065 18.0668 10.9987 18.1032C10.8909 18.1032 10.819 18.1759 10.7111 18.2122C10.4955 18.3213 8.73425 18.9756 9.41718 19.8481C9.74067 20.1752 10.0282 20.2116 10.5314 19.9208C10.819 19.739 11.0346 19.7027 11.0706 19.7027C11.0706 19.5573 11.2503 18.1032 11.2503 18.1032Z" fill="#E8441E"/>
<path d="M11.2144 18.1033C11.2144 18.1033 11.3582 18.1033 11.466 18.1396C11.5738 18.176 11.6457 18.2487 11.7176 18.3214C11.8973 18.5031 13.4788 19.4846 12.6162 20.2117C12.2567 20.4661 11.9333 20.4298 11.5019 20.0299C11.2503 19.8118 11.0706 19.7028 11.0347 19.7028C11.0706 19.5573 11.2144 18.1033 11.2144 18.1033Z" fill="#E8441E"/>
<path d="M16.6778 18.6849C16.6778 18.6849 16.534 18.6485 16.4262 18.6849C16.3184 18.6849 16.2465 18.7576 16.1386 18.7939C15.923 18.903 14.1617 19.5573 14.8447 20.4297C15.1682 20.7569 15.4557 20.7933 15.9589 20.5024C16.2465 20.3207 16.4621 20.2843 16.4981 20.2843C16.4981 20.1389 16.6778 18.6849 16.6778 18.6849Z" fill="#E8441E"/>
<path d="M16.6419 18.6848C16.6419 18.6848 16.7857 18.6848 16.8935 18.7212C17.0013 18.7575 17.0732 18.8302 17.1451 18.9029C17.3248 19.0847 18.9063 20.0662 18.0437 20.7932C17.6842 21.0477 17.3607 21.0113 16.9294 20.6115C16.6778 20.3934 16.4981 20.2843 16.4622 20.2843C16.4981 20.1389 16.6419 18.6848 16.6419 18.6848Z" fill="#E8441E"/>
<path d="M4.24146 29.2269C4.24146 29.2269 12.5444 25.8825 21.4943 30.9718C18.7267 32.4622 16.0309 33.262 16.0309 33.262L8.33902 32.026L4.92438 30.1721L4.24146 29.2269Z" fill="#E8441E"/>
</g>
<path d="M37.1378 24.2307V11.1398H42.3793C43.3423 11.1398 44.1456 11.2826 44.7891 11.5681C45.4325 11.8536 45.9162 12.2499 46.2401 12.757C46.5639 13.2598 46.7259 13.8394 46.7259 14.4956C46.7259 15.007 46.6236 15.4566 46.419 15.8443C46.2145 16.2279 45.9332 16.5432 45.5753 16.7904C45.2216 17.0333 44.8168 17.2059 44.3608 17.3081V17.436C44.8594 17.4573 45.326 17.5979 45.7607 17.8578C46.1996 18.1178 46.5554 18.4821 46.8281 18.9509C47.1009 19.4154 47.2372 19.9693 47.2372 20.6128C47.2372 21.3074 47.0646 21.9274 46.7195 22.4729C46.3786 23.0141 45.8736 23.4424 45.2045 23.7577C44.5355 24.073 43.7109 24.2307 42.7308 24.2307H37.1378ZM39.9055 21.9679H42.1619C42.9332 21.9679 43.4957 21.8209 43.8494 21.5269C44.2031 21.2286 44.38 20.8323 44.38 20.338C44.38 19.9757 44.2926 19.6561 44.1179 19.3792C43.9432 19.1022 43.6939 18.8848 43.37 18.7272C43.0504 18.5695 42.669 18.4907 42.2259 18.4907H39.9055V21.9679ZM39.9055 16.6178H41.9574C42.3366 16.6178 42.6733 16.5517 42.9673 16.4196C43.2656 16.2833 43.5 16.0915 43.6705 15.8443C43.8452 15.5972 43.9325 15.301 43.9325 14.9559C43.9325 14.4828 43.7642 14.1015 43.4276 13.8117C43.0952 13.5219 42.6222 13.377 42.0085 13.377H39.9055V16.6178ZM53.4231 24.4225C52.4302 24.4225 51.5716 24.2115 50.8471 23.7897C50.127 23.3635 49.5708 22.7712 49.1788 22.0127C48.7868 21.2499 48.5907 20.3657 48.5907 19.36C48.5907 18.3458 48.7868 17.4594 49.1788 16.7009C49.5708 15.9381 50.127 15.3458 50.8471 14.9239C51.5716 14.4978 52.4302 14.2847 53.4231 14.2847C54.416 14.2847 55.2725 14.4978 55.9927 14.9239C56.7172 15.3458 57.2754 15.9381 57.6674 16.7009C58.0595 17.4594 58.2555 18.3458 58.2555 19.36C58.2555 20.3657 58.0595 21.2499 57.6674 22.0127C57.2754 22.7712 56.7172 23.3635 55.9927 23.7897C55.2725 24.2115 54.416 24.4225 53.4231 24.4225ZM53.4359 22.3131C53.8876 22.3131 54.2647 22.1853 54.5673 21.9296C54.8699 21.6696 55.0978 21.3159 55.2512 20.8685C55.4089 20.4211 55.4877 19.9118 55.4877 19.3408C55.4877 18.7698 55.4089 18.2605 55.2512 17.8131C55.0978 17.3657 54.8699 17.012 54.5673 16.752C54.2647 16.4921 53.8876 16.3621 53.4359 16.3621C52.9799 16.3621 52.5964 16.4921 52.2853 16.752C51.9785 17.012 51.7463 17.3657 51.5886 17.8131C51.4352 18.2605 51.3585 18.7698 51.3585 19.3408C51.3585 19.9118 51.4352 20.4211 51.5886 20.8685C51.7463 21.3159 51.9785 21.6696 52.2853 21.9296C52.5964 22.1853 52.9799 22.3131 53.4359 22.3131ZM65.2484 14.4125V16.458H59.3358V14.4125H65.2484ZM60.6781 12.0603H63.4011V21.2137C63.4011 21.4651 63.4395 21.6611 63.5162 21.8017C63.5929 21.9381 63.6994 22.034 63.8358 22.0894C63.9764 22.1448 64.1383 22.1725 64.3216 22.1725C64.4494 22.1725 64.5772 22.1618 64.7051 22.1405C64.8329 22.1149 64.9309 22.0958 64.9991 22.083L65.4274 24.1093C65.291 24.1519 65.0993 24.2009 64.8521 24.2563C64.6049 24.3159 64.3045 24.3522 63.9508 24.3649C63.2946 24.3905 62.7193 24.3032 62.225 24.1029C61.7349 23.9026 61.3535 23.5915 61.0808 23.1696C60.8081 22.7478 60.6738 22.2151 60.6781 21.5716V12.0603ZM71.2393 24.2307V11.1398H76.4808C77.4439 11.1398 78.2472 11.2826 78.8906 11.5681C79.5341 11.8536 80.0178 12.2499 80.3416 12.757C80.6655 13.2598 80.8274 13.8394 80.8274 14.4956C80.8274 15.007 80.7251 15.4566 80.5206 15.8443C80.3161 16.2279 80.0348 16.5432 79.6768 16.7904C79.3232 17.0333 78.9183 17.2059 78.4624 17.3081V17.436C78.9609 17.4573 79.4276 17.5979 79.8622 17.8578C80.3011 18.1178 80.657 18.4821 80.9297 18.9509C81.2024 19.4154 81.3388 19.9693 81.3388 20.6128C81.3388 21.3074 81.1662 21.9274 80.821 22.4729C80.4801 23.0141 79.9751 23.4424 79.3061 23.7577C78.6371 24.073 77.8125 24.2307 76.8324 24.2307H71.2393ZM74.0071 21.9679H76.2635C77.0348 21.9679 77.5973 21.8209 77.951 21.5269C78.3047 21.2286 78.4815 20.8323 78.4815 20.338C78.4815 19.9757 78.3942 19.6561 78.2195 19.3792C78.0447 19.1022 77.7955 18.8848 77.4716 18.7272C77.152 18.5695 76.7706 18.4907 76.3274 18.4907H74.0071V21.9679ZM74.0071 16.6178H76.0589C76.4382 16.6178 76.7749 16.5517 77.0689 16.4196C77.3672 16.2833 77.6016 16.0915 77.772 15.8443C77.9467 15.5972 78.0341 15.301 78.0341 14.9559C78.0341 14.4828 77.8658 14.1015 77.5291 13.8117C77.1967 13.5219 76.7237 13.377 76.1101 13.377H74.0071V16.6178ZM85.8883 24.4161C85.2619 24.4161 84.7037 24.3074 84.2136 24.0901C83.7235 23.8685 83.3358 23.5425 83.0502 23.1121C82.769 22.6774 82.6284 22.1363 82.6284 21.4885C82.6284 20.9431 82.7285 20.485 82.9288 20.1142C83.1291 19.7435 83.4018 19.4452 83.747 19.2193C84.0922 18.9935 84.4842 18.823 84.9231 18.708C85.3663 18.5929 85.8308 18.512 86.3166 18.4651C86.8876 18.4054 87.3478 18.35 87.6973 18.2989C88.0467 18.2435 88.3002 18.1625 88.4579 18.056C88.6156 17.9495 88.6944 17.7918 88.6944 17.583V17.5446C88.6944 17.1398 88.5666 16.8266 88.3109 16.605C88.0595 16.3834 87.7015 16.2726 87.237 16.2726C86.747 16.2726 86.3571 16.3813 86.0673 16.5986C85.7775 16.8117 85.5858 17.0801 85.492 17.404L82.9735 17.1995C83.1014 16.6029 83.3528 16.0872 83.7278 15.6526C84.1028 15.2137 84.5865 14.877 85.1788 14.6426C85.7754 14.404 86.4657 14.2847 87.2498 14.2847C87.7953 14.2847 88.3173 14.3486 88.8159 14.4765C89.3187 14.6043 89.764 14.8024 90.1518 15.0709C90.5439 15.3394 90.8528 15.6845 91.0787 16.1064C91.3045 16.524 91.4174 17.0247 91.4174 17.6086V24.2307H88.8351V22.8692H88.7583C88.6007 23.176 88.3897 23.4466 88.1255 23.681C87.8613 23.9111 87.5439 24.0922 87.1731 24.2243C86.8024 24.3522 86.3741 24.4161 85.8883 24.4161ZM86.6681 22.5368C87.0687 22.5368 87.4224 22.458 87.7292 22.3003C88.036 22.1384 88.2768 21.9211 88.4515 21.6483C88.6262 21.3756 88.7136 21.0667 88.7136 20.7215V19.6796C88.6284 19.735 88.5112 19.7861 88.362 19.833C88.2172 19.8756 88.0531 19.9161 87.8699 19.9544C87.6866 19.9885 87.5034 20.0205 87.3201 20.0503C87.1369 20.0759 86.9707 20.0993 86.8216 20.1206C86.502 20.1675 86.2228 20.2421 85.9842 20.3443C85.7456 20.4466 85.5602 20.5851 85.4281 20.7598C85.296 20.9303 85.2299 21.1434 85.2299 21.399C85.2299 21.7698 85.3642 22.0532 85.6326 22.2492C85.9054 22.4409 86.2505 22.5368 86.6681 22.5368ZM86.3741 13.1469L87.7292 10.2385H90.2477L88.2981 13.1469H86.3741ZM96.253 18.5546V24.2307H93.53V14.4125H96.1252V16.1448H96.2402C96.4576 15.5738 96.8219 15.122 97.3333 14.7897C97.8446 14.453 98.4647 14.2847 99.1934 14.2847C99.8752 14.2847 100.47 14.4338 100.977 14.7321C101.484 15.0304 101.878 15.4566 102.159 16.0105C102.441 16.5603 102.581 17.2165 102.581 17.9793V24.2307H99.8581V18.4651C99.8624 17.8642 99.709 17.3955 99.3979 17.0588C99.0868 16.7179 98.6586 16.5475 98.1131 16.5475C97.7466 16.5475 97.4228 16.6263 97.1415 16.784C96.8645 16.9417 96.6472 17.1718 96.4895 17.4743C96.3361 17.7726 96.2573 18.1327 96.253 18.5546ZM108.944 24.2307V11.1398H111.712V16.5411H117.331V11.1398H120.092V24.2307H117.331V18.823H111.712V24.2307H108.944ZM125.123 24.4161C124.496 24.4161 123.938 24.3074 123.448 24.0901C122.958 23.8685 122.57 23.5425 122.285 23.1121C122.003 22.6774 121.863 22.1363 121.863 21.4885C121.863 20.9431 121.963 20.485 122.163 20.1142C122.363 19.7435 122.636 19.4452 122.981 19.2193C123.327 18.9935 123.719 18.823 124.157 18.708C124.601 18.5929 125.065 18.512 125.551 18.4651C126.122 18.4054 126.582 18.35 126.932 18.2989C127.281 18.2435 127.535 18.1625 127.692 18.056C127.85 17.9495 127.929 17.7918 127.929 17.583V17.5446C127.929 17.1398 127.801 16.8266 127.545 16.605C127.294 16.3834 126.936 16.2726 126.471 16.2726C125.981 16.2726 125.591 16.3813 125.302 16.5986C125.012 16.8117 124.82 17.0801 124.726 17.404L122.208 17.1995C122.336 16.6029 122.587 16.0872 122.962 15.6526C123.337 15.2137 123.821 14.877 124.413 14.6426C125.01 14.404 125.7 14.2847 126.484 14.2847C127.03 14.2847 127.552 14.3486 128.05 14.4765C128.553 14.6043 128.998 14.8024 129.386 15.0709C129.778 15.3394 130.087 15.6845 130.313 16.1064C130.539 16.524 130.652 17.0247 130.652 17.6086V24.2307H128.069V22.8692H127.993C127.835 23.176 127.624 23.4466 127.36 23.681C127.096 23.9111 126.778 24.0922 126.407 24.2243C126.037 24.3522 125.608 24.4161 125.123 24.4161ZM125.903 22.5368C126.303 22.5368 126.657 22.458 126.964 22.3003C127.27 22.1384 127.511 21.9211 127.686 21.6483C127.861 21.3756 127.948 21.0667 127.948 20.7215V19.6796C127.863 19.735 127.746 19.7861 127.596 19.833C127.452 19.8756 127.287 19.9161 127.104 19.9544C126.921 19.9885 126.738 20.0205 126.555 20.0503C126.371 20.0759 126.205 20.0993 126.056 20.1206C125.736 20.1675 125.457 20.2421 125.219 20.3443C124.98 20.4466 124.795 20.5851 124.662 20.7598C124.53 20.9303 124.464 21.1434 124.464 21.399C124.464 21.7698 124.599 22.0532 124.867 22.2492C125.14 22.4409 125.485 22.5368 125.903 22.5368ZM125.64 13.1469L123.691 10.2385H126.203L127.564 13.1469H125.64ZM135.487 18.5546V24.2307H132.764V14.4125H135.36V16.1448H135.475C135.692 15.5738 136.056 15.122 136.568 14.7897C137.079 14.453 137.699 14.2847 138.428 14.2847C139.11 14.2847 139.704 14.4338 140.211 14.7321C140.718 15.0304 141.112 15.4566 141.394 16.0105C141.675 16.5603 141.816 17.2165 141.816 17.9793V24.2307H139.093V18.4651C139.097 17.8642 138.943 17.3955 138.632 17.0588C138.321 16.7179 137.893 16.5475 137.347 16.5475C136.981 16.5475 136.657 16.6263 136.376 16.784C136.099 16.9417 135.882 17.1718 135.724 17.4743C135.57 17.7726 135.492 18.1327 135.487 18.5546ZM148.385 28.1171C147.503 28.1171 146.746 27.9956 146.116 27.7527C145.489 27.5141 144.991 27.1881 144.62 26.7747C144.249 26.3614 144.009 25.8969 143.898 25.3813L146.416 25.0425C146.493 25.2385 146.614 25.4218 146.781 25.5922C146.947 25.7627 147.166 25.899 147.439 26.0013C147.716 26.1078 148.053 26.1611 148.449 26.1611C149.041 26.1611 149.529 26.0162 149.913 25.7265C150.3 25.4409 150.494 24.9615 150.494 24.2882V22.4921H150.379C150.26 22.7648 150.081 23.0226 149.842 23.2655C149.604 23.5084 149.297 23.7066 148.922 23.86C148.547 24.0134 148.099 24.0901 147.58 24.0901C146.842 24.0901 146.171 23.9196 145.566 23.5787C144.965 23.2336 144.486 22.7073 144.128 21.9999C143.774 21.2882 143.597 20.3891 143.597 19.3024C143.597 18.1902 143.778 17.2613 144.141 16.5155C144.503 15.7698 144.984 15.2115 145.585 14.8408C146.19 14.4701 146.853 14.2847 147.573 14.2847C148.123 14.2847 148.583 14.3784 148.954 14.5659C149.325 14.7492 149.623 14.9793 149.849 15.2563C150.079 15.529 150.256 15.7975 150.379 16.0617H150.482V14.4125H153.185V24.3266C153.185 25.1618 152.981 25.8607 152.572 26.4232C152.163 26.9857 151.596 27.4076 150.871 27.6888C150.151 27.9743 149.322 28.1171 148.385 28.1171ZM148.442 22.0446C148.881 22.0446 149.252 21.936 149.555 21.7186C149.862 21.497 150.096 21.1817 150.258 20.7726C150.424 20.3593 150.507 19.8649 150.507 19.2897C150.507 18.7144 150.426 18.2158 150.264 17.7939C150.102 17.3678 149.868 17.0375 149.561 16.8032C149.254 16.5688 148.881 16.4516 148.442 16.4516C147.995 16.4516 147.618 16.573 147.311 16.8159C147.004 17.0546 146.772 17.387 146.614 17.8131C146.457 18.2392 146.378 18.7314 146.378 19.2897C146.378 19.8564 146.457 20.3465 146.614 20.7598C146.776 21.1689 147.009 21.4864 147.311 21.7122C147.618 21.9338 147.995 22.0446 148.442 22.0446Z" fill="#E8441E"/>
<defs>
<clipPath id="clip0_9210_8245">
<rect width="28" height="34.4615" fill="white"/>
</clipPath>
</defs>
</svg>
