<svg width="61" height="61" viewBox="0 0 61 61" fill="none" xmlns="http://www.w3.org/2000/svg">
<rect width="61" height="61" rx="16" fill="url(#paint0_linear_1276_60923)"/>
<path d="M38.2182 13.582L37.382 16.6943C44.2545 19.5934 49.0792 26.3938 49.0792 34.3217C49.0792 44.8833 40.5174 53.4452 29.9558 53.4452C19.3941 53.4452 10.8323 44.8843 10.8323 34.3227C10.8323 25.9632 16.1957 18.8583 23.6691 16.2577L24.9478 12.853C15.3986 15.3234 8.33984 24.0846 8.33984 34.514C8.33984 46.8611 18.2345 56.8709 30.4404 56.8709C42.6463 56.8709 52.541 46.8611 52.541 34.514C52.54 24.9357 46.5858 16.7664 38.2182 13.582Z" fill="white"/>
<path d="M46.3214 33.5707L44.3627 33.4926C44.2835 33.4906 44.2215 33.4616 44.2285 33.3835L44.7522 27.227C44.7562 27.1749 44.7322 27.1258 44.6871 27.0988C44.2004 26.8094 41.2443 25.1311 35.913 23.8112C35.8459 23.7942 35.8008 23.7291 35.8098 23.661C35.91 22.8649 36.0011 22.3452 36.0421 22.1249C36.0552 22.0558 36.0141 21.9887 35.946 21.9697C35.5985 21.8716 34.53 21.5972 33.2373 21.5281C33.1521 21.5231 33.0911 21.445 33.1111 21.3618C33.4526 19.9229 34.8885 13.7784 35.1519 12.6508C35.1729 12.5617 35.1018 12.4786 35.0107 12.4836L31.1093 12.7199C31.0182 12.7249 30.9481 12.6418 30.9681 12.5537L33.086 3.2648C33.1221 3.10659 32.9008 3.02948 32.8307 3.17468L26.8264 15.5628C26.7813 15.656 26.8514 15.7631 26.9546 15.7581L31.0252 15.5829C31.1193 15.5788 31.1894 15.669 31.1614 15.7591L29.5672 20.9082C29.5502 20.9643 29.4981 21.0034 29.439 21.0044L26.9195 21.0344C26.8474 21.0354 26.7893 21.0915 26.7853 21.1636L26.7022 22.6897C26.6982 22.7598 26.6431 22.8159 26.573 22.8189C25.7058 22.8539 20.4486 23.1073 17.2141 24.2078C17.163 24.2248 17.128 24.2709 17.123 24.3249L16.5622 30.3713C16.5552 30.4454 16.4891 30.5005 16.415 30.4945L14.3872 30.3232C14.3141 30.3172 14.249 30.3703 14.24 30.4434L13.6241 35.925C13.6151 36.0011 13.6712 36.0692 13.7483 36.0762L15.733 36.2464C15.8091 36.2525 15.8652 36.3205 15.8572 36.3967L15.3916 40.9069C15.3866 40.96 15.4106 41.01 15.4557 41.0371C16.4971 41.6579 28.5137 48.5274 42.8646 44.0733C42.9167 44.0573 42.9547 44.0112 42.9607 43.9571C43.179 42.0345 43.3723 39.9966 43.4224 39.4629C43.4294 39.3878 43.4955 39.3347 43.5706 39.3417L45.6604 39.542C45.7346 39.549 45.8006 39.4959 45.8087 39.4218L46.4555 33.725C46.4636 33.6428 46.4015 33.5727 46.3214 33.5707ZM39.4268 40.8118C39.4268 40.8118 29.6032 43.5586 19.5854 38.841C19.9088 35.3512 20.6518 27.2079 20.6518 27.2079C20.6518 27.2079 30.9922 24.9778 40.5904 29.438C39.4268 40.8118 39.4268 40.8118 39.4268 40.8118Z" fill="white"/>
<path d="M26.0804 31.3597C26.0804 31.3597 25.8781 31.3257 25.6878 31.3527C25.5256 31.3768 25.3884 31.4569 25.2332 31.523C24.8727 31.7152 22.1059 32.7066 23.1864 34.0915C23.681 34.5842 24.1597 34.6723 24.9648 34.2117C25.4285 33.9463 25.7519 33.8692 25.807 33.8682C25.836 33.6038 26.0804 31.3597 26.0804 31.3597Z" fill="white"/>
<path d="M26.0483 31.3555C26.0483 31.3555 26.2536 31.3655 26.4328 31.4336C26.5861 31.4917 26.7032 31.5988 26.8404 31.6979C27.1508 31.9633 29.6403 33.5265 28.2874 34.647C27.6976 35.0216 27.2119 35.0055 26.524 34.3817C26.1274 34.0232 25.829 33.878 25.7759 33.8649C25.804 33.5996 26.0483 31.3555 26.0483 31.3555Z" fill="white"/>
<path d="M34.6442 32.264C34.6442 32.264 34.4419 32.23 34.2517 32.257C34.0894 32.281 33.9523 32.3612 33.797 32.4273C33.4365 32.6195 30.6697 33.6109 31.7502 34.9958C32.2449 35.4885 32.7236 35.5766 33.5287 35.116C33.9923 34.8506 34.3158 34.7735 34.3708 34.7725C34.3999 34.5081 34.6442 32.264 34.6442 32.264Z" fill="white"/>
<path d="M34.6122 32.2607C34.6122 32.2607 34.8174 32.2708 34.9967 32.3389C35.1499 32.3969 35.2671 32.5041 35.4043 32.6032C35.7147 32.8686 38.2041 34.4317 36.8513 35.5523C36.2614 35.9268 35.7758 35.9108 35.0878 35.2869C34.6913 34.9284 34.3929 34.7832 34.3398 34.7702C34.3678 34.5049 34.6122 32.2607 34.6122 32.2607Z" fill="white"/>
<path d="M15.0612 48.7296C15.0612 48.7296 28.1483 43.4943 42.3029 51.4443C37.9408 53.7706 33.6749 55.0313 33.6749 55.0313L21.5571 53.0926L16.1286 50.1846L15.0612 48.7296Z" fill="white"/>
<defs>
<linearGradient id="paint0_linear_1276_60923" x1="61" y1="61" x2="0" y2="0" gradientUnits="userSpaceOnUse">
<stop stop-color="#E9451F"/>
<stop offset="0.998216" stop-color="#F97556"/>
</linearGradient>
</defs>
</svg>
