<svg width="95" height="96" viewBox="0 0 95 96" fill="none" xmlns="http://www.w3.org/2000/svg">
<path fill-rule="evenodd" clip-rule="evenodd" d="M16.1876 11.775C13.6685 14.0425 11.3246 16.6208 9.1557 19.5098C5.15005 25.0166 2.27616 31.424 0.882736 38.3779C0.334356 41.5229 0.0769334 44.86 0.0962364 48.4376C0.126982 54.1665 0.450114 56.5216 2.00427 62.3485C3.03335 66.2062 3.87493 70.6733 3.87493 72.2754C3.87493 73.8774 2.91519 79.0762 1.74203 83.8279C-0.370371 92.3869 -0.380018 92.4837 0.74672 93.9918C2.35634 96.1463 4.47598 96.1566 12.3848 94.0481C21.2788 91.6764 25.0032 91.6844 33.9677 94.0912C38.5902 95.3325 43.1524 95.9662 47.5811 96C66.7935 95.8481 83.2769 84.0571 90.5302 67.2289C91.0128 66.109 91.4543 64.9674 91.8534 63.8049C93.281 59.6459 94.1606 55.2259 94.4053 50.6344C94.4728 48.6446 94.4568 46.5956 94.3593 44.6083C92.74 21.0539 74.3858 2.18313 51.2906 0.175122C49.7988 0.0697967 48.2831 0.0105765 46.7997 0C35.0893 0.099691 24.3945 4.52314 16.1876 11.775ZM4.43678 91.6164C4.17999 91.6164 4.80573 88.5806 5.82759 84.8698C6.85641 81.134 7.47751 77.6382 7.69143 74.3595C7.97202 70.0593 7.55206 66.1332 6.43287 62.5306C5.82963 60.5883 5.33967 58.6808 4.96296 56.7999L4.92164 56.5253C4.38707 53.7679 4.10682 50.9175 4.10682 48.0002C4.10682 23.7948 23.4021 4.17236 47.2041 4.17236C71.006 4.17236 90.3015 23.7948 90.3015 48.0002C90.3015 58.0601 86.969 67.3283 81.3648 74.7251C80.0579 76.2628 78.5486 77.912 77.121 79.335C72.739 83.704 70.7 85.2354 66.5285 87.2912C62.7463 89.1549 59.4663 90.3183 55.8838 90.9389C53.08 91.522 50.1774 91.8279 47.2041 91.8279C43.0492 91.8279 39.0317 91.2303 35.2301 90.1141C34.5562 89.9438 33.872 89.7535 33.1616 89.541C28.6354 88.1849 25.1676 87.6723 21.0887 88.0179C18.4799 88.2391 15.6212 88.8114 12.0756 89.7393C8.13109 90.7719 4.69361 91.6164 4.43678 91.6164Z" fill="url(#paint0_angular_9210_8214)"/>
<path fill-rule="evenodd" clip-rule="evenodd" d="M22.2079 18.6475C20.1753 20.4771 18.2838 22.5576 16.5337 24.8888C13.3015 29.3324 10.9824 34.5027 9.85805 40.114C9.41555 42.6517 9.20783 45.3445 9.22341 48.2314C9.24822 52.8542 9.50896 54.7546 10.7631 59.4565C11.5934 62.5694 12.2725 66.174 12.2725 67.4667C12.2725 68.7594 11.4981 72.9545 10.5514 76.7887C8.84689 83.6952 8.83911 83.7734 9.7483 84.9903C11.0471 86.7287 12.7575 86.7371 19.1394 85.0357C26.3161 83.1219 29.3215 83.1284 36.5551 85.0705C40.2852 86.0721 43.9665 86.5835 47.5402 86.6107C63.0431 86.4882 76.344 76.9737 82.1969 63.3946C82.5863 62.4909 82.9426 61.5697 83.2646 60.6316C84.4166 57.2756 85.1263 53.7091 85.3238 50.0041C85.3782 48.3985 85.3654 46.745 85.2867 45.1415C83.98 26.1348 69.1695 10.9075 50.5334 9.28718C49.3297 9.20219 48.1066 9.15441 46.9096 9.14587C37.4602 9.22632 28.8303 12.7957 22.2079 18.6475Z" fill="black"/>
<defs>
<radialGradient id="paint0_angular_9210_8214" cx="0" cy="0" r="1" gradientUnits="userSpaceOnUse" gradientTransform="translate(47.2232 48) rotate(177.49) scale(66.8885 67.5677)">
<stop offset="0.0647736" stop-color="#EEAF4C"/>
<stop offset="0.189249" stop-color="#E88754"/>
<stop offset="0.403621" stop-color="#E9496F"/>
<stop offset="0.517054" stop-color="#E96FBE"/>
<stop offset="0.66207" stop-color="#DD99F8"/>
<stop offset="0.823777" stop-color="#66B5F9"/>
<stop offset="0.900541" stop-color="#7BC7EF"/>
</radialGradient>
</defs>
</svg>
