<svg width="375" height="96" viewBox="0 0 375 96" fill="none" xmlns="http://www.w3.org/2000/svg">
<path fill-rule="evenodd" clip-rule="evenodd" d="M16.1876 11.775C13.6685 14.0425 11.3246 16.6208 9.1557 19.5098C5.15005 25.0166 2.27616 31.424 0.882736 38.3779C0.334356 41.5229 0.0769334 44.86 0.0962364 48.4376C0.126982 54.1665 0.450114 56.5216 2.00427 62.3485C3.03335 66.2062 3.87493 70.6733 3.87493 72.2754C3.87493 73.8774 2.91519 79.0762 1.74203 83.8279C-0.370371 92.3869 -0.380018 92.4837 0.74672 93.9918C2.35634 96.1463 4.47598 96.1566 12.3848 94.0481C21.2788 91.6764 25.0032 91.6844 33.9677 94.0912C38.5902 95.3325 43.1524 95.9662 47.5811 96C66.7935 95.8481 83.2769 84.0571 90.5302 67.2289C91.0128 66.109 91.4543 64.9674 91.8534 63.8049C93.281 59.6459 94.1606 55.2259 94.4053 50.6344C94.4728 48.6446 94.4568 46.5956 94.3593 44.6083C92.74 21.0539 74.3858 2.18313 51.2906 0.175122C49.7988 0.0697967 48.2831 0.0105765 46.7997 0C35.0893 0.099691 24.3945 4.52314 16.1876 11.775ZM4.43678 91.6164C4.17999 91.6164 4.80573 88.5806 5.82759 84.8698C6.85641 81.134 7.47751 77.6382 7.69143 74.3595C7.97202 70.0593 7.55206 66.1332 6.43287 62.5306C5.82963 60.5883 5.33967 58.6808 4.96296 56.7999L4.92164 56.5253C4.38707 53.7679 4.10682 50.9175 4.10682 48.0002C4.10682 23.7948 23.4021 4.17236 47.2041 4.17236C71.006 4.17236 90.3015 23.7948 90.3015 48.0002C90.3015 58.0601 86.969 67.3283 81.3648 74.7251C80.0579 76.2628 78.5486 77.912 77.121 79.335C72.739 83.704 70.7 85.2354 66.5285 87.2912C62.7463 89.1549 59.4663 90.3183 55.8838 90.9389C53.08 91.522 50.1774 91.8279 47.2041 91.8279C43.0492 91.8279 39.0317 91.2303 35.2301 90.1141C34.5562 89.9438 33.872 89.7535 33.1616 89.541C28.6354 88.1849 25.1676 87.6723 21.0887 88.0179C18.4799 88.2391 15.6212 88.8114 12.0756 89.7393C8.13109 90.7719 4.69361 91.6164 4.43678 91.6164Z" fill="url(#paint0_angular_9210_8230)"/>
<path fill-rule="evenodd" clip-rule="evenodd" d="M22.2079 18.6475C20.1753 20.4771 18.2838 22.5576 16.5337 24.8888C13.3015 29.3324 10.9824 34.5027 9.85805 40.114C9.41555 42.6517 9.20783 45.3445 9.22341 48.2314C9.24822 52.8542 9.50896 54.7546 10.7631 59.4565C11.5934 62.5694 12.2725 66.174 12.2725 67.4667C12.2725 68.7594 11.4981 72.9545 10.5514 76.7887C8.84689 83.6952 8.83911 83.7734 9.7483 84.9903C11.0471 86.7287 12.7575 86.7371 19.1394 85.0357C26.3161 83.1219 29.3215 83.1284 36.5551 85.0705C40.2852 86.0721 43.9665 86.5835 47.5402 86.6107C63.0431 86.4882 76.344 76.9737 82.1969 63.3946C82.5863 62.4909 82.9426 61.5697 83.2646 60.6316C84.4166 57.2756 85.1263 53.7091 85.3238 50.0041C85.3782 48.3985 85.3654 46.745 85.2867 45.1415C83.98 26.1348 69.1695 10.9075 50.5334 9.28718C49.3297 9.20219 48.1066 9.15441 46.9096 9.14587C37.4602 9.22632 28.8303 12.7957 22.2079 18.6475Z" fill="black"/>
<path d="M134.926 49.08L149.406 47.24L159.566 68.44C159.886 69.1333 160.233 69.64 160.606 69.96C161.033 70.28 161.486 70.4933 161.966 70.6C162.446 70.7067 163.006 70.76 163.646 70.76H164.126V75H145.886L134.926 49.08ZM129.726 69.96C129.726 70.12 129.833 70.2533 130.046 70.36C130.313 70.4133 130.66 70.4933 131.086 70.6C131.513 70.6533 131.966 70.7067 132.446 70.76C132.98 70.76 133.513 70.76 134.046 70.76H134.846V75H108.766V70.76H109.566C110.9 70.76 112.02 70.5733 112.926 70.2C113.833 69.8267 114.286 69.08 114.286 67.96V25.24C114.286 24.12 113.833 23.3733 112.926 23C112.02 22.6267 110.9 22.44 109.566 22.44H108.766V18.2H137.726C142.473 18.2 146.473 18.8667 149.726 20.2C152.98 21.5333 155.46 23.4 157.166 25.8C158.873 28.1467 159.726 30.9467 159.726 34.2C159.726 37.4 158.926 40.2 157.326 42.6C155.726 44.9467 153.353 46.84 150.206 48.28C147.113 49.6667 143.326 50.4667 138.846 50.68C138.633 50.68 138.34 50.7067 137.966 50.76C137.646 50.76 137.326 50.7867 137.006 50.84C136.686 50.84 136.34 50.84 135.966 50.84H127.646V46.04H134.766C136.9 46.04 138.633 45.5867 139.966 44.68C141.3 43.7733 142.286 42.44 142.926 40.68C143.566 38.92 143.886 36.7333 143.886 34.12C143.886 31.72 143.54 29.6933 142.846 28.04C142.206 26.3867 141.246 25.16 139.966 24.36C138.686 23.5067 137.06 23.08 135.086 23.08H129.726V69.96ZM181.144 54.52C181.144 57.1867 181.358 59.5333 181.784 61.56C182.264 63.5333 182.958 65.1867 183.864 66.52C184.771 67.8533 185.918 68.8667 187.304 69.56C188.691 70.2 190.318 70.52 192.184 70.52C194.158 70.52 195.864 70.1467 197.304 69.4C198.798 68.6533 200.078 67.6933 201.144 66.52C202.264 65.2933 203.198 64.0133 203.944 62.68L207.944 65.48C206.931 67.56 205.598 69.3733 203.944 70.92C202.291 72.4667 200.291 73.6667 197.944 74.52C195.651 75.3733 192.931 75.8 189.784 75.8C185.144 75.8 181.064 74.9467 177.544 73.24C174.024 71.5333 171.304 69.08 169.384 65.88C167.464 62.6267 166.504 58.8133 166.504 54.44C166.504 50.12 167.438 46.36 169.304 43.16C171.224 39.9067 173.838 37.4 177.144 35.64C180.451 33.8267 184.184 32.92 188.344 32.92C191.651 32.92 194.558 33.4 197.064 34.36C199.624 35.32 201.758 36.76 203.464 38.68C205.171 40.5467 206.478 42.8933 207.384 45.72C208.291 48.4933 208.744 51.7467 208.744 55.48H176.984V50.84H196.984L195.224 52.44C195.171 49.6133 195.011 47.2667 194.744 45.4C194.478 43.5333 194.078 42.04 193.544 40.92C193.011 39.8 192.344 39 191.544 38.52C190.744 38.04 189.784 37.8 188.664 37.8C187.544 37.8 186.504 38.12 185.544 38.76C184.638 39.3467 183.838 40.3067 183.144 41.64C182.504 42.9733 181.998 44.7067 181.624 46.84C181.304 48.92 181.144 51.48 181.144 54.52ZM211.299 38.36V34.04H211.539C212.766 34.04 213.806 33.9333 214.659 33.72C215.566 33.5067 216.259 33.1333 216.739 32.6C217.273 32.0133 217.566 31.2133 217.619 30.2L223.299 33.72H241.139V38.36H211.299ZM231.139 62.44C231.139 64.4667 231.353 66.0667 231.779 67.24C232.259 68.36 232.899 69.16 233.699 69.64C234.553 70.0667 235.593 70.28 236.819 70.28C237.833 70.28 238.766 70.1733 239.619 69.96C240.526 69.6933 241.166 69.5067 241.539 69.4V74.36C241.113 74.5733 240.473 74.7867 239.619 75C238.819 75.2133 237.859 75.4 236.739 75.56C235.619 75.72 234.366 75.8 232.979 75.8C229.833 75.8 227.006 75.3733 224.499 74.52C222.046 73.6133 220.099 72.12 218.659 70.04C217.273 67.9067 216.579 65.08 216.579 61.56V34.92L217.379 34.28L218.019 22.68H231.139V62.44ZM256.445 27.88C254.045 27.88 252.125 27.32 250.685 26.2C249.245 25.0267 248.525 23.4 248.525 21.32C248.525 19.24 249.245 17.64 250.685 16.52C252.125 15.3467 254.045 14.76 256.445 14.76C258.898 14.76 260.818 15.3467 262.205 16.52C263.645 17.64 264.365 19.24 264.365 21.32C264.365 23.4 263.645 25.0267 262.205 26.2C260.818 27.32 258.898 27.88 256.445 27.88ZM263.965 33.72V68.68C263.965 69.64 264.365 70.28 265.165 70.6C265.965 70.8667 266.925 71 268.045 71H268.205V75H245.085V71H245.165C246.392 71 247.378 70.8667 248.125 70.6C248.925 70.28 249.325 69.64 249.325 68.68V40.6C249.325 39.7467 249.032 39.16 248.445 38.84C247.912 38.52 247.032 38.2267 245.805 37.96L245.085 37.8V33.72H263.965ZM318.533 54.36C318.533 58.5733 317.573 62.3067 315.653 65.56C313.787 68.8133 311.093 71.3467 307.573 73.16C304.106 74.92 300 75.8 295.253 75.8C290.506 75.8 286.373 74.92 282.853 73.16C279.386 71.3467 276.693 68.8133 274.773 65.56C272.906 62.3067 271.973 58.5733 271.973 54.36C271.973 51.16 272.506 48.2533 273.573 45.64C274.64 43.0267 276.186 40.76 278.213 38.84C280.293 36.92 282.746 35.4533 285.573 34.44C288.453 33.4267 291.68 32.92 295.253 32.92C298.773 32.92 301.946 33.4267 304.773 34.44C307.653 35.4533 310.107 36.92 312.133 38.84C314.213 40.76 315.786 43.0267 316.853 45.64C317.973 48.2533 318.533 51.16 318.533 54.36ZM286.933 54.36C286.933 58.0933 287.253 61.2133 287.893 63.72C288.533 66.1733 289.466 67.9867 290.693 69.16C291.92 70.3333 293.44 70.92 295.253 70.92C297.066 70.92 298.586 70.3333 299.813 69.16C301.04 67.9867 301.946 66.1733 302.533 63.72C303.173 61.2133 303.493 58.0933 303.493 54.36C303.493 50.5733 303.173 47.4533 302.533 45C301.946 42.5467 301.04 40.7333 299.813 39.56C298.586 38.3867 297.066 37.8 295.253 37.8C293.44 37.8 291.92 38.4133 290.693 39.64C289.466 40.8133 288.533 42.6267 287.893 45.08C287.253 47.48 286.933 50.5733 286.933 54.36ZM322.898 75V71H322.978C323.778 71 324.471 70.9467 325.058 70.84C325.698 70.68 326.204 70.44 326.578 70.12C326.951 69.7467 327.138 69.2667 327.138 68.68V40.6C327.138 40.0133 327.004 39.5867 326.738 39.32C326.524 39 326.151 38.76 325.618 38.6C325.084 38.3867 324.418 38.1733 323.618 37.96L322.898 37.8V33.72H340.818V42.44L341.698 42.6V70.28C341.698 70.44 341.884 70.5733 342.258 70.68C342.684 70.7867 343.164 70.8667 343.698 70.92C344.284 70.9733 344.818 71 345.298 71H345.538V75H322.898ZM373.138 75H350.498V71H350.578C351.058 71 351.591 70.9733 352.178 70.92C352.764 70.8667 353.271 70.7867 353.698 70.68C354.124 70.5733 354.338 70.44 354.338 70.28V45.96C354.338 44.5733 354.178 43.4533 353.858 42.6C353.538 41.6933 353.058 41.0267 352.418 40.6C351.778 40.12 350.924 39.88 349.858 39.88C348.578 39.88 347.378 40.2267 346.258 40.92C345.138 41.6133 344.098 42.6267 343.138 43.96C342.178 45.24 341.271 46.8133 340.418 48.68L339.858 43.08C340.924 40.9467 342.204 39.1333 343.698 37.64C345.191 36.0933 346.924 34.92 348.898 34.12C350.871 33.32 353.031 32.92 355.378 32.92C358.151 32.92 360.524 33.4533 362.498 34.52C364.524 35.5333 366.098 37.0533 367.218 39.08C368.338 41.1067 368.898 43.6667 368.898 46.76V68.68C368.898 69.2667 369.084 69.7467 369.458 70.12C369.831 70.44 370.311 70.68 370.898 70.84C371.538 70.9467 372.231 71 372.978 71H373.138V75Z" fill="black"/>
<defs>
<radialGradient id="paint0_angular_9210_8230" cx="0" cy="0" r="1" gradientUnits="userSpaceOnUse" gradientTransform="translate(47.2232 48) rotate(177.49) scale(66.8885 67.5677)">
<stop offset="0.0647736" stop-color="#EEAF4C"/>
<stop offset="0.189249" stop-color="#E88754"/>
<stop offset="0.403621" stop-color="#E9496F"/>
<stop offset="0.517054" stop-color="#E96FBE"/>
<stop offset="0.66207" stop-color="#DD99F8"/>
<stop offset="0.823777" stop-color="#66B5F9"/>
<stop offset="0.900541" stop-color="#7BC7EF"/>
</radialGradient>
</defs>
</svg>
