<svg width="15" height="16" viewBox="0 0 15 16" fill="none" xmlns="http://www.w3.org/2000/svg">
<path d="M7.06327 1.0907C7.00399 1.03169 6.93161 0.98736 6.85196 0.961281C6.77231 0.935202 6.68762 0.928103 6.60471 0.940558C6.5218 0.953012 6.44299 0.98467 6.37463 1.03298C6.30627 1.0813 6.25026 1.14491 6.21112 1.21871L2.83845 7.55865L1.00018 9.38805C0.434226 9.95126 0.261653 10.7513 0.461559 11.4681C-0.200327 12.3049 -0.153164 13.5194 0.621269 14.2911C0.820327 14.4892 1.05672 14.6463 1.3169 14.7533C1.57708 14.8603 1.85593 14.9151 2.13744 14.9146C2.60639 14.9146 3.06998 14.7536 3.45746 14.4501C3.64558 14.5018 3.83798 14.5376 4.03199 14.5376C4.40768 14.5376 4.78123 14.4325 5.11459 14.2373L6.49571 15.6107C6.75671 15.8704 7.09971 16 7.44271 16C7.78571 16 8.12871 15.8704 8.39025 15.6107C8.64104 15.3604 8.78188 15.0214 8.78188 14.668C8.78188 14.3145 8.64104 13.9755 8.39025 13.7253L7.0638 12.4052L7.3859 12.0847L13.7572 8.72776C13.8312 8.68873 13.8951 8.63296 13.9435 8.56492C13.992 8.49688 14.0238 8.41848 14.0363 8.33601C14.0488 8.25354 14.0417 8.1693 14.0156 8.09006C13.9894 8.01081 13.945 7.93878 13.8858 7.87973L7.06327 1.0907ZM1.37909 13.5365C1.24715 13.4041 1.15246 13.2397 1.10449 13.0595C1.05652 12.8793 1.05696 12.6897 1.10576 12.5098L2.41077 13.809C2.22993 13.8576 2.03945 13.858 1.85839 13.8103C1.67733 13.7625 1.51204 13.6683 1.37909 13.537V13.5365ZM3.27417 13.1594L1.758 11.6505C1.55744 11.4503 1.44483 11.1791 1.44483 10.8964C1.44483 10.6136 1.55744 10.3424 1.758 10.1422L3.27471 8.63335L6.30598 11.6505L4.78981 13.1594C4.37178 13.5754 3.6922 13.5754 3.27417 13.1594ZM7.63243 14.4794C7.69943 14.5461 7.70961 14.6261 7.70961 14.6677C7.70961 14.7093 7.69943 14.7893 7.63243 14.856C7.58171 14.905 7.51381 14.9325 7.44309 14.9326C7.37237 14.9327 7.30438 14.9054 7.25352 14.8565L5.92654 13.5365L6.30598 13.1594L7.63243 14.4794ZM7.16295 10.995L3.93338 7.78053L6.81888 2.35581L12.6145 8.12294L7.16295 10.995ZM9.10466 1.60005V0.533351C9.10466 0.391898 9.16113 0.256238 9.26163 0.156215C9.36214 0.0561922 9.49846 0 9.6406 0C9.78274 0 9.91906 0.0561922 10.0196 0.156215C10.1201 0.256238 10.1765 0.391898 10.1765 0.533351V1.60005C10.1765 1.74151 10.1201 1.87717 10.0196 1.97719C9.91906 2.07721 9.78274 2.1334 9.6406 2.1334C9.49846 2.1334 9.36214 2.07721 9.26163 1.97719C9.16113 1.87717 9.10466 1.74151 9.10466 1.60005ZM15 5.33351C15 5.47496 14.9435 5.61062 14.843 5.71065C14.7425 5.81067 14.6062 5.86686 14.4641 5.86686H13.3922C13.25 5.86686 13.1137 5.81067 13.0132 5.71065C12.9127 5.61062 12.8562 5.47496 12.8562 5.33351C12.8562 5.19206 12.9127 5.0564 13.0132 4.95638C13.1137 4.85635 13.25 4.80016 13.3922 4.80016H14.4641C14.6062 4.80016 14.7425 4.85635 14.843 4.95638C14.9435 5.0564 15 5.19206 15 5.33351ZM11.4055 3.57719C11.305 3.47717 11.2485 3.34153 11.2485 3.20011C11.2485 3.05868 11.305 2.92305 11.4055 2.82303L12.4773 1.75633C12.5268 1.70538 12.5859 1.66475 12.6513 1.6368C12.7167 1.60885 12.787 1.59413 12.8582 1.59352C12.9293 1.5929 12.9999 1.6064 13.0658 1.63322C13.1316 1.66003 13.1915 1.69964 13.2418 1.74971C13.2921 1.79979 13.3319 1.85934 13.3589 1.92489C13.3858 1.99044 13.3994 2.06067 13.3987 2.13149C13.3981 2.2023 13.3833 2.27229 13.3553 2.33736C13.3272 2.40243 13.2863 2.46128 13.2352 2.51048L12.1633 3.57719C12.1136 3.62689 12.0546 3.66633 11.9895 3.69324C11.9245 3.72015 11.8548 3.73401 11.7844 3.73401C11.7139 3.73401 11.6442 3.72015 11.5792 3.69324C11.5141 3.66633 11.4551 3.62689 11.4055 3.57719Z" fill="#3F83F8"/>
</svg>
