<svg width="21" height="21" viewBox="0 0 21 21" fill="none" xmlns="http://www.w3.org/2000/svg">
<path d="M16.59 4.2L14.49 4.2C14.3745 4.2 14.28 4.2945 14.28 4.41L14.28 16.59C14.28 16.7055 14.3745 16.8 14.49 16.8L16.59 16.8C16.7055 16.8 16.8 16.7055 16.8 16.59L16.8 4.41C16.8 4.2945 16.7055 4.2 16.59 4.2ZM11.55 11.55L9.45 11.55C9.3345 11.55 9.24 11.6445 9.24 11.76L9.24 16.59C9.24 16.7055 9.3345 16.8 9.45 16.8L11.55 16.8C11.6655 16.8 11.76 16.7055 11.76 16.59L11.76 11.76C11.76 11.6445 11.6655 11.55 11.55 11.55ZM6.51 9.66L4.41 9.66C4.2945 9.66 4.2 9.7545 4.2 9.87L4.2 16.59C4.2 16.7055 4.2945 16.8 4.41 16.8L6.51 16.8C6.6255 16.8 6.72 16.7055 6.72 16.59L6.72 9.87C6.72 9.7545 6.6255 9.66 6.51 9.66ZM0.84 21L20.16 21C20.6246 21 21 20.6246 21 20.16L21 0.84C21 0.375376 20.6246 3.28163e-08 20.16 7.34351e-08L0.839998 1.76244e-06C0.375374 1.80306e-06 -1.80306e-06 0.375378 -1.76244e-06 0.840002L-7.34351e-08 20.16C-3.28163e-08 20.6246 0.375376 21 0.84 21ZM1.89 1.89L19.11 1.89L19.11 19.11L1.89 19.11L1.89 1.89Z" fill="#140F2D"/>
</svg>
