<svg width="11" height="16" viewBox="0 0 11 16" fill="none" xmlns="http://www.w3.org/2000/svg">
<path fill-rule="evenodd" clip-rule="evenodd" d="M10.707 10.293C10.8944 10.4805 10.9997 10.7348 10.9997 11C10.9997 11.2652 10.8944 11.5195 10.707 11.707L6.70696 15.707C6.51943 15.8945 6.26512 15.9998 5.99996 15.9998C5.73479 15.9998 5.48049 15.8945 5.29296 15.707L1.29296 11.707C1.19745 11.6148 1.12127 11.5044 1.06886 11.3824C1.01645 11.2604 0.988862 11.1292 0.987709 10.9964C0.986555 10.8636 1.01186 10.7319 1.06214 10.609C1.11242 10.4861 1.18667 10.3745 1.28056 10.2806C1.37446 10.1867 1.48611 10.1125 1.60901 10.0622C1.7319 10.0119 1.86358 9.9866 1.99636 9.98775C2.12914 9.9889 2.26036 10.0165 2.38236 10.0689C2.50437 10.1213 2.61471 10.1975 2.70696 10.293L4.99996 12.586V1C4.99996 0.734784 5.10532 0.48043 5.29285 0.292893C5.48039 0.105357 5.73474 0 5.99996 0C6.26518 0 6.51953 0.105357 6.70707 0.292893C6.8946 0.48043 6.99996 0.734784 6.99996 1V12.586L9.29296 10.293C9.48049 10.1055 9.73479 10.0002 9.99996 10.0002C10.2651 10.0002 10.5194 10.1055 10.707 10.293V10.293Z" fill="#FF5A1F"/>
</svg>
