<svg width="20" height="20" viewBox="0 0 20 20" fill="none" xmlns="http://www.w3.org/2000/svg">
<rect width="20" height="20" rx="2" fill="#FB8965"/>
<path d="M15 12.4335V12.4319L14.9999 5.524C14.9999 5.37138 14.9328 5.22632 14.816 5.12677C14.6992 5.0273 14.5445 4.98306 14.392 5.00589L7.82606 5.98853C7.56745 6.0273 7.37623 6.24751 7.37623 6.50664V12.1557C7.21976 12.1135 7.05354 12.0903 6.88182 12.0903C6.44921 12.0903 6.02083 12.2257 5.67571 12.4716C5.28427 12.7501 5.03964 13.1476 5.00443 13.562C4.96869 13.9791 5.15077 14.3886 5.49144 14.6576C5.77136 14.8784 6.14821 15 6.55264 15C6.74023 15 6.92911 14.974 7.11429 14.9227C7.73578 14.7499 8.43395 14.2066 8.43395 13.4162V6.95747L13.9422 6.13306L13.9423 11.173C13.7857 11.1308 13.6196 11.1076 13.4478 11.1076C13.0153 11.1076 12.5869 11.243 12.2418 11.4888C11.8503 11.7674 11.6056 12.1648 11.5703 12.5794C11.5348 12.9966 11.7168 13.4061 12.0574 13.6749C12.3373 13.8957 12.7142 14.0173 13.1187 14.0173C13.3067 14.0173 13.4956 13.9912 13.6802 13.94C14.3017 13.7672 15 13.2271 15 12.4335ZM6.82878 13.9135C6.57152 13.985 6.29357 13.9507 6.1504 13.8379C6.08694 13.7878 6.05248 13.7177 6.0583 13.6501C6.06722 13.5446 6.15712 13.419 6.29281 13.3225C6.45729 13.2054 6.67193 13.1382 6.88174 13.1382C7.04546 13.1382 7.19211 13.1799 7.28428 13.2525C7.34162 13.2977 7.376 13.3595 7.37615 13.4175C7.37675 13.6299 7.09245 13.8403 6.82878 13.9135ZM12.7164 12.8552C12.653 12.8051 12.6186 12.735 12.6244 12.6674C12.6333 12.5619 12.7232 12.4363 12.8589 12.3397C13.0234 12.2227 13.2381 12.1555 13.4478 12.1555C13.6115 12.1555 13.7582 12.1971 13.8503 12.2697C13.9077 12.315 13.942 12.3769 13.9423 12.4349C13.9429 12.6471 13.6584 12.8576 13.3945 12.9309C13.1386 13.0019 12.8598 12.9682 12.7164 12.8552Z" fill="white"/>
<path d="M11.7317 9.09008L10.2783 8.03362C10.2522 8.01458 10.2213 8.00314 10.1891 8.00056C10.1569 7.99798 10.1246 8.00436 10.0958 8.01899C10.067 8.03362 10.0428 8.05594 10.0259 8.08347C10.009 8.11101 10 8.14268 10 8.17499V10.2872C9.9999 10.3196 10.0088 10.3513 10.0257 10.3789C10.0426 10.4065 10.0668 10.4289 10.0957 10.4435C10.1245 10.4582 10.1569 10.4645 10.1892 10.4618C10.2214 10.4591 10.2523 10.4476 10.2783 10.4284L11.7317 9.37283C11.7541 9.35672 11.7724 9.3355 11.785 9.31091C11.7977 9.28633 11.8042 9.25909 11.8042 9.23145C11.8042 9.20382 11.7977 9.17658 11.785 9.152C11.7724 9.12741 11.7541 9.10619 11.7317 9.09008Z" fill="white"/>
</svg>
