<svg width="202" height="48" viewBox="0 0 202 48" fill="none" xmlns="http://www.w3.org/2000/svg">
<g clip-path="url(#clip0_5305_105755)">
<path d="M26.3838 9.36709L25.6329 12.1519C31.6906 14.7342 35.9461 20.8101 35.9461 27.8481C35.9461 37.2658 28.3864 44.9114 19.0745 44.9114C9.76251 44.962 2.20282 37.3165 2.20282 27.8481C2.20282 20.4051 6.95892 14.0253 13.5173 11.7468L14.6688 8.70886C6.20796 10.9367 0 18.7342 0 28.0506C0 39.0886 8.71117 48 19.525 48C30.3389 48 39.0501 39.0886 39.0501 28.0506C39 19.4937 33.7433 12.2025 26.3838 9.36709Z" fill="#E8441E"/>
<path d="M33.543 27.1898L31.7908 27.1392C31.7407 27.1392 31.6906 27.0886 31.6906 27.0379L32.1412 21.519C32.1412 21.4683 32.1412 21.4177 32.0912 21.4177C31.6406 21.1645 29.0372 19.6455 24.3312 18.481C24.2811 18.481 24.2311 18.4304 24.2311 18.3291C24.3312 17.6202 24.3813 17.1645 24.4313 16.962C24.4313 16.9114 24.3813 16.8607 24.3312 16.8101C24.0308 16.7088 23.0796 16.4557 21.9281 16.405C21.8781 16.405 21.7779 16.3544 21.828 16.2531C22.1284 14.9873 23.38 9.46833 23.6303 8.45567C23.6303 8.35441 23.5802 8.30377 23.5302 8.30377L20.0757 8.60757C19.9756 8.60757 19.9256 8.55694 19.9756 8.45567L21.828 0.151875C21.8781 -2.36338e-05 21.6778 -0.0506565 21.5777 0.0506093L16.3209 11.1392C16.2709 11.2405 16.3209 11.3417 16.4211 11.2911L20.0257 11.1392C20.1258 11.1392 20.1759 11.2405 20.1258 11.2911L18.724 15.8987C18.724 15.9493 18.6739 16 18.6239 16L16.4211 16.0506C16.371 16.0506 16.3209 16.1012 16.3209 16.1519L16.2709 17.519C16.2709 17.5696 16.2208 17.6202 16.1707 17.6202C15.4198 17.6709 10.7638 17.8734 7.91015 18.8354C7.86008 18.8354 7.81002 18.8861 7.81002 18.9367L7.30938 24.3544C7.30938 24.405 7.25931 24.4557 7.15918 24.4557L5.35687 24.3038C5.30681 24.3038 5.25675 24.3544 5.20668 24.405L4.65598 29.3164C4.65598 29.3671 4.70604 29.4683 4.7561 29.4683L6.50835 29.6202C6.55841 29.6202 6.60848 29.6709 6.60848 29.7721L6.20796 33.8228C6.20796 33.8734 6.20797 33.924 6.25803 33.924C7.15918 34.481 17.7728 40.6076 30.439 36.6582C30.4891 36.6582 30.5392 36.6076 30.5392 36.5569C30.7394 34.8354 30.8896 33.0126 30.9397 32.5569C30.9397 32.5063 30.9897 32.4557 31.0899 32.4557L32.9422 32.6582C32.9923 32.6582 33.0424 32.6076 33.0924 32.5569L33.6431 27.4936C33.6431 27.2405 33.5931 27.1898 33.543 27.1898ZM27.4352 33.6709C27.4352 33.6709 18.7741 36.1012 9.91271 31.8987C10.2131 28.7595 10.8639 21.519 10.8639 21.519C10.8639 21.519 19.9756 19.5443 28.4365 23.4936L27.4352 33.6709Z" fill="#E8441E"/>
<path d="M15.6701 25.2151C15.6701 25.2151 15.4698 25.1645 15.3196 25.2151C15.1695 25.2151 15.0693 25.3164 14.9191 25.367C14.6187 25.5189 12.1656 26.4303 13.1168 27.6455C13.5674 28.1012 13.9679 28.1518 14.6688 27.7468C15.0693 27.4936 15.3697 27.443 15.4198 27.443C15.4198 27.2404 15.6701 25.2151 15.6701 25.2151Z" fill="#E8441E"/>
<path d="M15.62 25.2152C15.62 25.2152 15.8203 25.2152 15.9705 25.2658C16.1207 25.3165 16.2208 25.4177 16.3209 25.519C16.5713 25.7722 18.7741 27.1393 17.5725 28.1519C17.0719 28.5063 16.6213 28.4557 16.0206 27.8988C15.6701 27.595 15.4198 27.4431 15.3697 27.4431C15.4198 27.2405 15.62 25.2152 15.62 25.2152Z" fill="#E8441E"/>
<path d="M23.2298 26.0253C23.2298 26.0253 23.0295 25.9747 22.8793 26.0253C22.7291 26.0253 22.629 26.1266 22.4788 26.1772C22.1784 26.3291 19.7253 27.2405 20.6765 28.4557C21.1271 28.9114 21.5276 28.962 22.2285 28.557C22.629 28.3038 22.9294 28.2532 22.9794 28.2532C22.9794 28.0506 23.2298 26.0253 23.2298 26.0253Z" fill="#E8441E"/>
<path d="M23.1797 26.0254C23.1797 26.0254 23.38 26.0254 23.5302 26.076C23.6804 26.1267 23.7805 26.2279 23.8806 26.3292C24.131 26.5824 26.3338 27.9494 25.1322 28.9621C24.6316 29.3165 24.181 29.2659 23.5802 28.7089C23.2298 28.4051 22.9795 28.2532 22.9294 28.2532C22.9795 28.0507 23.1797 26.0254 23.1797 26.0254Z" fill="#E8441E"/>
<path d="M5.90758 40.7089C5.90758 40.7089 17.4724 36.0506 29.9384 43.1393C26.0834 45.2152 22.3286 46.3291 22.3286 46.3291L11.6149 44.6076L6.8588 42.0253L5.90758 40.7089Z" fill="#E8441E"/>
</g>
<path d="M47.6328 12.6836H53.3555C54.4883 12.6836 55.3314 12.7324 55.8848 12.8301C56.4447 12.9212 56.9427 13.1165 57.3789 13.416C57.8216 13.7155 58.1895 14.1159 58.4824 14.6172C58.7754 15.112 58.9219 15.6686 58.9219 16.2871C58.9219 16.9577 58.7396 17.5729 58.375 18.1328C58.0169 18.6927 57.5286 19.1126 56.9102 19.3926C57.7826 19.6465 58.4531 20.0794 58.9219 20.6914C59.3906 21.3034 59.625 22.0228 59.625 22.8496C59.625 23.5007 59.472 24.1354 59.166 24.7539C58.8665 25.3659 58.4531 25.8574 57.9258 26.2285C57.4049 26.5931 56.7604 26.8177 55.9922 26.9023C55.5104 26.9544 54.3483 26.987 52.5059 27H47.6328V12.6836ZM50.5234 15.0664V18.377H52.418C53.5443 18.377 54.2441 18.3607 54.5176 18.3281C55.0124 18.2695 55.3997 18.1003 55.6797 17.8203C55.9661 17.5339 56.1094 17.1595 56.1094 16.6973C56.1094 16.2546 55.9857 15.8965 55.7383 15.623C55.4974 15.3431 55.1361 15.1738 54.6543 15.1152C54.3678 15.0827 53.5443 15.0664 52.1836 15.0664H50.5234ZM50.5234 20.7598V24.5879H53.1992C54.2409 24.5879 54.9017 24.5586 55.1816 24.5C55.6113 24.4219 55.9596 24.2331 56.2266 23.9336C56.5 23.6276 56.6367 23.2207 56.6367 22.7129C56.6367 22.2832 56.5326 21.9186 56.3242 21.6191C56.1159 21.3197 55.8132 21.1016 55.416 20.9648C55.0254 20.8281 54.1725 20.7598 52.8574 20.7598H50.5234ZM61.4902 19.9297C61.4902 18.4714 61.7083 17.2474 62.1445 16.2578C62.4701 15.5286 62.9128 14.8743 63.4727 14.2949C64.0391 13.7155 64.6576 13.2858 65.3281 13.0059C66.2201 12.6283 67.2487 12.4395 68.4141 12.4395C70.5234 12.4395 72.2096 13.0938 73.4727 14.4023C74.7422 15.7109 75.377 17.5306 75.377 19.8613C75.377 22.1725 74.7487 23.9824 73.4922 25.291C72.2357 26.5931 70.556 27.2441 68.4531 27.2441C66.3242 27.2441 64.6315 26.5964 63.375 25.3008C62.1185 23.9987 61.4902 22.2083 61.4902 19.9297ZM64.4688 19.832C64.4688 21.4531 64.8431 22.6836 65.5918 23.5234C66.3405 24.3568 67.291 24.7734 68.4434 24.7734C69.5957 24.7734 70.5397 24.36 71.2754 23.5332C72.0176 22.6999 72.3887 21.4531 72.3887 19.793C72.3887 18.1523 72.0273 16.9284 71.3047 16.1211C70.5885 15.3138 69.6348 14.9102 68.4434 14.9102C67.252 14.9102 66.2917 15.3203 65.5625 16.1406C64.8333 16.9544 64.4688 18.1849 64.4688 19.832ZM80.8652 27V15.1055H76.6172V12.6836H87.9941V15.1055H83.7559V27H80.8652ZM95.4453 12.6836H101.168C102.301 12.6836 103.144 12.7324 103.697 12.8301C104.257 12.9212 104.755 13.1165 105.191 13.416C105.634 13.7155 106.002 14.1159 106.295 14.6172C106.588 15.112 106.734 15.6686 106.734 16.2871C106.734 16.9577 106.552 17.5729 106.188 18.1328C105.829 18.6927 105.341 19.1126 104.723 19.3926C105.595 19.6465 106.266 20.0794 106.734 20.6914C107.203 21.3034 107.438 22.0228 107.438 22.8496C107.438 23.5007 107.285 24.1354 106.979 24.7539C106.679 25.3659 106.266 25.8574 105.738 26.2285C105.217 26.5931 104.573 26.8177 103.805 26.9023C103.323 26.9544 102.161 26.987 100.318 27H95.4453V12.6836ZM98.3359 15.0664V18.377H100.23C101.357 18.377 102.057 18.3607 102.33 18.3281C102.825 18.2695 103.212 18.1003 103.492 17.8203C103.779 17.5339 103.922 17.1595 103.922 16.6973C103.922 16.2546 103.798 15.8965 103.551 15.623C103.31 15.3431 102.949 15.1738 102.467 15.1152C102.18 15.0827 101.357 15.0664 99.9961 15.0664H98.3359ZM98.3359 20.7598V24.5879H101.012C102.053 24.5879 102.714 24.5586 102.994 24.5C103.424 24.4219 103.772 24.2331 104.039 23.9336C104.312 23.6276 104.449 23.2207 104.449 22.7129C104.449 22.2832 104.345 21.9186 104.137 21.6191C103.928 21.3197 103.626 21.1016 103.229 20.9648C102.838 20.8281 101.985 20.7598 100.67 20.7598H98.3359ZM122.799 27H119.654L118.404 23.748H112.682L111.5 27H108.434L114.01 12.6836H117.066L122.799 27ZM117.477 21.3359L115.504 16.0234L113.57 21.3359H117.477ZM113.844 11.8633L115.191 8.94336H118.268L115.582 11.8633H113.844ZM124.371 27V12.6836H127.184L133.043 22.2441V12.6836H135.729V27H132.828L127.057 17.6641V27H124.371ZM144.371 27V12.6836H147.262V18.3184H152.926V12.6836H155.816V27H152.926V20.7402H147.262V27H144.371ZM171.725 27H168.58L167.33 23.748H161.607L160.426 27H157.359L162.936 12.6836H165.992L171.725 27ZM166.402 21.3359L164.43 16.0234L162.496 21.3359H166.402ZM166.061 11.8633H164.332L161.637 8.94336H164.713L166.061 11.8633ZM173.297 27V12.6836H176.109L181.969 22.2441V12.6836H184.654V27H181.754L175.982 17.6641V27H173.297ZM194.381 21.7363V19.3242H200.611V25.0273C200.006 25.6133 199.127 26.1309 197.975 26.5801C196.829 27.0228 195.667 27.2441 194.488 27.2441C192.991 27.2441 191.686 26.9316 190.572 26.3066C189.459 25.6751 188.622 24.7767 188.062 23.6113C187.503 22.4395 187.223 21.1667 187.223 19.793C187.223 18.3021 187.535 16.9772 188.16 15.8184C188.785 14.6595 189.7 13.7708 190.904 13.1523C191.822 12.6771 192.965 12.4395 194.332 12.4395C196.109 12.4395 197.496 12.8138 198.492 13.5625C199.495 14.3047 200.139 15.3333 200.426 16.6484L197.555 17.1855C197.353 16.4824 196.972 15.929 196.412 15.5254C195.859 15.1152 195.165 14.9102 194.332 14.9102C193.069 14.9102 192.063 15.3105 191.314 16.1113C190.572 16.9121 190.201 18.1003 190.201 19.6758C190.201 21.375 190.579 22.651 191.334 23.5039C192.089 24.3503 193.079 24.7734 194.303 24.7734C194.908 24.7734 195.514 24.6562 196.119 24.4219C196.731 24.181 197.255 23.8913 197.691 23.5527V21.7363H194.381Z" fill="#E8441E"/>
<path d="M47.3723 43V33.3364H48.6511V41.8596H53.4104V43H47.3723ZM59.5803 40.7456L60.8064 40.8972C60.613 41.6135 60.2549 42.1694 59.7319 42.5649C59.209 42.9604 58.541 43.1582 57.728 43.1582C56.7041 43.1582 55.8911 42.844 55.2891 42.2156C54.6914 41.5828 54.3926 40.6973 54.3926 39.5591C54.3926 38.3813 54.6958 37.4673 55.3022 36.8169C55.9087 36.1665 56.6953 35.8413 57.6621 35.8413C58.5981 35.8413 59.3628 36.1599 59.9561 36.7971C60.5493 37.4343 60.8459 38.3308 60.8459 39.4866C60.8459 39.5569 60.8438 39.6624 60.8394 39.803H55.6187C55.6626 40.572 55.8801 41.1609 56.2712 41.5696C56.6624 41.9783 57.1501 42.1826 57.7346 42.1826C58.1697 42.1826 58.541 42.0684 58.8486 41.8398C59.1562 41.6113 59.4001 41.2466 59.5803 40.7456ZM55.6846 38.8274H59.5935C59.5408 38.2385 59.3914 37.7969 59.1453 37.5024C58.7673 37.0454 58.2773 36.8169 57.6753 36.8169C57.1304 36.8169 56.6711 36.9993 56.2976 37.364C55.9285 37.7288 55.7241 38.2166 55.6846 38.8274ZM66.8708 42.1365C66.4314 42.51 66.0073 42.7737 65.5986 42.9275C65.1943 43.0813 64.7593 43.1582 64.2935 43.1582C63.5244 43.1582 62.9333 42.9714 62.5203 42.5979C62.1072 42.22 61.9006 41.7388 61.9006 41.1543C61.9006 40.8115 61.9775 40.4995 62.1313 40.2183C62.2896 39.9326 62.4939 39.7041 62.7444 39.5327C62.9993 39.3613 63.2849 39.2317 63.6013 39.1438C63.8342 39.0823 64.1858 39.0229 64.656 38.9658C65.614 38.8516 66.3193 38.7153 66.772 38.5571C66.7764 38.3945 66.7786 38.2913 66.7786 38.2473C66.7786 37.7639 66.6665 37.4233 66.4424 37.2256C66.1392 36.9575 65.6887 36.8235 65.0911 36.8235C64.533 36.8235 64.1199 36.9224 63.8518 37.1201C63.5881 37.3135 63.3926 37.6584 63.2651 38.155L62.105 37.9968C62.2104 37.5002 62.384 37.1003 62.6257 36.7971C62.8674 36.4895 63.2168 36.2544 63.6738 36.0918C64.1309 35.9248 64.6604 35.8413 65.2625 35.8413C65.8601 35.8413 66.3457 35.9116 66.7192 36.0522C67.0928 36.1929 67.3674 36.3708 67.5432 36.5862C67.719 36.7971 67.842 37.0652 67.9124 37.3904C67.9519 37.5925 67.9717 37.9573 67.9717 38.4846V40.0667C67.9717 41.1697 67.9958 41.8684 68.0442 42.1628C68.0969 42.4529 68.198 42.7319 68.3474 43H67.1082C66.9851 42.7539 66.906 42.4661 66.8708 42.1365ZM66.772 39.4866C66.3413 39.6624 65.6953 39.8118 64.834 39.9348C64.3462 40.0051 64.0012 40.0842 63.7991 40.1721C63.5969 40.26 63.4409 40.3896 63.3311 40.561C63.2212 40.728 63.1663 40.9148 63.1663 41.1213C63.1663 41.4377 63.2849 41.7014 63.5222 41.9124C63.7639 42.1233 64.1155 42.2288 64.5769 42.2288C65.0339 42.2288 65.4404 42.1299 65.7964 41.9321C66.1523 41.73 66.4138 41.4553 66.5808 41.1082C66.7083 40.8401 66.772 40.4446 66.772 39.9216V39.4866ZM74.3591 43V42.1167C73.9153 42.811 73.2627 43.1582 72.4014 43.1582C71.8433 43.1582 71.3291 43.0044 70.8589 42.6968C70.3931 42.3892 70.0305 41.9607 69.7712 41.4114C69.5164 40.8577 69.3889 40.2227 69.3889 39.5063C69.3889 38.8076 69.5054 38.1748 69.7383 37.6079C69.9712 37.0366 70.3206 36.5994 70.7864 36.2961C71.2522 35.9929 71.7729 35.8413 72.3486 35.8413C72.7705 35.8413 73.1462 35.9314 73.4758 36.1116C73.8054 36.2874 74.0735 36.5181 74.28 36.8037V33.3364H75.46V43H74.3591ZM70.6084 39.5063C70.6084 40.4028 70.7974 41.073 71.1753 41.5168C71.5532 41.9607 71.9993 42.1826 72.5134 42.1826C73.032 42.1826 73.4714 41.9717 73.8318 41.5498C74.1965 41.1235 74.3789 40.4753 74.3789 39.6052C74.3789 38.6472 74.1943 37.9441 73.8252 37.4958C73.4561 37.0476 73.0012 36.8235 72.4607 36.8235C71.9333 36.8235 71.4917 37.0388 71.1357 37.4695C70.7842 37.9001 70.6084 38.5791 70.6084 39.5063ZM77.3386 34.7009V33.3364H78.5251V34.7009H77.3386ZM77.3386 43V35.9995H78.5251V43H77.3386ZM80.3379 43V35.9995H81.4058V36.9949C81.9199 36.2258 82.6626 35.8413 83.6338 35.8413C84.0557 35.8413 84.4424 35.9182 84.7939 36.072C85.1499 36.2214 85.4158 36.4192 85.5916 36.6653C85.7673 36.9114 85.8904 37.2036 85.9607 37.542C86.0046 37.7617 86.0266 38.1462 86.0266 38.6956V43H84.8401V38.7417C84.8401 38.2583 84.7939 37.8979 84.7017 37.6606C84.6094 37.4189 84.4446 37.2278 84.2073 37.0872C83.9744 36.9421 83.6997 36.8696 83.3833 36.8696C82.8779 36.8696 82.4407 37.03 82.0715 37.3508C81.7068 37.6716 81.5244 38.2803 81.5244 39.1768V43H80.3379ZM87.635 43.5801L88.7886 43.7515C88.8369 44.1074 88.9709 44.3667 89.1907 44.5293C89.4851 44.749 89.8872 44.8589 90.397 44.8589C90.9463 44.8589 91.3704 44.749 91.6692 44.5293C91.968 44.3096 92.1702 44.002 92.2756 43.6064C92.3372 43.3647 92.3657 42.8572 92.3613 42.0837C91.8428 42.6946 91.1968 43 90.4233 43C89.4609 43 88.7161 42.6528 88.1887 41.9585C87.6614 41.2642 87.3977 40.4314 87.3977 39.4602C87.3977 38.7922 87.5186 38.177 87.7603 37.6145C88.002 37.0476 88.3513 36.6104 88.8083 36.3027C89.2698 35.9951 89.8103 35.8413 90.4299 35.8413C91.2561 35.8413 91.9373 36.1753 92.4734 36.8433V35.9995H93.5676V42.0508C93.5676 43.1406 93.4556 43.9119 93.2314 44.3645C93.0117 44.8215 92.6602 45.1819 92.1768 45.4456C91.6978 45.7092 91.1067 45.8411 90.4036 45.8411C89.5686 45.8411 88.894 45.6521 88.3799 45.2742C87.8657 44.9006 87.6174 44.3359 87.635 43.5801ZM88.6172 39.3745C88.6172 40.293 88.7996 40.9631 89.1643 41.385C89.5291 41.8069 89.9861 42.0178 90.5354 42.0178C91.0803 42.0178 91.5374 41.8091 91.9065 41.3916C92.2756 40.9697 92.4602 40.3105 92.4602 39.4141C92.4602 38.5571 92.269 37.9111 91.8867 37.4761C91.5088 37.041 91.0518 36.8235 90.5156 36.8235C89.9883 36.8235 89.54 37.0388 89.1709 37.4695C88.8018 37.8958 88.6172 38.5308 88.6172 39.3745ZM106.171 39.6118L107.45 39.9348C107.182 40.9851 106.698 41.7871 106 42.3408C105.305 42.8901 104.455 43.1648 103.449 43.1648C102.407 43.1648 101.559 42.9539 100.904 42.532C100.254 42.1057 99.7573 41.4905 99.4146 40.6863C99.0762 39.8821 98.907 39.0186 98.907 38.0957C98.907 37.0894 99.0981 36.2126 99.4805 35.4656C99.8672 34.7141 100.414 34.145 101.122 33.7583C101.834 33.3672 102.616 33.1716 103.469 33.1716C104.435 33.1716 105.248 33.4177 105.907 33.9099C106.567 34.4021 107.026 35.0942 107.285 35.9863L106.026 36.283C105.802 35.5798 105.477 35.0679 105.051 34.7471C104.624 34.4263 104.088 34.2659 103.442 34.2659C102.699 34.2659 102.078 34.4438 101.577 34.7998C101.08 35.1558 100.731 35.6348 100.529 36.2368C100.326 36.8345 100.225 37.4519 100.225 38.0891C100.225 38.9109 100.344 39.6294 100.581 40.2446C100.823 40.8555 101.197 41.3125 101.702 41.6157C102.207 41.9189 102.754 42.0706 103.343 42.0706C104.06 42.0706 104.666 41.864 105.163 41.4509C105.659 41.0378 105.995 40.4248 106.171 39.6118ZM108.88 43V33.3364H110.067V36.8037C110.621 36.1621 111.319 35.8413 112.163 35.8413C112.682 35.8413 113.132 35.9446 113.514 36.1511C113.897 36.3533 114.169 36.6345 114.332 36.9949C114.499 37.3552 114.582 37.8782 114.582 38.5637V43H113.396V38.5637C113.396 37.9705 113.266 37.5398 113.007 37.2717C112.752 36.9993 112.389 36.863 111.919 36.863C111.568 36.863 111.236 36.9553 110.924 37.1399C110.616 37.3201 110.396 37.5662 110.265 37.8782C110.133 38.1902 110.067 38.6208 110.067 39.1702V43H108.88ZM120.963 42.1365C120.524 42.51 120.1 42.7737 119.691 42.9275C119.287 43.0813 118.852 43.1582 118.386 43.1582C117.617 43.1582 117.026 42.9714 116.613 42.5979C116.199 42.22 115.993 41.7388 115.993 41.1543C115.993 40.8115 116.07 40.4995 116.224 40.2183C116.382 39.9326 116.586 39.7041 116.837 39.5327C117.092 39.3613 117.377 39.2317 117.694 39.1438C117.927 39.0823 118.278 39.0229 118.748 38.9658C119.706 38.8516 120.412 38.7153 120.864 38.5571C120.869 38.3945 120.871 38.2913 120.871 38.2473C120.871 37.7639 120.759 37.4233 120.535 37.2256C120.231 36.9575 119.781 36.8235 119.183 36.8235C118.625 36.8235 118.212 36.9224 117.944 37.1201C117.68 37.3135 117.485 37.6584 117.357 38.155L116.197 37.9968C116.303 37.5002 116.476 37.1003 116.718 36.7971C116.96 36.4895 117.309 36.2544 117.766 36.0918C118.223 35.9248 118.753 35.8413 119.355 35.8413C119.952 35.8413 120.438 35.9116 120.812 36.0522C121.185 36.1929 121.46 36.3708 121.635 36.5862C121.811 36.7971 121.934 37.0652 122.005 37.3904C122.044 37.5925 122.064 37.9573 122.064 38.4846V40.0667C122.064 41.1697 122.088 41.8684 122.136 42.1628C122.189 42.4529 122.29 42.7319 122.44 43H121.2C121.077 42.7539 120.998 42.4661 120.963 42.1365ZM120.864 39.4866C120.434 39.6624 119.788 39.8118 118.926 39.9348C118.438 40.0051 118.094 40.0842 117.891 40.1721C117.689 40.26 117.533 40.3896 117.423 40.561C117.313 40.728 117.259 40.9148 117.259 41.1213C117.259 41.4377 117.377 41.7014 117.615 41.9124C117.856 42.1233 118.208 42.2288 118.669 42.2288C119.126 42.2288 119.533 42.1299 119.889 41.9321C120.245 41.73 120.506 41.4553 120.673 41.1082C120.801 40.8401 120.864 40.4446 120.864 39.9216V39.4866ZM126.5 41.9387L126.672 42.9868C126.338 43.0571 126.039 43.0923 125.775 43.0923C125.344 43.0923 125.01 43.0242 124.773 42.8879C124.536 42.7517 124.369 42.5737 124.272 42.354C124.176 42.1299 124.127 41.6619 124.127 40.95V36.9224H123.257V35.9995H124.127V34.2659L125.307 33.554V35.9995H126.5V36.9224H125.307V41.0159C125.307 41.3542 125.327 41.5718 125.366 41.6685C125.41 41.7651 125.479 41.842 125.571 41.8992C125.667 41.9563 125.804 41.9849 125.979 41.9849C126.111 41.9849 126.285 41.9695 126.5 41.9387ZM128.761 43H127.66V33.3364H128.847V36.7839C129.348 36.1555 129.987 35.8413 130.765 35.8413C131.196 35.8413 131.602 35.9292 131.985 36.105C132.371 36.2764 132.688 36.5203 132.934 36.8367C133.184 37.1487 133.38 37.5266 133.521 37.9705C133.661 38.4143 133.731 38.8889 133.731 39.3943C133.731 40.594 133.435 41.5212 132.842 42.176C132.248 42.8308 131.536 43.1582 130.706 43.1582C129.88 43.1582 129.231 42.8132 128.761 42.1233V43ZM128.748 39.447C128.748 40.2864 128.862 40.8928 129.091 41.2664C129.464 41.8772 129.97 42.1826 130.607 42.1826C131.125 42.1826 131.574 41.9585 131.952 41.5103C132.33 41.0576 132.519 40.3853 132.519 39.4932C132.519 38.5791 132.336 37.9045 131.971 37.4695C131.611 37.0344 131.174 36.8169 130.66 36.8169C130.141 36.8169 129.693 37.0432 129.315 37.4958C128.937 37.9441 128.748 38.5945 128.748 39.447ZM134.74 39.4998C134.74 38.2034 135.1 37.2432 135.821 36.6191C136.423 36.1006 137.157 35.8413 138.023 35.8413C138.985 35.8413 139.772 36.1577 140.383 36.7905C140.993 37.4189 141.299 38.2891 141.299 39.4009C141.299 40.3018 141.163 41.0115 140.89 41.53C140.622 42.0442 140.229 42.4441 139.71 42.7297C139.196 43.0154 138.634 43.1582 138.023 43.1582C137.043 43.1582 136.25 42.844 135.643 42.2156C135.041 41.5872 134.74 40.6819 134.74 39.4998ZM135.959 39.4998C135.959 40.3962 136.155 41.0686 136.546 41.5168C136.937 41.9607 137.429 42.1826 138.023 42.1826C138.612 42.1826 139.102 41.9585 139.493 41.5103C139.884 41.062 140.079 40.3787 140.079 39.4602C140.079 38.5945 139.882 37.9397 139.486 37.4958C139.095 37.0476 138.607 36.8235 138.023 36.8235C137.429 36.8235 136.937 37.0454 136.546 37.4893C136.155 37.9331 135.959 38.6033 135.959 39.4998ZM145.287 41.9387L145.458 42.9868C145.124 43.0571 144.825 43.0923 144.562 43.0923C144.131 43.0923 143.797 43.0242 143.56 42.8879C143.323 42.7517 143.156 42.5737 143.059 42.354C142.962 42.1299 142.914 41.6619 142.914 40.95V36.9224H142.044V35.9995H142.914V34.2659L144.094 33.554V35.9995H145.287V36.9224H144.094V41.0159C144.094 41.3542 144.114 41.5718 144.153 41.6685C144.197 41.7651 144.265 41.842 144.357 41.8992C144.454 41.9563 144.59 41.9849 144.766 41.9849C144.898 41.9849 145.072 41.9695 145.287 41.9387ZM150.363 43V33.3364H154.008C154.649 33.3364 155.139 33.3672 155.478 33.4287C155.952 33.5078 156.35 33.6594 156.671 33.8835C156.992 34.1033 157.249 34.4131 157.442 34.813C157.64 35.2129 157.739 35.6523 157.739 36.1313C157.739 36.9531 157.477 37.6497 156.954 38.2209C156.431 38.7878 155.487 39.0713 154.12 39.0713H151.641V43H150.363ZM151.641 37.9309H154.14C154.966 37.9309 155.552 37.7771 155.9 37.4695C156.247 37.1619 156.42 36.729 156.42 36.1709C156.42 35.7666 156.317 35.4216 156.111 35.136C155.908 34.8459 155.64 34.6548 155.306 34.5625C155.091 34.5054 154.693 34.4768 154.113 34.4768H151.641V37.9309ZM159.189 43V33.3364H160.375V43H159.189ZM166.789 42.1365C166.35 42.51 165.926 42.7737 165.517 42.9275C165.113 43.0813 164.678 43.1582 164.212 43.1582C163.443 43.1582 162.852 42.9714 162.439 42.5979C162.026 42.22 161.819 41.7388 161.819 41.1543C161.819 40.8115 161.896 40.4995 162.05 40.2183C162.208 39.9326 162.412 39.7041 162.663 39.5327C162.918 39.3613 163.203 39.2317 163.52 39.1438C163.753 39.0823 164.104 39.0229 164.574 38.9658C165.532 38.8516 166.238 38.7153 166.69 38.5571C166.695 38.3945 166.697 38.2913 166.697 38.2473C166.697 37.7639 166.585 37.4233 166.361 37.2256C166.058 36.9575 165.607 36.8235 165.01 36.8235C164.451 36.8235 164.038 36.9224 163.77 37.1201C163.507 37.3135 163.311 37.6584 163.184 38.155L162.023 37.9968C162.129 37.5002 162.302 37.1003 162.544 36.7971C162.786 36.4895 163.135 36.2544 163.592 36.0918C164.049 35.9248 164.579 35.8413 165.181 35.8413C165.779 35.8413 166.264 35.9116 166.638 36.0522C167.011 36.1929 167.286 36.3708 167.462 36.5862C167.637 36.7971 167.76 37.0652 167.831 37.3904C167.87 37.5925 167.89 37.9573 167.89 38.4846V40.0667C167.89 41.1697 167.914 41.8684 167.963 42.1628C168.015 42.4529 168.116 42.7319 168.266 43H167.027C166.904 42.7539 166.824 42.4661 166.789 42.1365ZM166.69 39.4866C166.26 39.6624 165.614 39.8118 164.752 39.9348C164.265 40.0051 163.92 40.0842 163.718 40.1721C163.515 40.26 163.359 40.3896 163.25 40.561C163.14 40.728 163.085 40.9148 163.085 41.1213C163.085 41.4377 163.203 41.7014 163.441 41.9124C163.682 42.1233 164.034 42.2288 164.495 42.2288C164.952 42.2288 165.359 42.1299 165.715 41.9321C166.071 41.73 166.332 41.4553 166.499 41.1082C166.627 40.8401 166.69 40.4446 166.69 39.9216V39.4866ZM172.326 41.9387L172.498 42.9868C172.164 43.0571 171.865 43.0923 171.601 43.0923C171.171 43.0923 170.837 43.0242 170.599 42.8879C170.362 42.7517 170.195 42.5737 170.098 42.354C170.002 42.1299 169.953 41.6619 169.953 40.95V36.9224H169.083V35.9995H169.953V34.2659L171.133 33.554V35.9995H172.326V36.9224H171.133V41.0159C171.133 41.3542 171.153 41.5718 171.193 41.6685C171.237 41.7651 171.305 41.842 171.397 41.8992C171.494 41.9563 171.63 41.9849 171.806 41.9849C171.938 41.9849 172.111 41.9695 172.326 41.9387ZM173.777 43V36.9224H172.729V35.9995H173.777V35.2546C173.777 34.7844 173.818 34.4351 173.902 34.2065C174.016 33.8989 174.216 33.6506 174.502 33.4617C174.792 33.2683 175.196 33.1716 175.715 33.1716C176.049 33.1716 176.418 33.2112 176.822 33.2903L176.644 34.3252C176.398 34.2812 176.165 34.2593 175.945 34.2593C175.585 34.2593 175.33 34.3362 175.181 34.49C175.031 34.6438 174.957 34.9316 174.957 35.3535V35.9995H176.321V36.9224H174.957V43H173.777ZM176.809 39.4998C176.809 38.2034 177.169 37.2432 177.89 36.6191C178.492 36.1006 179.226 35.8413 180.092 35.8413C181.054 35.8413 181.841 36.1577 182.451 36.7905C183.062 37.4189 183.368 38.2891 183.368 39.4009C183.368 40.3018 183.231 41.0115 182.959 41.53C182.691 42.0442 182.298 42.4441 181.779 42.7297C181.265 43.0154 180.702 43.1582 180.092 43.1582C179.112 43.1582 178.318 42.844 177.712 42.2156C177.11 41.5872 176.809 40.6819 176.809 39.4998ZM178.028 39.4998C178.028 40.3962 178.224 41.0686 178.615 41.5168C179.006 41.9607 179.498 42.1826 180.092 42.1826C180.68 42.1826 181.17 41.9585 181.562 41.5103C181.953 41.062 182.148 40.3787 182.148 39.4602C182.148 38.5945 181.95 37.9397 181.555 37.4958C181.164 37.0476 180.676 36.8235 180.092 36.8235C179.498 36.8235 179.006 37.0454 178.615 37.4893C178.224 37.9331 178.028 38.6033 178.028 39.4998ZM184.752 43V35.9995H185.82V37.0608C186.092 36.5642 186.343 36.2368 186.571 36.0786C186.804 35.9204 187.059 35.8413 187.336 35.8413C187.736 35.8413 188.142 35.9688 188.555 36.2236L188.147 37.3245C187.857 37.1531 187.567 37.0674 187.277 37.0674C187.017 37.0674 186.784 37.1465 186.578 37.3047C186.371 37.4585 186.224 37.6738 186.136 37.9507C186.004 38.3726 185.938 38.834 185.938 39.335V43H184.752ZM189.261 43V35.9995H190.322V36.9817C190.542 36.6389 190.834 36.3643 191.199 36.1577C191.563 35.9468 191.979 35.8413 192.445 35.8413C192.963 35.8413 193.387 35.949 193.717 36.1643C194.051 36.3796 194.286 36.6807 194.422 37.0674C194.976 36.25 195.697 35.8413 196.584 35.8413C197.279 35.8413 197.812 36.0347 198.186 36.4214C198.56 36.8037 198.746 37.3948 198.746 38.1946V43H197.566V38.5901C197.566 38.1155 197.527 37.7749 197.448 37.5684C197.373 37.3574 197.235 37.1882 197.032 37.0608C196.83 36.9333 196.593 36.8696 196.321 36.8696C195.828 36.8696 195.42 37.0344 195.094 37.364C194.769 37.6892 194.607 38.2122 194.607 38.9329V43H193.42V38.4517C193.42 37.9243 193.323 37.5288 193.13 37.2651C192.937 37.0015 192.62 36.8696 192.181 36.8696C191.847 36.8696 191.537 36.9575 191.251 37.1333C190.97 37.3091 190.766 37.5662 190.638 37.9045C190.511 38.2429 190.447 38.7307 190.447 39.3679V43H189.261Z" fill="#E8441E"/>
<defs>
<clipPath id="clip0_5305_105755">
<rect width="39" height="48" fill="white"/>
</clipPath>
</defs>
</svg>
