<svg width="16" height="16" viewBox="0 0 16 16" fill="none" xmlns="http://www.w3.org/2000/svg">
<path fill-rule="evenodd" clip-rule="evenodd" d="M7.75097 1.00101C5.81947 1.00101 4.25098 2.56951 4.25098 4.50101C4.25098 6.43301 5.81947 8.00101 7.75097 8.00101C9.68247 8.00101 11.251 6.43301 11.251 4.50101C11.251 2.56951 9.68247 1.00101 7.75097 1.00101ZM7.75097 2.00101C9.13097 2.00101 10.251 3.12151 10.251 4.50101C10.251 5.88101 9.13097 7.00101 7.75097 7.00101C6.37097 7.00101 5.25097 5.88101 5.25097 4.50101C5.25097 3.12151 6.37097 2.00101 7.75097 2.00101Z" fill="#4F596A"/>
<path fill-rule="evenodd" clip-rule="evenodd" d="M1.75097 14.001H8.00046C8.27646 14.001 8.50046 14.225 8.50046 14.501C8.50046 14.777 8.27646 15.001 8.00046 15.001H1.25098C0.974976 15.001 0.750977 14.777 0.750977 14.501C0.750977 14.501 0.750977 14.089 0.750977 13.501C0.750977 11.016 2.76547 9.00101 5.25097 9.00101H8.00046C8.27646 9.00101 8.50046 9.22501 8.50046 9.50101C8.50046 9.77701 8.27646 10.001 8.00046 10.001H5.25097C3.31797 10.001 1.75097 11.568 1.75097 13.501V14.001Z" fill="#4F596A"/>
<path fill-rule="evenodd" clip-rule="evenodd" d="M12.0015 9.00101C10.208 9.00101 8.75195 10.457 8.75195 12.2505C8.75195 14.044 10.208 15.5 12.0015 15.5C13.795 15.5 15.251 14.044 15.251 12.2505C15.251 10.457 13.795 9.00101 12.0015 9.00101ZM12.0015 10.001C13.243 10.001 14.251 11.009 14.251 12.2505C14.251 13.492 13.243 14.5 12.0015 14.5C10.76 14.5 9.75195 13.492 9.75195 12.2505C9.75195 11.009 10.76 10.001 12.0015 10.001Z" fill="#4F596A"/>
<path fill-rule="evenodd" clip-rule="evenodd" d="M13.5884 9.95051L9.70094 13.838C9.50594 14.033 9.50594 14.35 9.70094 14.545C9.89594 14.7405 10.2129 14.7405 10.4079 14.545L14.2954 10.6575C14.4909 10.4625 14.4909 10.1455 14.2954 9.95051C14.1004 9.75551 13.7834 9.75551 13.5884 9.95051Z" fill="#4F596A"/>
</svg>
