<svg width="16" height="16" viewBox="0 0 16 16" fill="none" xmlns="http://www.w3.org/2000/svg">
<path fill-rule="evenodd" clip-rule="evenodd" d="M7.74999 1.00101C5.8185 1.00101 4.25 2.56951 4.25 4.50101C4.25 6.43301 5.8185 8.00101 7.74999 8.00101C9.68149 8.00101 11.25 6.43301 11.25 4.50101C11.25 2.56951 9.68149 1.00101 7.74999 1.00101ZM7.74999 2.00101C9.12999 2.00101 10.25 3.12151 10.25 4.50101C10.25 5.88101 9.12999 7.00101 7.74999 7.00101C6.37 7.00101 5.25 5.88101 5.25 4.50101C5.25 3.12151 6.37 2.00101 7.74999 2.00101Z" fill="white"/>
<path fill-rule="evenodd" clip-rule="evenodd" d="M1.75 14.001H7.99949C8.27549 14.001 8.49949 14.225 8.49949 14.501C8.49949 14.777 8.27549 15.001 7.99949 15.001H1.25C0.974 15.001 0.75 14.777 0.75 14.501C0.75 14.501 0.75 14.089 0.75 13.501C0.75 11.016 2.7645 9.00101 5.24999 9.00101H7.99949C8.27549 9.00101 8.49949 9.22501 8.49949 9.50101C8.49949 9.77701 8.27549 10.001 7.99949 10.001H5.24999C3.317 10.001 1.75 11.568 1.75 13.501V14.001Z" fill="white"/>
<path fill-rule="evenodd" clip-rule="evenodd" d="M12.0015 9.00101C10.208 9.00101 8.75195 10.457 8.75195 12.2505C8.75195 14.044 10.208 15.5 12.0015 15.5C13.795 15.5 15.251 14.044 15.251 12.2505C15.251 10.457 13.795 9.00101 12.0015 9.00101ZM12.0015 10.001C13.243 10.001 14.251 11.009 14.251 12.2505C14.251 13.492 13.243 14.5 12.0015 14.5C10.76 14.5 9.75195 13.492 9.75195 12.2505C9.75195 11.009 10.76 10.001 12.0015 10.001Z" fill="white"/>
<path fill-rule="evenodd" clip-rule="evenodd" d="M13.5884 9.95051L9.70094 13.838C9.50594 14.033 9.50594 14.35 9.70094 14.545C9.89594 14.7405 10.2129 14.7405 10.4079 14.545L14.2954 10.6575C14.4909 10.4625 14.4909 10.1455 14.2954 9.95051C14.1004 9.75551 13.7834 9.75551 13.5884 9.95051Z" fill="white"/>
</svg>
