<svg width="20" height="20" viewBox="0 0 20 20" fill="none" xmlns="http://www.w3.org/2000/svg">
<path d="M10.0001 16.5C10.0017 17.0243 9.83799 17.5357 9.53224 17.9616C9.2265 18.3875 8.79427 18.7061 8.29702 18.8722C7.79977 19.0383 7.2628 19.0435 6.76247 18.8869C6.26213 18.7303 5.8239 18.42 5.51007 18H5.50007C5.11491 18.0046 4.73402 17.9189 4.38789 17.7499C4.04175 17.5809 3.73998 17.3332 3.50673 17.0267C3.27347 16.7202 3.1152 16.3633 3.04459 15.9846C2.97398 15.6059 2.99298 15.216 3.10007 14.846C2.56951 14.6817 2.0954 14.3725 1.73119 13.9531C1.36699 13.5338 1.12718 13.0211 1.03881 12.4727C0.950432 11.9244 1.01701 11.3623 1.23103 10.8497C1.44504 10.3372 1.79799 9.89466 2.25007 9.572C1.98162 9.02184 1.92721 8.39155 2.09741 7.80352C2.26761 7.2155 2.65027 6.71171 3.17107 6.39C3.03708 6.04852 2.98061 5.68153 3.00574 5.31556C3.03087 4.9496 3.13697 4.59378 3.31638 4.27381C3.49578 3.95384 3.74402 3.67772 4.04315 3.46539C4.34228 3.25305 4.68483 3.10981 5.04607 3.046C5.15204 2.47218 5.4554 1.9535 5.90358 1.57983C6.35177 1.20616 6.91655 1.00103 7.50007 1C7.82838 1 8.15347 1.06466 8.45678 1.1903C8.7601 1.31594 9.03569 1.50009 9.26784 1.73223C9.49999 1.96438 9.68414 2.23998 9.80977 2.54329C9.93541 2.84661 10.0001 3.1717 10.0001 3.5M10.0001 16.5V3.5M10.0001 16.5C9.99846 17.0243 10.1622 17.5357 10.4679 17.9616C10.7736 18.3875 11.2059 18.7061 11.7031 18.8722C12.2004 19.0383 12.7373 19.0435 13.2377 18.8869C13.738 18.7303 14.1762 18.42 14.4901 18H14.5001C14.8855 18.005 15.2667 17.9198 15.6133 17.7509C15.9598 17.5821 16.2619 17.3345 16.4955 17.0279C16.7291 16.7213 16.8877 16.3643 16.9584 15.9854C17.0292 15.6065 17.0102 15.2163 16.9031 14.846C17.4334 14.6814 17.9072 14.3718 18.2711 13.9523C18.635 13.5328 18.8745 13.02 18.9625 12.4717C19.0506 11.9234 18.9837 11.3614 18.7695 10.8491C18.5553 10.3368 18.2022 9.89444 17.7501 9.572C18.0185 9.02184 18.0729 8.39155 17.9027 7.80352C17.7325 7.2155 17.3499 6.71171 16.8291 6.39C16.9631 6.04852 17.0195 5.68153 16.9944 5.31556C16.9693 4.9496 16.8632 4.59378 16.6838 4.27381C16.5044 3.95384 16.2561 3.67772 15.957 3.46539C15.6579 3.25305 15.3153 3.10981 14.9541 3.046C14.8481 2.47218 14.5447 1.9535 14.0966 1.57983C13.6484 1.20616 13.0836 1.00103 12.5001 1C11.837 1 11.2011 1.26339 10.7323 1.73223C10.2635 2.20107 10.0001 2.83696 10.0001 3.5M2.00007 8.5C1.99999 8.0866 2.10242 7.67963 2.2982 7.31553C2.49398 6.95143 2.777 6.64156 3.12191 6.41366C3.46682 6.18577 3.86286 6.04696 4.27458 6.00968C4.68629 5.97239 5.10083 6.03778 5.48107 6.2M5.20007 14.751C4.5211 15.0483 3.75611 15.0837 3.05258 14.8504C2.34905 14.6171 1.75679 14.1316 1.38997 13.4875C1.02316 12.8435 0.907755 12.0864 1.06602 11.3623C1.22428 10.6382 1.645 9.99831 2.24707 9.566M18.0001 8.5C18.0002 8.0866 17.8977 7.67963 17.7019 7.31553C17.5062 6.95143 17.2232 6.64156 16.8782 6.41366C16.5333 6.18577 16.1373 6.04696 15.7256 6.00968C15.3139 5.97239 14.8993 6.03778 14.5191 6.2M14.8001 14.751C15.479 15.0483 16.244 15.0837 16.9476 14.8504C17.6511 14.6171 18.2434 14.1316 18.6102 13.4875C18.977 12.8435 19.0924 12.0864 18.9341 11.3623C18.7759 10.6382 18.3551 9.99831 17.7531 9.566" stroke="#2F2F38" stroke-width="2" stroke-linecap="round" stroke-linejoin="round"/>
</svg>
