<svg width="16" height="20" viewBox="0 0 16 20" fill="none" xmlns="http://www.w3.org/2000/svg">
<path d="M14.2649 2.60703C12.0571 0.399219 8.46174 0.399219 6.25627 2.60703L0.139084 8.71953C0.0992406 8.75937 0.0781467 8.81328 0.0781467 8.86953C0.0781467 8.92578 0.0992406 8.97969 0.139084 9.01953L1.00393 9.88437C1.04346 9.92373 1.09697 9.94583 1.15276 9.94583C1.20854 9.94583 1.26205 9.92373 1.30158 9.88437L7.41877 3.77187C8.17815 3.0125 9.1883 2.59531 10.2617 2.59531C11.3352 2.59531 12.3453 3.0125 13.1024 3.77187C13.8617 4.53125 14.2789 5.54141 14.2789 6.6125C14.2789 7.68594 13.8617 8.69375 13.1024 9.45312L6.86799 15.6852L5.85783 16.6953C4.9133 17.6398 3.37815 17.6398 2.43362 16.6953C1.97658 16.2383 1.7258 15.6313 1.7258 14.9844C1.7258 14.3375 1.97658 13.7305 2.43362 13.2734L8.61877 7.09062C8.7758 6.93594 8.98205 6.84922 9.20236 6.84922H9.20471C9.42502 6.84922 9.62893 6.93594 9.78362 7.09062C9.94065 7.24766 10.025 7.45391 10.025 7.67422C10.025 7.89219 9.9383 8.09844 9.78362 8.25312L4.72815 13.3039C4.6883 13.3438 4.66721 13.3977 4.66721 13.4539C4.66721 13.5102 4.6883 13.5641 4.72815 13.6039L5.59299 14.4688C5.63252 14.5081 5.68603 14.5302 5.74182 14.5302C5.7976 14.5302 5.85112 14.5081 5.89065 14.4688L10.9438 9.41562C11.4102 8.94922 11.6656 8.33047 11.6656 7.67188C11.6656 7.01328 11.4078 6.39219 10.9438 5.92812C9.98049 4.96484 8.41487 4.96719 7.45158 5.92812L6.85158 6.53047L1.26877 12.1109C0.889859 12.4876 0.589503 12.9358 0.38512 13.4295C0.180737 13.9231 0.0763961 14.4524 0.0781467 14.9867C0.0781467 16.0719 0.502365 17.0914 1.26877 17.8578C2.0633 18.65 3.10393 19.0461 4.14455 19.0461C5.18518 19.0461 6.2258 18.65 7.01799 17.8578L14.2649 10.6156C15.3313 9.54687 15.9219 8.12422 15.9219 6.6125C15.9242 5.09844 15.3336 3.67578 14.2649 2.60703Z" fill="#848B97"/>
</svg>
