<svg width="16" height="16" viewBox="0 0 16 16" fill="none" xmlns="http://www.w3.org/2000/svg">
<path d="M14.7837 9.49703C14.449 9.49703 14.1778 9.76825 14.1778 10.1029V14.7884H1.21178V1.8226H5.89732C6.23198 1.8226 6.50321 1.55138 6.50321 1.21672C6.50321 0.882062 6.23198 0.61084 5.89732 0.61084H0.605889C0.271227 0.61084 0 0.882062 0 1.21672V15.3943C0 15.7289 0.271258 16.0001 0.605889 16.0001H14.7837C15.1183 16.0001 15.3895 15.7289 15.3895 15.3943V10.1029C15.3896 9.76828 15.1183 9.49703 14.7837 9.49703Z" fill="#4F596A"/>
<path d="M15.8388 2.12366L13.8765 0.161219C13.7734 0.0579441 13.6335 0 13.4875 0C13.3415 0 13.2018 0.0579441 13.0985 0.161219L6.60589 6.65375C6.53913 6.72034 6.4909 6.80286 6.46522 6.89347L5.6949 9.62622C5.64098 9.81787 5.69473 10.0237 5.83557 10.1645C5.94011 10.2691 6.08061 10.3257 6.22457 10.3257C6.27427 10.3257 6.32452 10.319 6.37368 10.3052L9.10646 9.53488C9.19724 9.5092 9.27979 9.46078 9.34635 9.39422L15.8388 2.90168C16.0537 2.68689 16.0537 2.3384 15.8388 2.12366ZM8.66994 8.51458L7.02057 8.97932L7.4855 7.33033L13.4875 1.32841L14.6718 2.51266L8.66994 8.51458Z" fill="#4F596A"/>
<path d="M6.93506 9.20522L6.99133 9.14893L6.84942 9.00698L6.79315 9.06327L6.93506 9.20522Z" fill="#4F596A"/>
</svg>
