<svg width="24" height="16" viewBox="0 0 24 16" fill="none" xmlns="http://www.w3.org/2000/svg">
<path d="M24 -0.00012207H0V16H24V-0.00012207Z" fill="#F0F0F0"/>
<path d="M24 1.99963H0V3.99946H24V1.99963Z" fill="#D80027"/>
<path d="M24 5.99976H0V7.99958H24V5.99976Z" fill="#D80027"/>
<path d="M24 9.99951H0V11.9993H24V9.99951Z" fill="#D80027"/>
<path d="M24 13.9996H0V15.9995H24V13.9996Z" fill="#D80027"/>
<path d="M12 -0.00012207H0V8.61536H12V-0.00012207Z" fill="#2E52B2"/>
<path d="M4.67917 3.52917L4.4859 4.12374H3.86078L4.36661 4.491L4.17334 5.08552L4.67917 4.71825L5.18467 5.08552L4.99145 4.491L5.49728 4.12374H4.87211L4.67917 3.52917Z" fill="#F0F0F0"/>
<path d="M4.87211 6.26932L4.67917 5.6748L4.4859 6.26932H3.86078L4.36661 6.63663L4.17334 7.23115L4.67917 6.86384L5.18467 7.23115L4.99145 6.63663L5.49728 6.26932H4.87211Z" fill="#F0F0F0"/>
<path d="M2.2302 6.26932L2.03722 5.6748L1.84395 6.26932H1.21883L1.72465 6.63663L1.53139 7.23115L2.03722 6.86384L2.54276 7.23115L2.34955 6.63663L2.85528 6.26932H2.2302Z" fill="#F0F0F0"/>
<path d="M2.03722 3.52917L1.84395 4.12374H1.21883L1.72465 4.491L1.53139 5.08552L2.03722 4.71825L2.54276 5.08552L2.34955 4.491L2.85528 4.12374H2.2302L2.03722 3.52917Z" fill="#F0F0F0"/>
<path d="M4.67917 1.38354L4.4859 1.97815H3.86078L4.36661 2.34547L4.17334 2.93998L4.67917 2.57267L5.18467 2.93998L4.99145 2.34547L5.49728 1.97815H4.87211L4.67917 1.38354Z" fill="#F0F0F0"/>
<path d="M2.03722 1.38354L1.84395 1.97815H1.21883L1.72465 2.34547L1.53139 2.93998L2.03722 2.57267L2.54276 2.93998L2.34955 2.34547L2.85528 1.97815H2.2302L2.03722 1.38354Z" fill="#F0F0F0"/>
<path d="M7.32112 3.52917L7.1279 4.12374H6.50278L7.00856 4.491L6.81539 5.08552L7.32112 4.71825L7.82671 5.08552L7.63345 4.491L8.13928 4.12374H7.51415L7.32112 3.52917Z" fill="#F0F0F0"/>
<path d="M7.51415 6.26932L7.32112 5.6748L7.1279 6.26932H6.50278L7.00856 6.63663L6.81539 7.23115L7.32112 6.86384L7.82671 7.23115L7.63345 6.63663L8.13928 6.26932H7.51415Z" fill="#F0F0F0"/>
<path d="M10.1561 6.26932L9.96312 5.6748L9.76985 6.26932H9.14478L9.65051 6.63663L9.45729 7.23115L9.96312 6.86384L10.4687 7.23115L10.2754 6.63663L10.7812 6.26932H10.1561Z" fill="#F0F0F0"/>
<path d="M9.96312 3.52917L9.76985 4.12374H9.14478L9.65051 4.491L9.45729 5.08552L9.96312 4.71825L10.4687 5.08552L10.2754 4.491L10.7812 4.12374H10.1561L9.96312 3.52917Z" fill="#F0F0F0"/>
<path d="M7.32112 1.38354L7.1279 1.97815H6.50278L7.00856 2.34547L6.81539 2.93998L7.32112 2.57267L7.82671 2.93998L7.63345 2.34547L8.13928 1.97815H7.51415L7.32112 1.38354Z" fill="#F0F0F0"/>
<path d="M9.96312 1.38354L9.76985 1.97815H9.14478L9.65051 2.34547L9.45729 2.93998L9.96312 2.57267L10.4687 2.93998L10.2754 2.34547L10.7812 1.97815H10.1561L9.96312 1.38354Z" fill="#F0F0F0"/>
</svg>
