<svg width="16" height="16" viewBox="0 0 16 16" fill="none" xmlns="http://www.w3.org/2000/svg">
<path d="M8 1.33331L1.33333 6.30588V13.104C1.33333 13.9657 2.03422 14.6666 2.89583 14.6666H13.1042C13.9658 14.6666 14.6667 13.9657 14.6667 13.104V6.30588L8 1.33331ZM13.2295 6.53346L8 10.4235L2.7705 6.53346L8 2.63284L13.2295 6.53346ZM13.1042 13.6249H2.89583C2.60866 13.6249 2.37499 13.3912 2.37499 13.104V7.53766L8 11.7218L13.625 7.53766V13.104C13.625 13.3912 13.3913 13.6249 13.1042 13.6249V13.6249ZM7.45312 8.67665V7.63491H8.49479V8.67665H7.45312ZM8.49479 6.85361H7.45312V4.37948H8.49479V6.85361Z" fill="#4F596A"/>
</svg>
