<svg width="12" height="12" viewBox="0 0 12 12" fill="none" xmlns="http://www.w3.org/2000/svg">
<g clip-path="url(#clip0_5427_112338)">
<path d="M6.56912 0.552758C3.67499 0.544321 1.30459 2.79301 1.11779 5.63792H0.360011C0.0834717 5.63792 -0.0893798 5.93729 0.0489014 6.1768L0.892885 7.63862L1.73687 9.10042C1.87515 9.33992 2.22083 9.33992 2.35911 9.10042L3.20309 7.63862L4.04708 6.1768C4.18536 5.93729 4.01251 5.63792 3.73597 5.63792H2.83759C3.02225 3.7288 4.65083 2.23566 6.61475 2.26761C8.60225 2.29993 10.2276 3.90448 10.2843 5.89145C10.3445 7.9992 8.64736 9.73306 6.55292 9.73306C6.0158 9.73306 5.50487 9.61897 5.04296 9.4138C4.64225 9.23581 4.17188 9.38933 3.95265 9.76906C3.6987 10.2089 3.87922 10.7743 4.34335 10.9805C5.01866 11.2806 5.76629 11.4474 6.55292 11.4474C9.55756 11.4474 11.994 9.0148 12.0002 6.01161C12.0064 2.99499 9.58573 0.561571 6.56912 0.552758Z" fill="#4F596A"/>
<path d="M8.5 5L6.09375 7L5 6.09091" stroke="#4F596A" stroke-width="2" stroke-linecap="round" stroke-linejoin="round"/>
</g>
<defs>
<clipPath id="clip0_5427_112338">
<rect width="12" height="12" fill="white"/>
</clipPath>
</defs>
</svg>
