<svg xmlns="http://www.w3.org/2000/svg" version="1.1" xmlns:xlink="http://www.w3.org/1999/xlink"
    width="512" height="512" x="0" y="0" viewBox="0 0 48 48"
    style="enable-background:new 0 0 512 512" xml:space="preserve" fill-rule="evenodd" class=""><g><linearGradient id="a" x1="0" x2="1" y1="0" y2="0" gradientTransform="matrix(28 -30 30 28 348 104)" gradientUnits="userSpaceOnUse"><stop offset="0" stop-color="#0056e0"></stop><stop offset=".01" stop-color="#0056e0"></stop><stop offset="1" stop-color="#00e5b8"></stop></linearGradient><path fill="url(#a)" d="M343.5 103.963a1.5 1.5 0 0 0 1.5 1.5h7.076c.71 3.997 4.205 7.037 8.405 7.037 4.201 0 7.696-3.04 8.406-7.037h7.076a1.5 1.5 0 0 0 1.5-1.5v-7.076c3.997-.71 7.037-4.205 7.037-8.406 0-4.2-3.04-7.695-7.037-8.405V73a1.5 1.5 0 0 0-1.5-1.5h-7.037a1.5 1.5 0 0 0-1.5 1.5c0 3.056-2.481 5.537-5.537 5.537s-5.537-2.481-5.537-5.537a1.5 1.5 0 0 0-1.5-1.5H345a1.5 1.5 0 0 0-1.5 1.5v8.444a1.5 1.5 0 0 0 1.5 1.5 5.54 5.54 0 0 1 5.537 5.537A5.54 5.54 0 0 1 345 94.019a1.5 1.5 0 0 0-1.5 1.5z" transform="translate(-340 -68)" opacity="1" data-original="url(#a)" class=""></path></g></svg>