<svg width="24" height="23" viewBox="0 0 24 23" fill="none" xmlns="http://www.w3.org/2000/svg">
<g clip-path="url(#clip0_5972_14106)">
<path d="M23.2698 18.1464L21.9134 14.1989C22.5672 12.8623 22.9128 11.3759 22.9151 9.88026C22.9191 7.27972 21.913 4.82085 20.082 2.95664C18.2506 1.09207 15.8102 0.0424646 13.2103 0.00127598C10.5143 -0.0413267 7.98021 0.984148 6.07508 2.88923C4.23806 4.7262 3.21915 7.14794 3.18691 9.73585C1.37634 11.099 0.307667 13.2244 0.311179 15.4945C0.312866 16.5568 0.551971 17.6128 1.00505 18.5677L0.0707518 21.2867C-0.0898521 21.754 0.0274649 22.2615 0.376953 22.611C0.622899 22.857 0.947163 22.988 1.28064 22.988C1.42095 22.988 1.56289 22.9648 1.70133 22.9172L4.42028 21.9829C5.3752 22.436 6.43119 22.6751 7.49352 22.6768C7.49735 22.6768 7.501 22.6768 7.50483 22.6768C9.80875 22.6767 11.9503 21.5805 13.3085 19.7255C14.7219 19.6883 16.1204 19.3462 17.3846 18.7277L21.3322 20.0842C21.4967 20.1407 21.6653 20.1682 21.8321 20.1682C22.2283 20.1682 22.6137 20.0126 22.906 19.7202C23.3213 19.3049 23.4607 18.7018 23.2698 18.1464ZM7.50474 21.2867C7.50177 21.2867 7.49862 21.2867 7.49566 21.2867C6.55539 21.2853 5.62164 21.0535 4.79554 20.6164C4.62568 20.5266 4.42626 20.511 4.24463 20.5734L1.45662 21.5315L2.41463 18.7435C2.47703 18.5618 2.46152 18.3624 2.37166 18.1926C1.9346 17.3664 1.70279 16.4327 1.70133 15.4924C1.699 13.9799 2.28737 12.5464 3.31626 11.4729C3.65234 13.5217 4.62878 15.4096 6.14232 16.8962C7.64468 18.3718 9.53315 19.3114 11.5708 19.6185C10.4949 20.679 9.04455 21.2867 7.50474 21.2867ZM21.923 18.7372C21.8834 18.7768 21.8365 18.7876 21.7838 18.7694L17.5578 17.3173C17.4844 17.292 17.4081 17.2795 17.332 17.2795C17.2198 17.2795 17.1081 17.3067 17.007 17.3602C15.8004 17.9985 14.4369 18.3371 13.0638 18.3392C13.0593 18.3392 13.0552 18.3392 13.0507 18.3392C8.45002 18.3392 4.64986 14.6019 4.57697 10.0023C4.54025 7.68586 5.4214 5.50879 7.05805 3.87214C8.69469 2.2355 10.8721 1.35466 13.1883 1.39115C17.7923 1.46418 21.5321 5.27137 21.525 9.87807C21.5228 11.2511 21.1843 12.6146 20.5461 13.8211C20.4562 13.991 20.4407 14.1904 20.5031 14.3721L21.9552 18.598C21.9733 18.6509 21.9625 18.6978 21.923 18.7372Z" fill="#515968"/>
<path d="M17.1911 6.18066H8.90959C8.52571 6.18066 8.21454 6.49188 8.21454 6.87572C8.21454 7.2596 8.52576 7.57077 8.90959 7.57077H17.1911C17.575 7.57077 17.8862 7.25955 17.8862 6.87572C17.8862 6.49188 17.575 6.18066 17.1911 6.18066Z" fill="#515968"/>
<path d="M17.1911 9.03906H8.90959C8.52571 9.03906 8.21454 9.35028 8.21454 9.73412C8.21454 10.118 8.52576 10.4292 8.90959 10.4292H17.1911C17.575 10.4292 17.8862 10.118 17.8862 9.73412C17.8862 9.35028 17.575 9.03906 17.1911 9.03906Z" fill="#515968"/>
<path d="M14.0033 11.8979H8.90953C8.52565 11.8979 8.21448 12.2093 8.21448 12.5931C8.21448 12.9769 8.5257 13.2881 8.90953 13.2881H14.0032C14.3871 13.2881 14.6983 12.9769 14.6983 12.5931C14.6983 12.2093 14.3872 11.8979 14.0033 11.8979Z" fill="#515968"/>
</g>
<defs>
<clipPath id="clip0_5972_14106">
<rect width="24" height="23" fill="white"/>
</clipPath>
</defs>
</svg>
