<svg width="24" height="18" viewBox="0 0 24 18" fill="none" xmlns="http://www.w3.org/2000/svg">
<path d="M23.9153 7.39905L20.7063 0.954068C20.5694 0.679287 20.2889 0.505615 19.982 0.505615H4.01798C3.71109 0.505615 3.43064 0.679287 3.29367 0.954068L0.0846562 7.39905C0.028875 7.51094 0 7.63446 0 7.75957V16.6854C0 17.1322 0.362156 17.4944 0.808969 17.4944H23.191C23.6378 17.4944 24 17.1322 24 16.6854V7.75957C24 7.63446 23.9711 7.51094 23.9153 7.39905ZM4.51875 2.1236H19.481L21.898 6.97755H16.6652C16.2828 6.97755 15.9519 7.24858 15.8729 7.6226C15.844 7.75933 15.1289 10.9686 11.8652 10.9686C8.60147 10.9686 7.8863 7.75933 7.85798 7.62583C7.78167 7.24858 7.44998 6.97755 7.06519 6.97755H2.10202L4.51875 2.1236ZM22.382 15.8764H1.61798V8.59554H6.45117C7.01962 10.2521 8.63761 12.5866 11.8652 12.5866C15.093 12.5866 16.711 10.2521 17.2792 8.59554H22.382V15.8764Z" fill="#515968"/>
</svg>
