<svg width="24" height="21" viewBox="0 0 24 21" fill="none" xmlns="http://www.w3.org/2000/svg">
<path d="M10.6042 1.21212L10.6043 1.21206C10.7401 1.07625 10.9244 1 11.1156 1H18.3314C18.7313 1 19.0548 1.3235 19.0548 1.72338V8.93833C19.0548 9.13015 18.9787 9.31478 18.8423 9.45178C18.8422 9.45196 18.842 9.45214 18.8418 9.45232L9.45036 18.842L9.4503 18.8421C9.16784 19.1245 8.7101 19.1245 8.42765 18.8421L1.21229 11.6267C1.21217 11.6266 1.21205 11.6265 1.21193 11.6264C1.2119 11.6263 1.21187 11.6263 1.21184 11.6263C0.929008 11.3426 0.929785 10.8849 1.21178 10.6028C1.2118 10.6028 1.21182 10.6028 1.21184 10.6028L10.6042 1.21212ZM13.023 4.7393C13.023 6.00507 14.0497 7.03184 15.3155 7.03184C16.5813 7.03184 17.608 6.00507 17.608 4.7393C17.608 3.47354 16.5813 2.44677 15.3155 2.44677C14.0497 2.44677 13.023 3.47354 13.023 4.7393Z" stroke="#515968" stroke-width="2"/>
<mask id="path-2-inside-1_1274_51380" fill="white">
<path d="M21.7782 1.72314L21.7773 9.74463C21.7773 10.1419 21.6196 10.5236 21.3379 10.8045L11.7938 20.3486L11.9402 20.4951C12.6132 21.1681 13.7041 21.1681 14.3771 20.4951L22.9958 11.8782C23.3197 11.555 23.5016 11.1164 23.5016 10.6597V3.44653C23.5016 2.49436 22.7304 1.72314 21.7782 1.72314Z"/>
</mask>
<path d="M21.7782 1.72314V-0.276855H19.7784L19.7782 1.72293L21.7782 1.72314ZM21.7773 9.74463L19.7773 9.74442V9.74463H21.7773ZM21.3379 10.8045L19.9258 9.38813L19.9236 9.3903L21.3379 10.8045ZM11.7938 20.3486L10.3795 18.9344L8.96534 20.3486L10.3795 21.7628L11.7938 20.3486ZM11.9402 20.4951L10.526 21.9093L10.526 21.9093L11.9402 20.4951ZM14.3771 20.4951L12.963 19.0807L12.9629 19.0809L14.3771 20.4951ZM22.9958 11.8782L21.5834 10.4621L21.5817 10.4638L22.9958 11.8782ZM23.5016 3.44653L25.5016 3.44653L23.5016 3.44653ZM19.7782 1.72293L19.7773 9.74442L23.7773 9.74485L23.7782 1.72336L19.7782 1.72293ZM19.7773 9.74463C19.7773 9.61256 19.8296 9.48401 19.9258 9.38813L22.7499 12.2209C23.4096 11.5632 23.7773 10.6712 23.7773 9.74463H19.7773ZM19.9236 9.3903L10.3795 18.9344L13.208 21.7628L22.7521 12.2187L19.9236 9.3903ZM10.3795 21.7628L10.526 21.9093L13.3545 19.0809L13.208 18.9344L10.3795 21.7628ZM10.526 21.9093C11.9801 23.3633 14.3373 23.3633 15.7913 21.9093L12.9629 19.0809C13.071 18.9728 13.2464 18.9728 13.3545 19.0809L10.526 21.9093ZM15.7912 21.9094L24.4098 13.2925L21.5817 10.4638L12.963 19.0807L15.7912 21.9094ZM24.4081 13.2943C25.1083 12.5959 25.5016 11.6478 25.5016 10.6597H21.5016C21.5016 10.5851 21.5312 10.5142 21.5834 10.4621L24.4081 13.2943ZM25.5016 10.6597V3.44653H21.5016V10.6597H25.5016ZM25.5016 3.44653C25.5016 1.38979 23.8349 -0.276855 21.7782 -0.276855V3.72314C21.6258 3.72314 21.5016 3.59893 21.5016 3.44653L25.5016 3.44653Z" fill="#515968" mask="url(#path-2-inside-1_1274_51380)"/>
</svg>
