<svg width="24" height="24" viewBox="0 0 24 24" fill="none" xmlns="http://www.w3.org/2000/svg">
<g clip-path="url(#clip0_5969_12858)">
<path d="M10.6042 3.21212L10.6043 3.21206C10.7401 3.07625 10.9244 3 11.1156 3H18.3314C18.7313 3 19.0548 3.3235 19.0548 3.72338V10.9383C19.0548 11.1301 18.9787 11.3148 18.8423 11.4518C18.8422 11.452 18.842 11.4521 18.8418 11.4523L9.45036 20.842L9.4503 20.8421C9.16784 21.1245 8.7101 21.1245 8.42765 20.8421L1.21229 13.6267C1.21217 13.6266 1.21205 13.6265 1.21193 13.6264C1.2119 13.6263 1.21187 13.6263 1.21184 13.6263C0.929008 13.3426 0.929785 12.8849 1.21178 12.6028C1.2118 12.6028 1.21182 12.6028 1.21184 12.6028L10.6042 3.21212ZM13.023 6.7393C13.023 8.00507 14.0497 9.03184 15.3155 9.03184C16.5813 9.03184 17.608 8.00507 17.608 6.7393C17.608 5.47354 16.5813 4.44677 15.3155 4.44677C14.0497 4.44677 13.023 5.47354 13.023 6.7393Z" stroke="#515968" stroke-width="2"/>
<mask id="path-2-inside-1_5969_12858" fill="white">
<path d="M21.7782 3.72314L21.7773 11.7446C21.7773 12.1419 21.6196 12.5236 21.3379 12.8045L11.7938 22.3486L11.9402 22.4951C12.6132 23.1681 13.7041 23.1681 14.3771 22.4951L22.9958 13.8782C23.3197 13.555 23.5016 13.1164 23.5016 12.6597V5.44653C23.5016 4.49436 22.7304 3.72314 21.7782 3.72314Z"/>
</mask>
<path d="M21.7782 3.72314V1.72314H19.7784L19.7782 3.72293L21.7782 3.72314ZM21.7773 11.7446L19.7773 11.7444V11.7446H21.7773ZM21.3379 12.8045L19.9258 11.3881L19.9236 11.3903L21.3379 12.8045ZM11.7938 22.3486L10.3795 20.9344L8.96534 22.3486L10.3795 23.7628L11.7938 22.3486ZM11.9402 22.4951L10.526 23.9093L10.526 23.9093L11.9402 22.4951ZM14.3771 22.4951L12.963 21.0807L12.9629 21.0809L14.3771 22.4951ZM22.9958 13.8782L21.5834 12.4621L21.5817 12.4638L22.9958 13.8782ZM23.5016 5.44653L25.5016 5.44653L23.5016 5.44653ZM19.7782 3.72293L19.7773 11.7444L23.7773 11.7448L23.7782 3.72336L19.7782 3.72293ZM19.7773 11.7446C19.7773 11.6126 19.8296 11.484 19.9258 11.3881L22.7499 14.2209C23.4096 13.5632 23.7773 12.6712 23.7773 11.7446H19.7773ZM19.9236 11.3903L10.3795 20.9344L13.208 23.7628L22.7521 14.2187L19.9236 11.3903ZM10.3795 23.7628L10.526 23.9093L13.3545 21.0809L13.208 20.9344L10.3795 23.7628ZM10.526 23.9093C11.9801 25.3633 14.3373 25.3633 15.7913 23.9093L12.9629 21.0809C13.071 20.9728 13.2464 20.9728 13.3545 21.0809L10.526 23.9093ZM15.7912 23.9094L24.4098 15.2925L21.5817 12.4638L12.963 21.0807L15.7912 23.9094ZM24.4081 15.2943C25.1083 14.5959 25.5016 13.6478 25.5016 12.6597H21.5016C21.5016 12.5851 21.5312 12.5142 21.5834 12.4621L24.4081 15.2943ZM25.5016 12.6597V5.44653H21.5016V12.6597H25.5016ZM25.5016 5.44653C25.5016 3.38979 23.8349 1.72314 21.7782 1.72314V5.72314C21.6258 5.72314 21.5016 5.59893 21.5016 5.44653L25.5016 5.44653Z" fill="#515968" mask="url(#path-2-inside-1_5969_12858)"/>
<rect x="-0.0362083" y="22.4209" width="32.5546" height="2.5" rx="1" transform="rotate(-45 -0.0362083 22.4209)" fill="#515968" stroke="white" stroke-linecap="round" stroke-linejoin="round"/>
</g>
<defs>
<clipPath id="clip0_5969_12858">
<rect width="24" height="24" fill="white"/>
</clipPath>
</defs>
</svg>
