<svg width="125" height="101" viewBox="0 0 125 101" fill="none" xmlns="http://www.w3.org/2000/svg">
<path d="M109.722 19.5663H70.4753C68.8822 19.5663 67.3261 18.965 66.2515 17.9429L54.0058 6.08465C51.0623 3.38746 47.0349 1.97865 42.956 2.00024H16.2781C7.85414 2.00002 1 8.30073 1 16.0443V84.4197C1 92.1635 7.85414 98.4642 16.2781 98.4642H109.778H109.792C118.211 98.4299 125.037 92.0991 125 84.3767V33.6106C125 25.8668 118.146 19.5663 109.722 19.5663ZM115.656 84.3941C115.67 87.4005 113.021 89.8615 109.769 89.8744H16.2781C13.0076 89.8744 10.3446 87.4263 10.3446 84.4199V16.0443C10.3446 13.0379 13.0076 10.5898 16.2781 10.5854H43.0776C43.129 10.5854 43.1803 10.5854 43.2319 10.5854C44.7923 10.5854 46.3062 11.1566 47.3246 12.0844L59.5049 23.8867C62.3642 26.6011 66.3637 28.1559 70.4753 28.1559H109.722C112.992 28.1559 115.655 30.604 115.655 33.6104V84.3941H115.656Z" fill="#4F596A"/>
</svg>
