<svg width="20" height="20" viewBox="0 0 20 20" fill="none" xmlns="http://www.w3.org/2000/svg">
<path fill-rule="evenodd" clip-rule="evenodd" d="M2.89962 8.7999H5.23482C5.34162 6.9447 5.69442 5.2359 6.23922 3.8583C5.36203 4.3958 4.61012 5.11493 4.03408 5.96731C3.45803 6.81968 3.07121 7.78554 2.89962 8.7999ZM10 0.399902C7.45395 0.399902 5.01215 1.41133 3.2118 3.21168C1.41145 5.01203 0.400024 7.45382 0.400024 9.9999C0.400024 12.546 1.41145 14.9878 3.2118 16.7881C5.01215 18.5885 7.45395 19.5999 10 19.5999C12.5461 19.5999 14.9879 18.5885 16.7882 16.7881C18.5886 14.9878 19.6 12.546 19.6 9.9999C19.6 7.45382 18.5886 5.01203 16.7882 3.21168C14.9879 1.41133 12.5461 0.399902 10 0.399902ZM10 2.7999C9.90882 2.7999 9.72162 2.8383 9.44202 3.1143C9.15642 3.3951 8.84562 3.8619 8.55762 4.5327C8.09082 5.6211 7.75002 7.1031 7.63842 8.7999H12.3616C12.25 7.1031 11.9092 5.6211 11.4424 4.5327C11.1544 3.8607 10.8424 3.3951 10.558 3.1143C10.2784 2.8383 10.0912 2.7999 10 2.7999ZM14.7652 8.7999C14.6584 6.9447 14.3056 5.2359 13.7608 3.8583C14.638 4.3958 15.3899 5.11493 15.966 5.96731C16.542 6.81968 16.9288 7.78554 17.1004 8.7999H14.7652ZM12.3616 11.1999H7.63842C7.75002 12.8967 8.09082 14.3787 8.55762 15.4671C8.84562 16.1391 9.15762 16.6047 9.44202 16.8855C9.72162 17.1615 9.90882 17.1999 10 17.1999C10.0912 17.1999 10.2784 17.1615 10.558 16.8855C10.8436 16.6047 11.1556 16.1379 11.4424 15.4671C11.9092 14.3787 12.25 12.8967 12.3616 11.1999ZM13.7608 16.1415C14.3056 14.7651 14.6584 13.0551 14.7652 11.1999H17.1004C16.9288 12.2143 16.542 13.1801 15.966 14.0325C15.3899 14.8849 14.638 15.604 13.7608 16.1415ZM6.23922 16.1415C5.69442 14.7639 5.34162 13.0551 5.23602 11.1999H2.89962C3.07121 12.2143 3.45803 13.1801 4.03408 14.0325C4.61012 14.8849 5.36203 15.604 6.23922 16.1415Z" fill="#4F596A"/>
</svg>
