<svg width="14" height="12" viewBox="0 0 14 12" fill="none" xmlns="http://www.w3.org/2000/svg">
<path fill-rule="evenodd" clip-rule="evenodd" d="M11.941 0.15371C11.7357 -0.0512368 11.4032 -0.0512368 11.1979 0.15371L9.06383 2.28777C8.21749 1.83084 7.27256 1.58698 6.3108 1.57729C2.59224 1.57729 0.181566 5.34423 0.0805954 5.50463C-0.0268651 5.67567 -0.0268651 5.89314 0.0805954 6.06418C0.769228 7.09188 1.63434 7.98957 2.63589 8.71571L1.206 10.1456C1.06604 10.2768 1.00867 10.4739 1.05629 10.6598C1.10392 10.8456 1.24899 10.9908 1.43482 11.0385C1.62065 11.0863 1.81774 11.0291 1.94908 10.8892L11.941 0.897317C12.1463 0.691958 12.1463 0.35907 11.941 0.15371ZM4.20725 5.78442C4.20725 4.62266 5.14904 3.68086 6.31081 3.68086C6.68447 3.68283 7.05044 3.78724 7.36889 3.98272L4.50911 6.84198C4.31394 6.52358 4.20955 6.15787 4.20725 5.78442ZM11.2008 3.51103C11.8581 4.09995 12.438 4.76984 12.9267 5.50468C13.0342 5.67572 13.0342 5.89319 12.9267 6.06422C12.8258 6.22462 10.4151 9.99156 6.69654 9.99156C6.11868 9.98796 5.54484 9.89518 4.99529 9.71652L11.2008 3.51103Z" fill="#848B97"/>
</svg>
