<svg width="12" height="12" viewBox="0 0 12 12" fill="none" xmlns="http://www.w3.org/2000/svg">
<path fill-rule="evenodd" clip-rule="evenodd" d="M2.57143 0C1.15125 0 0 1.15125 0 2.57143V9.42857C0 10.8487 1.15125 12 2.57143 12H9.42857C10.8487 12 12 10.8487 12 9.42857V2.57143C12 1.15125 10.8487 0 9.42857 0H2.57143ZM3.85714 3C3.85714 2.64496 3.56933 2.35714 3.21429 2.35714C2.85924 2.35714 2.57143 2.64496 2.57143 3V9C2.57143 9.35504 2.85924 9.64286 3.21429 9.64286C3.56933 9.64286 3.85714 9.35504 3.85714 9V3ZM5.57143 2.35714C5.21638 2.35714 4.92857 2.64496 4.92857 3V9C4.92857 9.35504 5.21638 9.64286 5.57143 9.64286H6.42857C8.44047 9.64286 10.0714 8.0119 10.0714 6C10.0714 3.9881 8.44047 2.35714 6.42857 2.35714H5.57143ZM6.21429 8.35714V3.64286H6.42857C7.73038 3.64286 8.78571 4.69819 8.78571 6C8.78571 7.30181 7.73038 8.35714 6.42857 8.35714H6.21429Z" fill="#3F83F8"/>
</svg>
