<svg width="16" height="16" viewBox="0 0 16 16" fill="none" xmlns="http://www.w3.org/2000/svg">
<path d="M14.9985 12.3139C14.9728 11.746 14.6263 11.2024 13.9393 10.6518C13.1309 10.0039 12.4969 9.70212 11.944 9.70212C11.2536 9.70212 10.8155 10.1516 10.3517 10.6276C10.3044 10.6762 10.2563 10.7255 10.207 10.7755C10.1786 10.8042 10.133 10.8373 10.0323 10.8373H10.0322C9.7394 10.8373 8.98278 10.5728 7.20559 8.80215C6.435 8.03379 5.87164 7.37977 5.53121 6.85824C5.19289 6.33989 5.07591 5.94465 5.21849 5.80067C5.26744 5.75119 5.31602 5.70276 5.36382 5.65517C5.78441 5.23602 6.18166 4.84014 6.26002 4.26266C6.34321 3.6494 6.05085 2.96796 5.31229 2.05332C4.74122 1.34455 4.17944 1 3.59476 1C2.80137 1 2.1882 1.65296 1.69558 2.17758C1.60881 2.27009 1.52681 2.35738 1.44707 2.43817C0.852512 3.03882 0.850904 4.32756 1.4427 5.88552C2.08373 7.57314 3.3428 9.4059 4.98794 11.0461C7.91578 13.9645 10.7044 15 12.2028 15C12.8083 15 13.2861 14.8404 13.5844 14.5386C13.6649 14.457 13.7517 14.3735 13.8435 14.285C14.3746 13.7735 15.0357 13.137 14.9985 12.3139Z" fill="#515968"/>
</svg>
