<svg width="17" height="17" viewBox="0 0 17 17" fill="none" xmlns="http://www.w3.org/2000/svg">
<path d="M7.04769 12.9572L5.04445 14.9604C4.21395 15.7908 2.86902 15.7908 2.03921 14.9605C1.20924 14.1306 1.20924 12.7856 2.03905 11.9558L6.04622 7.9487C6.87602 7.11888 8.22109 7.11888 9.05089 7.9487C9.32751 8.22531 9.77603 8.22531 10.0527 7.9487C10.3293 7.67208 10.3293 7.22357 10.0527 6.94696C8.66957 5.56391 6.42753 5.56391 5.04445 6.94696L1.03731 10.954C-0.345771 12.337 -0.345771 14.579 1.03731 15.9621C2.42023 17.3459 4.66244 17.3459 6.04625 15.9621L8.04949 13.9589C8.32611 13.6823 8.32611 13.2338 8.04949 12.9571C7.77286 12.6805 7.32431 12.6806 7.04769 12.9572Z" fill="#140F2D"/>
<path d="M15.9627 1.03729C14.5796 -0.345762 12.3368 -0.345762 10.9537 1.03729L8.5503 3.44067C8.27368 3.71729 8.27368 4.1658 8.5503 4.44242C8.82692 4.71903 9.27544 4.71903 9.55207 4.44242L11.9555 2.03903C12.7853 1.20921 14.1311 1.20921 14.9609 2.03903C15.7907 2.86881 15.7907 4.21385 14.9609 5.04363L10.5535 9.45093C9.7237 10.2807 8.37867 10.2807 7.54887 9.45093C7.27224 9.17432 6.82372 9.17432 6.5471 9.45093C6.27047 9.72755 6.27047 10.1761 6.5471 10.4527C7.93018 11.8357 10.1722 11.8357 11.5553 10.4527L15.9627 6.04541C17.3458 4.66236 17.3458 2.42034 15.9627 1.03729Z" fill="#140F2D"/>
</svg>
