<svg width="16" height="16" viewBox="0 0 16 16" fill="none" xmlns="http://www.w3.org/2000/svg">
<path d="M0 14.5625C-3.63221e-09 14.7349 0.0339487 14.9055 0.099908 15.0648C0.165867 15.224 0.262546 15.3687 0.384422 15.4906C0.506299 15.6125 0.650988 15.7091 0.810228 15.7751C0.969468 15.8411 1.14014 15.875 1.3125 15.875C1.48486 15.875 1.65553 15.8411 1.81477 15.7751C1.97401 15.7091 2.1187 15.6125 2.24058 15.4906C2.36245 15.3687 2.45913 15.224 2.52509 15.0648C2.59105 14.9055 2.625 14.7349 2.625 14.5625C2.625 14.3901 2.59105 14.2195 2.52509 14.0602C2.45913 13.901 2.36245 13.7563 2.24058 13.6344C2.1187 13.5125 1.97401 13.4159 1.81477 13.3499C1.65553 13.2839 1.48486 13.25 1.3125 13.25C1.14014 13.25 0.969468 13.2839 0.810228 13.3499C0.650988 13.4159 0.506299 13.5125 0.384422 13.6344C0.262546 13.7563 0.165867 13.901 0.099908 14.0602C0.0339487 14.2195 -3.63221e-09 14.3901 0 14.5625V14.5625ZM6.5625 14.5625C6.5625 14.9106 6.70078 15.2444 6.94692 15.4906C7.19306 15.7367 7.5269 15.875 7.875 15.875C8.2231 15.875 8.55694 15.7367 8.80308 15.4906C9.04922 15.2444 9.1875 14.9106 9.1875 14.5625C9.1875 14.2144 9.04922 13.8806 8.80308 13.6344C8.55694 13.3883 8.2231 13.25 7.875 13.25C7.5269 13.25 7.19306 13.3883 6.94692 13.6344C6.70078 13.8806 6.5625 14.2144 6.5625 14.5625V14.5625ZM13.125 14.5625C13.125 14.9106 13.2633 15.2444 13.5094 15.4906C13.7556 15.7367 14.0894 15.875 14.4375 15.875C14.7856 15.875 15.1194 15.7367 15.3656 15.4906C15.6117 15.2444 15.75 14.9106 15.75 14.5625C15.75 14.2144 15.6117 13.8806 15.3656 13.6344C15.1194 13.3883 14.7856 13.25 14.4375 13.25C14.0894 13.25 13.7556 13.3883 13.5094 13.6344C13.2633 13.8806 13.125 14.2144 13.125 14.5625V14.5625Z" fill="#1F2A37"/>
<path d="M0 7.9375C-3.63221e-09 8.10986 0.0339487 8.28053 0.099908 8.43977C0.165867 8.59901 0.262546 8.7437 0.384422 8.86558C0.506299 8.98745 0.650988 9.08413 0.810228 9.15009C0.969468 9.21605 1.14014 9.25 1.3125 9.25C1.48486 9.25 1.65553 9.21605 1.81477 9.15009C1.97401 9.08413 2.1187 8.98745 2.24058 8.86558C2.36245 8.7437 2.45913 8.59901 2.52509 8.43977C2.59105 8.28053 2.625 8.10986 2.625 7.9375C2.625 7.76514 2.59105 7.59447 2.52509 7.43523C2.45913 7.27599 2.36245 7.1313 2.24058 7.00942C2.1187 6.88755 1.97401 6.79087 1.81477 6.72491C1.65553 6.65895 1.48486 6.625 1.3125 6.625C1.14014 6.625 0.969468 6.65895 0.810228 6.72491C0.650988 6.79087 0.506299 6.88755 0.384422 7.00942C0.262546 7.1313 0.165867 7.27599 0.099908 7.43523C0.0339487 7.59447 -3.63221e-09 7.76514 0 7.9375V7.9375ZM6.5625 7.9375C6.5625 8.2856 6.70078 8.61944 6.94692 8.86558C7.19306 9.11172 7.5269 9.25 7.875 9.25C8.2231 9.25 8.55694 9.11172 8.80308 8.86558C9.04922 8.61944 9.1875 8.2856 9.1875 7.9375C9.1875 7.5894 9.04922 7.25556 8.80308 7.00942C8.55694 6.76328 8.2231 6.625 7.875 6.625C7.5269 6.625 7.19306 6.76328 6.94692 7.00942C6.70078 7.25556 6.5625 7.5894 6.5625 7.9375V7.9375ZM13.125 7.9375C13.125 8.2856 13.2633 8.61944 13.5094 8.86558C13.7556 9.11172 14.0894 9.25 14.4375 9.25C14.7856 9.25 15.1194 9.11172 15.3656 8.86558C15.6117 8.61944 15.75 8.2856 15.75 7.9375C15.75 7.5894 15.6117 7.25556 15.3656 7.00942C15.1194 6.76328 14.7856 6.625 14.4375 6.625C14.0894 6.625 13.7556 6.76328 13.5094 7.00942C13.2633 7.25556 13.125 7.5894 13.125 7.9375V7.9375Z" fill="#1F2A37"/>
<path d="M0 1.3125C-3.63221e-09 1.48486 0.0339487 1.65553 0.099908 1.81477C0.165867 1.97401 0.262546 2.1187 0.384422 2.24058C0.506299 2.36245 0.650988 2.45913 0.810228 2.52509C0.969468 2.59105 1.14014 2.625 1.3125 2.625C1.48486 2.625 1.65553 2.59105 1.81477 2.52509C1.97401 2.45913 2.1187 2.36245 2.24058 2.24058C2.36245 2.1187 2.45913 1.97401 2.52509 1.81477C2.59105 1.65553 2.625 1.48486 2.625 1.3125C2.625 1.14014 2.59105 0.969468 2.52509 0.810228C2.45913 0.650988 2.36245 0.506299 2.24058 0.384422C2.1187 0.262545 1.97401 0.165868 1.81477 0.0999084C1.65553 0.033949 1.48486 0 1.3125 0C1.14014 0 0.969468 0.033949 0.810228 0.0999084C0.650988 0.165868 0.506299 0.262545 0.384422 0.384422C0.262546 0.506299 0.165867 0.650988 0.099908 0.810228C0.0339487 0.969468 -3.63221e-09 1.14014 0 1.3125V1.3125ZM6.5625 1.3125C6.5625 1.6606 6.70078 1.99444 6.94692 2.24058C7.19306 2.48672 7.5269 2.625 7.875 2.625C8.2231 2.625 8.55694 2.48672 8.80308 2.24058C9.04922 1.99444 9.1875 1.6606 9.1875 1.3125C9.1875 0.964403 9.04922 0.630564 8.80308 0.384422C8.55694 0.138281 8.2231 0 7.875 0C7.5269 0 7.19306 0.138281 6.94692 0.384422C6.70078 0.630564 6.5625 0.964403 6.5625 1.3125V1.3125ZM13.125 1.3125C13.125 1.6606 13.2633 1.99444 13.5094 2.24058C13.7556 2.48672 14.0894 2.625 14.4375 2.625C14.7856 2.625 15.1194 2.48672 15.3656 2.24058C15.6117 1.99444 15.75 1.6606 15.75 1.3125C15.75 0.964403 15.6117 0.630564 15.3656 0.384422C15.1194 0.138281 14.7856 0 14.4375 0C14.0894 0 13.7556 0.138281 13.5094 0.384422C13.2633 0.630564 13.125 0.964403 13.125 1.3125V1.3125Z" fill="#1F2A37"/>
</svg>
