<svg width="12" height="12" viewBox="0 0 12 12" fill="none" xmlns="http://www.w3.org/2000/svg">
<g clip-path="url(#clip0_5427_112333)">
<path d="M12 5.05686C12 5.02836 11.9924 5.00038 11.9781 4.97572C11.9638 4.95107 11.9433 4.93061 11.9186 4.91639L11.0942 4.44293L11.9189 3.96692C11.9692 3.93788 12.0001 3.88425 12 3.82625C11.9999 3.76824 11.9689 3.71471 11.9186 3.68583C10.5133 2.87904 9.10807 2.07201 7.70302 1.26474C7.67839 1.25058 7.65048 1.24314 7.62208 1.24316C7.59367 1.24319 7.56577 1.25069 7.54118 1.2649L0.0811877 5.57201C0.05652 5.58627 0.0360427 5.60677 0.021817 5.63145C0.00759117 5.65614 0.000118851 5.68414 0.000152115 5.71263C0.000185379 5.74112 0.00772305 5.7691 0.0220064 5.79375C0.0362898 5.8184 0.0568149 5.83885 0.0815158 5.85305C0.35625 6.01093 0.631055 6.16861 0.905813 6.32647L0.0810705 6.80257C0.0563857 6.8168 0.0358918 6.83729 0.0216576 6.86198C0.00742352 6.88666 -4.6996e-05 6.91466 2.22456e-07 6.94315C4.96516e-05 6.97165 0.00759756 6.99963 0.0218856 7.02429C0.0361737 7.04894 0.0566988 7.0694 0.0813987 7.08361L0.905742 7.55705L0.0810705 8.03309C0.0563884 8.04734 0.0358979 8.06783 0.0216648 8.09252C0.00743172 8.11721 -4.09291e-05 8.14522 2.22456e-07 8.17372C4.96516e-05 8.20221 0.00759756 8.23019 0.0218856 8.25485C0.0361737 8.2795 0.0566988 8.29997 0.0813987 8.31418L4.29698 10.7353C4.32161 10.7494 4.34953 10.7568 4.37793 10.7568C4.40633 10.7568 4.43423 10.7493 4.45882 10.7351L11.9189 6.428C11.9436 6.41376 11.9641 6.39326 11.9783 6.36857C11.9926 6.34388 12 6.31587 12 6.28737C11.9999 6.25888 11.9924 6.23091 11.9781 6.20626C11.9638 6.18162 11.9433 6.16116 11.9186 6.14696L11.0942 5.67354L11.9189 5.19743C11.9436 5.18321 11.9641 5.16272 11.9783 5.13804C11.9926 5.11335 12 5.08535 12 5.05686ZM7.62246 1.59249C8.91911 2.33747 10.2159 3.08224 11.5128 3.82681L8.7049 5.44751C8.54927 5.35903 8.39384 5.27021 8.23861 5.18105L9.83487 4.25998C9.85384 4.24902 9.8704 4.23433 9.88353 4.21679C9.89667 4.19926 9.90612 4.17924 9.91131 4.15795C9.9165 4.13666 9.91732 4.11454 9.91373 4.09293C9.91013 4.07132 9.90219 4.05065 9.89039 4.03219C9.85608 3.97845 9.80571 3.87155 9.85448 3.75959C9.87037 3.723 9.87222 3.68183 9.85968 3.64396C9.84714 3.6061 9.82108 3.57417 9.78649 3.5543L8.06077 2.56247C8.04009 2.55061 8.01705 2.54344 7.9933 2.54149C7.96954 2.53954 7.94564 2.54285 7.9233 2.55118C7.70161 2.63396 7.39903 2.62086 7.15273 2.51797C7.12969 2.50838 7.10476 2.50423 7.07986 2.50583C7.05496 2.50743 7.03077 2.51474 7.00915 2.5272L5.31996 3.5026L5.14301 3.40072L4.81598 3.21247L7.62246 1.59249ZM9.54319 4.0538L7.9132 4.99435C7.15686 4.55983 6.40075 4.12494 5.64485 3.68965L7.10452 2.84668C7.38375 2.94427 7.69952 2.95653 7.962 2.87982L9.51626 3.77309C9.50252 3.86539 9.51171 3.96094 9.54319 4.0538ZM3.29201 4.09222C3.44866 4.18222 3.60534 4.27212 3.76202 4.36212L2.16848 5.28268C2.14951 5.29362 2.13296 5.3083 2.11982 5.32583C2.10668 5.34336 2.09724 5.36337 2.09205 5.38465C2.08684 5.40594 2.08601 5.42805 2.0896 5.44967C2.0932 5.47128 2.10114 5.49194 2.11296 5.5104C2.14727 5.56414 2.19764 5.67104 2.14896 5.78288C2.13307 5.81947 2.13122 5.86063 2.14376 5.8985C2.15631 5.93637 2.18236 5.9683 2.21695 5.98817L3.94214 6.97845C3.96281 6.99032 3.98585 6.9975 4.00961 6.99945C4.03337 7.0014 4.05727 6.99809 4.0796 6.98975C4.30109 6.90704 4.60366 6.92002 4.8503 7.02279C4.8733 7.03243 4.89822 7.03661 4.92311 7.03501C4.948 7.03341 4.97218 7.02607 4.99376 7.01356L5.25959 6.86004C5.7338 6.58618 6.20794 6.31236 6.68222 6.03879L7.1828 6.32614L4.37749 7.94632C3.08053 7.20184 1.78372 6.45709 0.487078 5.71205L3.29201 4.09222ZM2.46019 5.48872L4.08715 4.54882C4.77338 4.94293 5.45963 5.33703 6.1459 5.73097L6.357 5.85214C5.93707 6.09439 5.51723 6.33675 5.09745 6.57919L4.89844 6.69415C4.61899 6.59656 4.30343 6.58456 4.04086 6.66115L2.48723 5.76936C2.50085 5.67711 2.49166 5.58155 2.46019 5.48872ZM1.23094 6.51319C2.25286 7.10032 3.27487 7.68728 4.29698 8.27408C4.32161 8.28822 4.34953 8.29564 4.37793 8.29561C4.40633 8.29557 4.43423 8.28807 4.45882 8.27386L7.34609 6.60633L7.34815 7.46192L4.37754 9.17693L0.487125 6.94261L1.23094 6.51319ZM4.37754 10.4075L0.487125 8.1732L1.23101 7.74385L4.29698 9.50471C4.32161 9.51885 4.34953 9.52628 4.37793 9.52624C4.40633 9.5262 4.43423 9.51871 4.45882 9.5045L7.34906 7.83584L7.35115 8.69079L4.37754 10.4075ZM7.67503 8.50381L7.66976 6.32522C7.66971 6.29675 7.66217 6.2688 7.64788 6.24418C7.63359 6.21955 7.61306 6.19913 7.58836 6.18497C7.58836 6.18497 4.51341 4.41992 3.61666 3.90472L4.49145 3.39985C4.49145 3.39985 8.27449 5.57794 8.54454 5.72522L8.54909 7.99908L7.67503 8.50381ZM11.5129 6.28796L8.87304 7.81212L8.87133 6.95696L10.7695 5.86107L11.5129 6.28796ZM8.87055 6.58292L8.86884 5.72743L10.7694 4.63039L11.5129 5.05737L8.87055 6.58292ZM3.90593 6.02597C3.89528 6.00754 3.88836 5.98718 3.88558 5.96607C3.8828 5.94496 3.8842 5.9235 3.88971 5.90294C3.89522 5.88237 3.90473 5.86309 3.9177 5.84619C3.93066 5.8293 3.94683 5.81513 3.96527 5.80449L4.67569 5.39429C4.69412 5.38362 4.71448 5.37669 4.73559 5.3739C4.75671 5.37111 4.77817 5.37251 4.79874 5.37802C4.81931 5.38353 4.83859 5.39305 4.85548 5.40602C4.87238 5.419 4.88654 5.43517 4.89717 5.45363C4.90782 5.47207 4.91474 5.49242 4.91752 5.51353C4.9203 5.53465 4.9189 5.5561 4.91339 5.57667C4.90788 5.59724 4.89837 5.61652 4.8854 5.63341C4.87244 5.6503 4.85627 5.66447 4.83783 5.67511L4.12741 6.08532C4.10898 6.09598 4.08862 6.10291 4.06751 6.1057C4.04639 6.10849 4.02494 6.10709 4.00436 6.10158C3.98379 6.09607 3.96451 6.08655 3.94762 6.07358C3.93073 6.06061 3.91656 6.04443 3.90593 6.02597ZM8.1877 3.55362C8.19836 3.57206 8.20527 3.59242 8.20805 3.61353C8.21083 3.63464 8.20943 3.65609 8.20392 3.67666C8.19841 3.69723 8.1889 3.71651 8.17593 3.7334C8.16297 3.75029 8.1468 3.76446 8.12836 3.77511L7.50356 4.13586C7.47896 4.15013 7.45103 4.15763 7.42259 4.15761C7.3941 4.15764 7.36612 4.15016 7.34145 4.13593C7.31678 4.1217 7.2963 4.10121 7.28208 4.07654C7.27143 4.0581 7.26451 4.03774 7.26173 4.01663C7.25895 3.99552 7.26035 3.97407 7.26586 3.9535C7.27137 3.93293 7.28088 3.91365 7.29385 3.89676C7.30681 3.87986 7.32298 3.86569 7.34142 3.85505L7.96622 3.4943C7.98465 3.48363 8.00501 3.4767 8.02612 3.47391C8.04723 3.47112 8.06869 3.47252 8.08926 3.47803C8.10984 3.48354 8.12912 3.49305 8.14601 3.50602C8.1629 3.51899 8.17707 3.53517 8.1877 3.55362Z" fill="#27AE60"/>
</g>
<defs>
<clipPath id="clip0_5427_112333">
<rect width="12" height="12" fill="white"/>
</clipPath>
</defs>
</svg>
