<svg width="20" height="19" viewBox="0 0 20 19" fill="none" xmlns="http://www.w3.org/2000/svg">
<g clip-path="url(#clip0_5733_113678)">
<path d="M17.8906 2.96875H10V2.00391C10 0.898938 9.05371 0 7.89062 0H2.10938C0.946289 0 0 0.898938 0 2.00391V3.85938V15.2148C0 16.3198 0.946289 17.2188 2.10938 17.2188H11.25C11.7678 17.2188 12.1875 16.82 12.1875 16.3281C12.1875 15.8362 11.7678 15.4375 11.25 15.4375H2.10938C1.98012 15.4375 1.875 15.3376 1.875 15.2148V4.75H17.8906C18.0199 4.75 18.125 4.84986 18.125 4.97266V13.3594C18.125 13.8513 18.5447 14.25 19.0625 14.25C19.5803 14.25 20 13.8513 20 13.3594V4.97266C20 3.86769 19.0537 2.96875 17.8906 2.96875ZM2.10938 1.78125H7.89062C8.01988 1.78125 8.125 1.88111 8.125 2.00391V2.96875H1.875V2.00391C1.875 1.88111 1.98012 1.78125 2.10938 1.78125Z" fill="#4F596A"/>
<path d="M15.9375 13.6562C15.4197 13.6562 15 14.055 15 14.5469V15.4375H14.0625C13.5447 15.4375 13.125 15.8362 13.125 16.3281C13.125 16.82 13.5447 17.2188 14.0625 17.2188H15V18.1094C15 18.6013 15.4197 19 15.9375 19C16.4553 19 16.875 18.6013 16.875 18.1094V17.2188H17.8125C18.3303 17.2188 18.75 16.82 18.75 16.3281C18.75 15.8362 18.3303 15.4375 17.8125 15.4375H16.875V14.5469C16.875 14.055 16.4553 13.6562 15.9375 13.6562Z" fill="#4F596A"/>
</g>
<defs>
<clipPath id="clip0_5733_113678">
<rect width="20" height="19" fill="white"/>
</clipPath>
</defs>
</svg>
