<svg width="24" height="24" viewBox="0 0 24 24" fill="none" xmlns="http://www.w3.org/2000/svg">
<g clip-path="url(#clip0_1307_81289)">
<path d="M10.9306 8.52138V5.35416C10.9306 4.60743 10.3231 4 9.57639 4C9.24047 4 8.91606 4.12873 8.66478 4.36237L8.08202 4.90149C6.16453 6.6757 2.95457 9.645 1.31209 11.2923C1.11108 11.4951 1 11.7904 1 12.125C1 12.4595 1.11108 12.7549 1.31209 12.9581C2.95457 14.605 6.16453 17.5743 8.08202 19.3485L8.66478 19.8876C8.91606 20.1213 9.24047 20.25 9.57639 20.25C10.3231 20.25 10.9306 19.6426 10.9306 18.8958V15.7392C17.4307 15.8304 21.7639 17.8806 21.7639 19.7986C21.7639 20.0481 21.9658 20.25 22.2153 20.25C22.4648 20.25 22.6667 20.0481 22.6667 19.7986C22.6666 13.7159 17.4431 8.74177 10.9306 8.52138ZM10.4791 14.8333C10.2296 14.8333 10.0277 15.0352 10.0277 15.2847V18.8958C10.0277 19.1448 9.82496 19.3472 9.57634 19.3472C9.43881 19.3472 9.33831 19.2811 9.27834 19.2255L8.69559 18.686C6.78253 16.9161 3.58138 13.9548 1.95215 12.3211C1.92748 12.2965 1.90276 12.2259 1.90276 12.125C1.90276 12.0241 1.92743 11.9535 1.95215 11.9293C3.58138 10.2952 6.78253 7.33383 8.69563 5.56397L9.27839 5.02443C9.33835 4.96886 9.43885 4.90276 9.57639 4.90276C9.825 4.90276 10.0278 5.10508 10.0278 5.35416V8.96525C10.0278 9.21476 10.2297 9.41666 10.4792 9.41666C15.9064 9.41666 20.4512 12.9599 21.5241 17.6637C19.5977 15.9763 15.4268 14.8333 10.4791 14.8333Z" fill="#515968" stroke="#515968"/>
<rect x="-0.389762" y="22.4209" width="33.0546" height="3" rx="1.25" transform="rotate(-45 -0.389762 22.4209)" fill="#515968" stroke="white" stroke-width="1.5" stroke-linecap="round" stroke-linejoin="round"/>
</g>
<defs>
<clipPath id="clip0_1307_81289">
<rect width="24" height="24" fill="white"/>
</clipPath>
</defs>
</svg>
