<svg width="21" height="24" viewBox="0 0 21 24" fill="none" xmlns="http://www.w3.org/2000/svg">
<g clip-path="url(#clip0_5640_108822)">
<path d="M17.0492 9.93342C17.0492 9.47695 16.6791 9.10693 16.2227 9.10693L7.70991 9.10693C7.25344 9.10693 6.88342 9.47695 6.88342 9.93342C6.88342 10.3899 7.25344 10.7599 7.70991 10.7599L16.2227 10.7599C16.6791 10.7599 17.0492 10.3899 17.0492 9.93342Z" fill="#848B97"/>
<path d="M7.70991 12.4131C7.25344 12.4131 6.88342 12.7831 6.88342 13.2396C6.88342 13.696 7.25344 14.0661 7.70991 14.0661L12.88 14.0661C13.3365 14.0661 13.7065 13.696 13.7065 13.2396C13.7065 12.7831 13.3365 12.4131 12.88 12.4131L7.70991 12.4131Z" fill="#848B97"/>
<path d="M9.65215 20.3473L6.88802 20.3473C5.97658 20.3473 5.23506 19.6058 5.23506 18.6943L5.23506 4.14822C5.23506 3.23677 5.97658 2.49525 6.88802 2.49525L17.0492 2.49525C17.9606 2.49525 18.7021 3.23677 18.7021 4.14822L18.7021 9.23109C18.7021 9.68755 19.0722 10.0576 19.5286 10.0576C19.9851 10.0576 20.3551 9.68755 20.3551 9.23109L20.3551 4.14822C20.3551 2.32533 18.8721 0.842286 17.0492 0.842286L6.88802 0.842285C5.06513 0.842285 3.58209 2.32533 3.58209 4.14822L3.58209 18.6943C3.58209 20.5172 5.06513 22.0002 6.88802 22.0002L9.65215 22.0002C10.1086 22.0002 10.4786 21.6302 10.4786 21.1738C10.4786 20.7173 10.1086 20.3473 9.65215 20.3473Z" fill="#848B97"/>
<path d="M21.819 12.8086C20.8523 11.8419 19.2793 11.8419 18.3132 12.808L13.7757 17.3355C13.6793 17.4316 13.6082 17.5501 13.5686 17.6803L12.5804 20.9335C12.4928 21.222 12.5692 21.5352 12.7797 21.7509C12.9374 21.9126 13.1516 22.0003 13.3713 22.0003C13.4448 22.0003 13.519 21.9905 13.5919 21.9702L16.9278 21.0462C17.0651 21.0082 17.1902 20.9353 17.291 20.8347L21.819 16.3152C22.7858 15.3484 22.7858 13.7755 21.819 12.8086ZM16.2771 19.5113L14.5988 19.9762L15.09 18.3592L18.1516 15.3043L19.3207 16.4734L16.2771 19.5113ZM20.6508 15.1459L20.4907 15.3057L19.3218 14.1368L19.4814 13.9775C19.8037 13.6553 20.328 13.6553 20.6502 13.9775C20.9725 14.2998 20.9725 14.8241 20.6508 15.1459Z" fill="#848B97"/>
<path d="M16.2227 5.80127L7.70991 5.80127C7.25344 5.80127 6.88342 6.17129 6.88342 6.62775C6.88342 7.08422 7.25344 7.45423 7.70991 7.45423L16.2227 7.45424C16.6791 7.45424 17.0492 7.08422 17.0492 6.62775C17.0492 6.17129 16.6791 5.80127 16.2227 5.80127Z" fill="#848B97"/>
</g>
<defs>
<clipPath id="clip0_5640_108822">
<rect width="20.4179" height="24" fill="white" transform="translate(0.582092)"/>
</clipPath>
</defs>
</svg>
