<svg width="14" height="14" viewBox="0 0 14 14" fill="none" xmlns="http://www.w3.org/2000/svg">
<path d="M12.1183 0C11.8809 0 11.6882 0.209639 11.6882 0.468467C11.6882 0.727003 11.8809 0.936935 12.1183 0.936935C12.314 0.936935 12.4731 1.11027 12.4731 1.32313V12.0095C12.4731 12.2223 12.314 12.3956 12.1183 12.3956C11.8809 12.3956 11.6882 12.6055 11.6882 12.8641C11.6882 13.1229 11.8809 13.3326 12.1183 13.3326C12.7882 13.3326 13.3333 12.7391 13.3333 12.0095V1.32313C13.3333 0.59349 12.7882 0 12.1183 0ZM10.1251 0C9.88771 0 9.69497 0.209639 9.69497 0.468467C9.69497 0.727003 9.88771 0.936935 10.1251 0.936935C10.3208 0.936935 10.4799 1.11027 10.4799 1.32313V12.0095C10.4799 12.2223 10.3208 12.3956 10.1251 12.3956C9.88771 12.3956 9.69497 12.6055 9.69497 12.8641C9.69497 13.1229 9.88771 13.3326 10.1251 13.3326C10.7952 13.3326 11.3401 12.7391 11.3401 12.0095V1.32313C11.3401 0.59349 10.7952 0 10.1251 0ZM9.34686 1.32313V12.0095C9.34686 12.7391 8.80198 13.3326 8.13183 13.3326H4.10664C3.86874 13.3326 3.67628 13.1223 3.67654 12.8632C3.67762 12.4451 3.67601 11.6121 3.67601 9.91599C3.67601 9.59187 3.43461 9.32923 3.13731 9.32923C1.58008 9.32923 0.815313 9.32745 0.431181 9.32862C0.193283 9.32894 0.000275999 9.1193 0.000275999 8.86015V1.32313C0.000275999 0.592318 0.544082 0 1.21504 0H8.13183C8.80198 0 9.34686 0.59349 9.34686 1.32313ZM3.26419 10.2463V12.8641C3.26419 13.2733 2.81016 13.4938 2.52979 13.1956C-0.0663894 10.3674 0.0426138 10.531 0.00834035 10.3364C-0.0441854 10.0503 0.157934 9.77779 0.430375 9.77779H2.83409C3.07145 9.77779 3.26419 9.98743 3.26419 10.2463Z" fill="#4F596A"/>
</svg>
