<svg width="12" height="12" viewBox="0 0 12 12" fill="none" xmlns="http://www.w3.org/2000/svg">
<g clip-path="url(#clip0_5426_112255)">
<path d="M7.20905 1.41821H1.93225C1.42116 1.41821 1.00534 1.83401 1.00534 2.3451C1.00534 9.10758 0.965864 8.69137 1.10156 8.82707C3.07718 10.8027 2.95192 10.688 3.02101 10.7221C3.11982 10.7717 2.84944 10.7568 7.20903 10.7568C7.72013 10.7568 8.13594 10.341 8.13594 9.82992V2.3451C8.13596 1.83401 7.72015 1.41821 7.20905 1.41821ZM2.83913 9.63656L2.12564 8.92307H2.83913V9.63656ZM7.47971 9.82992C7.47971 9.97916 7.35831 10.1006 7.20905 10.1006H3.49538V8.59492C3.49538 8.4137 3.34846 8.2668 3.16725 8.2668H1.66159V2.3451C1.66159 2.19587 1.783 2.07446 1.93225 2.07446H7.20905C7.35829 2.07446 7.47971 2.19587 7.47971 2.3451V9.82992ZM9.6566 2.3451V9.82994C9.6566 10.341 9.24078 10.7568 8.72969 10.7568C8.54848 10.7568 8.40156 10.6099 8.40156 10.4287C8.40156 10.2475 8.54848 10.1006 8.72969 10.1006C8.87892 10.1006 9.00035 9.97918 9.00035 9.82994V2.3451C9.00035 2.19587 8.87894 2.07446 8.72969 2.07446C8.54848 2.07446 8.40156 1.92757 8.40156 1.74634C8.40156 1.56511 8.54848 1.41821 8.72969 1.41821C9.24078 1.41821 9.6566 1.83401 9.6566 2.3451ZM11.1772 2.3451V9.82994C11.1772 10.341 10.7614 10.7568 10.2503 10.7568C10.0691 10.7568 9.92217 10.6099 9.92217 10.4287C9.92217 10.2475 10.0691 10.1006 10.2503 10.1006C10.3995 10.1006 10.521 9.97918 10.521 9.82994V2.3451C10.521 2.19587 10.3996 2.07446 10.2503 2.07446C10.0691 2.07446 9.92217 1.92757 9.92217 1.74634C9.92217 1.56511 10.0691 1.41821 10.2503 1.41821C10.7614 1.41821 11.1772 1.83401 11.1772 2.3451Z" fill="#4F596A"/>
</g>
<defs>
<clipPath id="clip0_5426_112255">
<rect width="10.5" height="10.5" fill="white" transform="translate(1 1)"/>
</clipPath>
</defs>
</svg>
