<svg width="10" height="10" viewBox="0 0 10 10" fill="none" xmlns="http://www.w3.org/2000/svg">
<path d="M8.08132 0.00107474C7.67573 0.0194265 7.28741 0.266897 6.89411 0.757634C6.43134 1.33507 6.2158 1.78793 6.2158 2.18283C6.2158 2.676 6.53689 2.9889 6.87687 3.32018C6.91159 3.354 6.9468 3.38834 6.98248 3.42356C7.00302 3.44389 7.02666 3.47645 7.02666 3.54838V3.54842C7.02666 3.75757 6.83773 4.29802 5.57297 5.56744C5.02414 6.11786 4.55698 6.52025 4.18446 6.76342C3.81421 7.00508 3.53189 7.08863 3.42905 6.9868C3.39371 6.95183 3.35912 6.91713 3.32512 6.88299C3.02573 6.58256 2.74296 6.29882 2.33047 6.24284C1.89243 6.18342 1.40569 6.39225 0.752369 6.91979C0.246108 7.3277 0 7.72897 0 8.1466C0 8.71331 0.466398 9.15129 0.841131 9.50315C0.907209 9.56514 0.96956 9.6237 1.02726 9.68066C1.4563 10.1053 2.37683 10.1065 3.48966 9.68378C4.6951 9.22591 6.00421 8.32657 7.17576 7.15147C9.26033 5.06016 10 3.06828 10 1.998C10 1.56547 9.88601 1.22424 9.67041 1.01114C9.61218 0.953627 9.5525 0.891677 9.48932 0.826084C9.12395 0.446704 8.66929 -0.0255173 8.08132 0.00107474Z" fill="#27AE60"/>
</svg>
