<svg width="512" height="512" viewBox="0 0 512 512" fill="none" xmlns="http://www.w3.org/2000/svg">
<circle cx="257" cy="257" r="215" fill="white"/>
<path d="M340.447 245.99L234.132 168.707C232.222 167.315 229.964 166.478 227.608 166.289C225.252 166.1 222.889 166.567 220.782 167.637C218.675 168.708 216.904 170.34 215.667 172.354C214.43 174.368 213.774 176.686 213.772 179.049V333.564C213.765 335.932 214.415 338.254 215.651 340.274C216.887 342.293 218.659 343.929 220.771 345C222.882 346.07 225.25 346.534 227.609 346.337C229.968 346.141 232.226 345.294 234.132 343.889L340.447 266.674C342.09 265.496 343.428 263.943 344.352 262.145C345.275 260.346 345.757 258.354 345.757 256.332C345.757 254.311 345.275 252.318 344.352 250.52C343.428 248.721 342.09 247.169 340.447 245.99Z" fill="black"/>
<path d="M256.009 0.0340881C114.596 0.0340881 0 114.63 0 256.043C0 397.404 114.596 511.966 256.009 511.966C397.387 511.966 512 397.387 512 256.043C512.017 114.63 397.387 0.0340881 256.009 0.0340881ZM256.009 469.252C138.244 469.252 42.7646 373.824 42.7646 256.043C42.7646 138.312 138.244 42.7646 256.009 42.7646C373.756 42.7646 469.218 138.295 469.218 256.043C469.235 373.824 373.756 469.252 256.009 469.252Z" fill="black"/>
</svg>
