<svg width="12" height="12" viewBox="0 0 12 12" fill="none" xmlns="http://www.w3.org/2000/svg">
<g clip-path="url(#clip0_5426_112253)">
<path d="M10.7527 6.20671V1.08111C10.7527 0.898248 10.6046 0.75 10.4218 0.75H1.55533C1.37257 0.75 1.2244 0.898248 1.2244 1.08111V6.61531C1.06475 6.63858 0.908685 6.70059 0.770619 6.80314C0.335372 7.11193 0.232429 7.80298 0.59701 8.22916L2.08761 10.0372C3.0103 11.1176 3.99047 11.25 5.4476 11.25C6.69803 11.25 7.25707 11.2555 8.34684 11.0071L9.408 10.7531C9.58006 10.9935 9.85321 11.1493 10.1603 11.1493H10.683C11.2024 11.1493 11.625 10.7039 11.625 10.1564V7.19656C11.625 6.67383 11.2397 6.24445 10.7527 6.20671ZM9.26525 6.88782L8.82431 6.66374C8.09932 6.29761 7.26111 6.28405 6.52466 6.62662C6.32374 6.70569 5.88552 6.97097 5.65821 6.9621H4.12814C3.62061 6.9621 3.2077 7.37521 3.2077 7.88302V8.12448C3.20485 8.12148 3.20187 8.11863 3.19907 8.11559L2.10643 6.92896C2.04031 6.85716 1.96602 6.79707 1.88629 6.74886V3.46385H4.59451V4.6776C4.59451 4.86046 4.74269 5.00871 4.92545 5.00871H7.01368C7.19644 5.00871 7.34461 4.86046 7.34461 4.6776V3.46385H10.0909V6.20668C9.70423 6.23657 9.38181 6.51333 9.26525 6.88782ZM5.25636 3.46385H6.68272V4.3465H5.25636V3.46385ZM10.0909 2.80163H7.34461V1.41222H10.0909V2.80163H10.0909ZM6.68274 1.41222V2.80166H5.25639V1.41222H6.68274ZM4.59449 1.41222V2.80166H1.88627V1.41222H4.59449ZM8.19324 10.3629C7.18653 10.5936 6.58024 10.5843 5.45947 10.5843C4.0916 10.5843 3.43068 10.5621 2.59822 9.61575L1.10762 7.80775C0.848345 7.46995 1.31796 7.07118 1.61965 7.37761L2.71228 8.56426C3.00106 8.86912 3.36445 9.03691 3.81234 9.04677H6.84168C7.02444 9.04677 7.17261 8.89853 7.17261 8.71567C7.17261 8.53281 7.02444 8.38456 6.84168 8.38456H3.86954V7.88297C3.86954 7.74033 3.98553 7.62427 4.12812 7.62427H5.65819C6.00289 7.64897 6.50042 7.36099 6.80369 7.22707C7.35525 6.97048 7.98305 6.98064 8.52532 7.25449L9.21839 7.6067V10.1176L8.19324 10.3629ZM10.9632 10.1564C10.9632 10.3387 10.8375 10.487 10.6831 10.487H10.1603C10.0059 10.487 9.88026 10.3387 9.88026 10.1564V7.19656C9.88026 7.01426 10.0059 6.86592 10.1603 6.86592H10.6831C10.8375 6.86592 10.9632 7.01423 10.9632 7.19656V10.1564Z" fill="#FF5F0B"/>
</g>
<defs>
<clipPath id="clip0_5426_112253">
<rect width="12" height="12" fill="white"/>
</clipPath>
</defs>
</svg>
