<svg width="16" height="16" viewBox="0 0 16 16" fill="none" xmlns="http://www.w3.org/2000/svg">
<g clip-path="url(#clip0_5640_108800)">
<path d="M0.666656 2.6665V6.6665H4.66666" stroke="#4F596A" stroke-width="2" stroke-linecap="round" stroke-linejoin="round"/>
<path d="M15.3333 13.3335V9.3335H11.3333" stroke="#4F596A" stroke-width="2" stroke-linecap="round" stroke-linejoin="round"/>
<path d="M13.66 5.99989C13.3219 5.04441 12.7472 4.19016 11.9897 3.51683C11.2321 2.84351 10.3163 2.37306 9.3278 2.14939C8.33925 1.92572 7.31015 1.95612 6.33653 2.23774C5.36291 2.51936 4.47649 3.04303 3.75999 3.75989L0.666656 6.66655M15.3333 9.33322L12.24 12.2399C11.5235 12.9567 10.6371 13.4804 9.66345 13.762C8.68983 14.0437 7.66073 14.0741 6.67218 13.8504C5.68363 13.6267 4.76786 13.1563 4.0103 12.4829C3.25275 11.8096 2.6781 10.9554 2.33999 9.99989" stroke="#4F596A" stroke-width="2" stroke-linecap="round" stroke-linejoin="round"/>
</g>
<defs>
<clipPath id="clip0_5640_108800">
<rect width="16" height="16" fill="white"/>
</clipPath>
</defs>
</svg>
