<svg width="13" height="12" viewBox="0 0 13 12" fill="none" xmlns="http://www.w3.org/2000/svg">
<path d="M0.673983 5.6209C0.563533 5.71589 0.5 5.85432 0.5 6C0.5 6.14568 0.563533 6.28411 0.673983 6.3791L5.90663 10.8791C6.05479 11.0065 6.2636 11.0359 6.4412 10.9544C6.6188 10.8729 6.73264 10.6954 6.73264 10.5V8.21536C8.55458 8.41547 10.2032 9.64451 10.8326 10.2873C10.9715 10.4292 11.1812 10.4754 11.3668 10.4051C11.5525 10.3349 11.679 10.1615 11.6892 9.96323C11.798 7.8528 11.0713 6.34638 10.0444 5.32463C9.03214 4.31752 7.75523 3.8063 6.77337 3.60975C6.7567 3.60642 6.74422 3.59794 6.73738 3.59006C6.73426 3.58647 6.73313 3.58396 6.73283 3.5832L6.73283 3.58318C6.73266 3.58275 6.73264 3.58271 6.73264 3.58212V1.5C6.73264 1.30459 6.6188 1.12708 6.4412 1.04557C6.2636 0.964063 6.05479 0.993489 5.90663 1.1209L0.673983 5.6209Z" fill="#BCC0C6" stroke="#BCC0C6" stroke-linejoin="round"/>
</svg>
