<svg width="20" height="14" viewBox="0 0 20 14" fill="none" xmlns="http://www.w3.org/2000/svg">
<path fill-rule="evenodd" clip-rule="evenodd" d="M10 0C5.45455 0 1.57273 2.82727 0 6.81818C1.57273 10.8091 5.45455 13.6364 10 13.6364C14.5455 13.6364 18.4273 10.8091 20 6.81818C18.4273 2.82727 14.5455 0 10 0ZM10 11.3637C7.49092 11.3637 5.45456 9.32735 5.45456 6.81826C5.45456 4.30917 7.49092 2.27281 10 2.27281C12.5091 2.27281 14.5455 4.30917 14.5455 6.81826C14.5455 9.32735 12.5091 11.3637 10 11.3637ZM9.99999 4.09089C8.4909 4.09089 7.27272 5.30907 7.27272 6.81817C7.27272 8.32726 8.4909 9.54544 9.99999 9.54544C11.5091 9.54544 12.7273 8.32726 12.7273 6.81817C12.7273 5.30907 11.5091 4.09089 9.99999 4.09089Z" fill="#4F5A69"/>
</svg>
