<svg width="22" height="22" viewBox="0 0 22 22" fill="none" xmlns="http://www.w3.org/2000/svg">
<g clip-path="url(#clip0_4487_103935)">
<path d="M18.5625 0H3.4375C1.54206 0 0 1.54206 0 3.4375V18.5625C0 20.4579 1.54206 22 3.4375 22H18.5625C20.4579 22 22 20.4579 22 18.5625V3.4375C22 1.54206 20.4579 0 18.5625 0ZM20.2812 18.5625C20.2812 19.5102 19.5102 20.2812 18.5625 20.2812H3.4375C2.48978 20.2812 1.71875 19.5102 1.71875 18.5625V3.4375C1.71875 2.48978 2.48978 1.71875 3.4375 1.71875H18.5625C19.5102 1.71875 20.2812 2.48978 20.2812 3.4375V18.5625Z" fill="#848B97"/>
<g clip-path="url(#clip1_4487_103935)">
<path d="M13.9947 4.4289L6.46789 16.6222C6.20564 17.0468 6.3375 17.6032 6.76202 17.8651C6.90983 17.9563 7.07358 18.0001 7.23561 18.0001C7.53852 18.0001 7.83451 17.8479 8.00518 17.571L15.532 5.37755C15.7941 4.95303 15.6623 4.39665 15.2377 4.13477C14.8133 3.87277 14.2564 4.00438 13.9947 4.4289Z" fill="#848B97"/>
</g>
</g>
<defs>
<clipPath id="clip0_4487_103935">
<rect width="22" height="22" fill="white"/>
</clipPath>
<clipPath id="clip1_4487_103935">
<rect width="13.9999" height="14" fill="white" transform="translate(4 4)"/>
</clipPath>
</defs>
</svg>
