<svg width="24" height="24" viewBox="0 0 24 24" fill="none" xmlns="http://www.w3.org/2000/svg">
<g clip-path="url(#clip0_5973_14111)">
<mask id="mask0_5973_14111" style="mask-type:luminance" maskUnits="userSpaceOnUse" x="0" y="0" width="24" height="24">
<path d="M24 0H0V24H24V0Z" fill="white"/>
</mask>
<g mask="url(#mask0_5973_14111)">
<path d="M23.7253 7.39948L16.6003 0.274475C16.4246 0.0986939 16.1862 0 15.9375 0H8.0625C7.81384 0 7.57544 0.0986939 7.39966 0.274475L0.274658 7.39948C0.0986939 7.57544 0 7.81384 0 8.0625V15.9375C0 16.1862 0.0986939 16.4246 0.274658 16.6005L7.39966 23.7255C7.57544 23.9013 7.81384 24 8.0625 24H15.9375C16.1862 24 16.4246 23.9013 16.6003 23.7255L23.7253 16.6005C23.9013 16.4246 24 16.1862 24 15.9375V8.0625C24 7.81384 23.9013 7.57544 23.7253 7.39948ZM22.125 15.5491L15.5491 22.125H8.45087L1.875 15.5491V8.45087L8.45087 1.875H15.5491L22.125 8.45087V15.5491ZM10.6655 9.95911C10.5718 8.01929 10.5249 6.64783 10.5249 5.84509C10.5249 5.0224 11.2679 4.62085 12.0912 4.62085C12.8438 4.62085 13.4751 5.05646 13.4751 5.84509C13.4751 6.64783 13.455 8.01929 13.4149 9.95911C13.3748 11.8991 13.3546 13.2638 13.3546 14.053C13.3546 14.662 12.6273 14.9359 12.0912 14.9359C11.2343 14.9359 10.806 14.6418 10.806 14.053C10.806 13.2638 10.7589 11.8991 10.6655 9.95911ZM13.5553 17.866C13.5553 18.6868 12.9069 19.4112 12.0928 19.4112C11.1464 19.4112 10.4447 18.6747 10.4447 17.866C10.4447 17.0301 11.1196 16.3207 12.0928 16.3207C12.9093 16.3207 13.5553 17.048 13.5553 17.866Z" fill="#515968"/>
</g>
</g>
<defs>
<clipPath id="clip0_5973_14111">
<rect width="24" height="24" fill="white"/>
</clipPath>
</defs>
</svg>
