<svg width="22" height="22" viewBox="0 0 22 22" fill="none" xmlns="http://www.w3.org/2000/svg">
<path d="M19.7134 11.379V1.98203C19.7134 1.64679 19.4417 1.375 19.1066 1.375H2.85144C2.51638 1.375 2.24473 1.64679 2.24473 1.98203V12.1281C1.95205 12.1707 1.66592 12.2844 1.4128 12.4724C0.614849 13.0385 0.42612 14.3055 1.09452 15.0868L3.82729 18.4015C5.51889 20.3823 7.31586 20.625 9.98727 20.625C12.2797 20.625 13.3046 20.6351 15.3025 20.1796L17.248 19.7141C17.5634 20.1548 18.0642 20.4403 18.6272 20.4403H19.5856C20.5378 20.4403 21.3125 19.6238 21.3125 18.6201V13.1937C21.3125 12.2354 20.6061 11.4482 19.7134 11.379ZM16.9863 12.6277L16.1779 12.2169C14.8488 11.5456 13.312 11.5208 11.9619 12.1488C11.5935 12.2938 10.7901 12.7801 10.3734 12.7638H7.56825C6.63779 12.7638 5.88077 13.5212 5.88077 14.4522V14.8949C5.87556 14.8894 5.8701 14.8842 5.86496 14.8786L3.86179 12.7031C3.74057 12.5715 3.60438 12.4613 3.4582 12.3729V6.35039H8.42328V8.57561C8.42328 8.91085 8.69492 9.18264 9.02999 9.18264H12.8584C13.1935 9.18264 13.4651 8.91085 13.4651 8.57561V6.35039H18.5V11.3789C17.7911 11.4337 17.2 11.9411 16.9863 12.6277ZM9.63667 6.35039H12.2517V7.96858H9.63667V6.35039ZM18.4999 5.13633H13.4651V2.58906H18.5V5.13633H18.4999ZM12.2517 2.58906V5.13637H9.63671V2.58906H12.2517ZM8.42324 2.58906V5.13637H3.45816V2.58906H8.42324ZM15.0209 18.9987C13.1753 19.4216 12.0638 19.4045 10.009 19.4045C7.50127 19.4045 6.28958 19.3639 4.76341 17.6289L2.03064 14.3142C1.5553 13.6949 2.41627 12.9638 2.96935 13.5256L4.97252 15.7011C5.50194 16.2601 6.16816 16.5677 6.98928 16.5858H12.5431C12.8781 16.5858 13.1498 16.314 13.1498 15.9787C13.1498 15.6435 12.8781 15.3717 12.5431 15.3717H7.09416V14.4521C7.09416 14.1906 7.3068 13.9778 7.56821 13.9778H10.3733C11.0053 14.0231 11.9174 13.4952 12.4734 13.2496C13.4846 12.7792 14.6356 12.7978 15.6298 13.2999L16.9004 13.9456V18.5489L15.0209 18.9987ZM20.0991 18.6201C20.0991 18.9543 19.8688 19.2262 19.5856 19.2262H18.6273C18.3441 19.2262 18.1138 18.9543 18.1138 18.6201V13.1937C18.1138 12.8595 18.3442 12.5875 18.6273 12.5875H19.5856C19.8688 12.5875 20.0991 12.8594 20.0991 13.1937V18.6201Z" fill="black"/>
</svg>
