<svg width="16" height="16" viewBox="0 0 16 16" fill="none" xmlns="http://www.w3.org/2000/svg">
<circle cx="8" cy="8" r="6" fill="white"/>
<path fill-rule="evenodd" clip-rule="evenodd" d="M10.8536 6.52055C10.6583 6.71581 10.3417 6.71581 10.1464 6.52055L8.16667 4.54077L6.18689 6.52055C5.99162 6.71581 5.67504 6.71581 5.47978 6.52055C5.28452 6.32528 5.28452 6.0087 5.47978 5.81344L7.81311 3.48011C8.00838 3.28484 8.32496 3.28484 8.52022 3.48011L10.8536 5.81344C11.0488 6.0087 11.0488 6.32528 10.8536 6.52055Z" fill="#FF5F0B"/>
<path fill-rule="evenodd" clip-rule="evenodd" d="M8.16663 12.333C7.89048 12.333 7.66663 12.1092 7.66663 11.833L7.66663 3.83301C7.66663 3.55687 7.89048 3.33301 8.16663 3.33301C8.44277 3.33301 8.66663 3.55687 8.66663 3.83301L8.66663 11.833C8.66663 12.1092 8.44277 12.333 8.16663 12.333Z" fill="#FF5F0B"/>
</svg>
