<svg width="12" height="12" viewBox="0 0 12 12" fill="none" xmlns="http://www.w3.org/2000/svg">
<path d="M9.84612 8.38973C9.5528 8.09617 9.21007 7.85657 8.83362 7.68192C9.36448 7.25184 9.70315 6.59559 9.70315 5.85965C9.70315 4.56121 8.62034 3.49598 7.3219 3.5159C6.04339 3.53582 5.01331 4.57762 5.01331 5.85965C5.01331 6.59559 5.35315 7.25184 5.88284 7.68192C5.50633 7.85644 5.16357 8.09606 4.87034 8.38973C4.2305 9.03074 3.86722 9.87684 3.84378 10.7792C3.84347 10.7917 3.84566 10.8041 3.85023 10.8158C3.8548 10.8274 3.86166 10.838 3.8704 10.847C3.87913 10.8559 3.88957 10.8631 3.9011 10.8679C3.91263 10.8728 3.92502 10.8753 3.93753 10.8753H4.59378C4.64417 10.8753 4.68636 10.8354 4.68753 10.785C4.7098 10.1054 4.98519 9.46902 5.46917 8.98621C5.71683 8.73723 6.01142 8.53984 6.33588 8.40547C6.66034 8.2711 7.00822 8.20242 7.3594 8.2034C8.07308 8.2034 8.74456 8.48113 9.24964 8.98621C9.73245 9.46902 10.0078 10.1054 10.0313 10.785C10.0325 10.8354 10.0746 10.8753 10.125 10.8753H10.7813C10.7938 10.8753 10.8062 10.8728 10.8177 10.8679C10.8292 10.8631 10.8397 10.8559 10.8484 10.847C10.8572 10.838 10.864 10.8274 10.8686 10.8158C10.8731 10.8041 10.8753 10.7917 10.875 10.7792C10.8516 9.87684 10.4883 9.03074 9.84612 8.38973ZM7.3594 7.35965C6.95862 7.35965 6.58128 7.20379 6.29886 6.9202C6.15712 6.77958 6.04517 6.61185 5.96966 6.42702C5.89416 6.2422 5.85666 6.04405 5.8594 5.84442C5.86292 5.46004 6.01644 5.08856 6.2848 4.81317C6.56605 4.52488 6.94222 4.36434 7.34417 4.35965C7.74144 4.35613 8.12698 4.51082 8.41058 4.78856C8.7012 5.07332 8.86058 5.45418 8.86058 5.85965C8.86058 6.26043 8.70472 6.6366 8.42112 6.9202C8.28199 7.06 8.11652 7.17082 7.93427 7.24625C7.75203 7.32168 7.55664 7.36022 7.3594 7.35965ZM4.42386 6.16902C4.41331 6.06707 4.40745 5.96395 4.40745 5.85965C4.40745 5.67332 4.42503 5.49168 4.45784 5.31473C4.46605 5.27254 4.44378 5.22918 4.40511 5.2116C4.24573 5.14012 4.09925 5.04168 3.97269 4.91746C3.82355 4.77286 3.7062 4.59876 3.62811 4.40627C3.55003 4.21378 3.51292 4.00713 3.51917 3.79949C3.52972 3.42332 3.68089 3.0659 3.94456 2.79637C4.23401 2.49988 4.62308 2.33817 5.03675 2.34285C5.41058 2.34637 5.77151 2.49051 6.04456 2.74598C6.13714 2.8327 6.21683 2.92879 6.28362 3.03192C6.30706 3.06824 6.35276 3.08348 6.39261 3.06942C6.59886 2.99793 6.81683 2.94754 7.04065 2.9241C7.10628 2.91707 7.14378 2.84676 7.11448 2.78817C6.73362 2.03465 5.9555 1.51434 5.0555 1.50027C3.75589 1.48035 2.67308 2.54559 2.67308 3.84285C2.67308 4.57879 3.01175 5.23504 3.54261 5.66512C3.16995 5.83738 2.82659 6.07527 2.52894 6.37293C1.88675 7.01395 1.52347 7.86004 1.50003 8.76356C1.49972 8.77606 1.50191 8.78851 1.50648 8.80015C1.51105 8.8118 1.51791 8.82241 1.52665 8.83137C1.53538 8.84032 1.54582 8.84744 1.55735 8.8523C1.56888 8.85715 1.58127 8.85965 1.59378 8.85965H2.2512C2.30159 8.85965 2.34378 8.81981 2.34495 8.76941C2.36722 8.08973 2.64261 7.4534 3.12659 6.97059C3.47112 6.62606 3.893 6.38699 4.35355 6.27098C4.39925 6.25926 4.42972 6.2159 4.42386 6.16902Z" fill="#4F596A"/>
</svg>
