<svg width="108" height="108" viewBox="0 0 108 108" fill="none" xmlns="http://www.w3.org/2000/svg">
<path d="M6.3485 71.592C19.3849 98.9295 39.4448 104.836 53.9995 104.836C70.3895 104.836 85.8302 96.6516 95.3224 83.2992C104.877 69.8203 107.156 52.7344 101.65 36.4076L100.638 34.3195C92.9177 15.9045 74.1862 3.16406 53.9995 3.16406C37.6094 3.16406 22.1688 11.3484 12.6766 24.7008C3.12157 38.1797 0.843025 55.2656 6.3485 71.592Z" fill="#65B1FC"/>
<path d="M6.34901 71.592C19.3854 98.9295 39.4453 104.836 54 104.836V3.16406C37.6099 3.16406 22.1693 11.3484 12.6771 24.7008C3.12209 38.1797 0.84354 55.2656 6.34901 71.592Z" fill="#1689FC"/>
<path d="M10.0837 22.8654C20.2085 8.69042 36.5985 0 54.0009 0C75.7064 0 95.5767 13.6266 103.74 33.6865L104.816 35.9016C110.626 53.5942 108.364 70.3525 97.9181 85.1342C87.7933 99.3092 71.4032 108 54.0009 108C32.5485 108 12.9314 94.6898 4.51495 75.0724L3.56594 73.174C-2.75923 55.177 -0.543541 37.8882 10.0837 22.8654ZM92.729 81.4639C101.715 68.8076 103.803 52.7977 98.6142 37.4203L97.7915 35.7115C92.6657 23.4349 82.4774 13.9219 70.3277 9.36541C77.9845 19.3641 82.6042 38.8123 82.0345 45.1404C82.0978 45.3305 82.1613 45.5201 82.1613 45.7734C83.8066 66.9724 78.9972 87.4336 69.948 98.8875C78.997 95.5967 87.0335 89.5008 92.729 81.4639ZM57.1649 101.102C59.3796 100.343 61.5946 98.6766 63.6831 96.4615C72.5423 86.9062 77.4149 66.7195 75.8329 46.2795V45.7102C75.8329 45.5201 75.7696 45.2672 75.7696 45.0771C73.9347 25.3967 66.2142 9.87187 57.1649 6.89745V101.102ZM50.8368 101.039V6.89745C41.0917 10.1248 32.928 28.0545 31.9792 49.4435C31.0933 69.1873 36.029 87.7287 44.5722 96.7148C46.5972 98.8029 48.6851 100.343 50.8368 101.039ZM9.3876 70.5797C16.4751 85.5141 26.4735 94.7107 38.0538 98.8242C29.5743 88.1297 24.765 69.0609 25.6511 49.1906C26.4105 32.3576 31.1566 17.8455 38.054 9.1125C29.0048 12.4029 20.9683 18.4992 15.273 26.5357C6.28704 39.192 4.19855 55.2023 9.3876 70.5797Z" fill="#96EBE6"/>
<path d="M10.0828 22.8654C20.2076 8.69042 36.5977 0 54 0V108C32.5477 108 12.9305 94.6898 4.51406 75.0724L3.56506 73.174C-2.76012 55.177 -0.544434 37.8882 10.0828 22.8654ZM50.8359 101.039V6.89745C41.0908 10.1248 32.9271 28.0545 31.9783 49.4435C31.0924 69.1873 36.0281 87.7287 44.5713 96.7148C46.5963 98.8029 48.6842 100.343 50.8359 101.039ZM9.38672 70.5797C16.4742 85.5141 26.4727 94.7107 38.0529 98.8242C29.5734 88.1297 24.7641 69.0609 25.6502 49.1906C26.4096 32.3576 31.1557 17.8455 38.0531 9.1125C29.0039 12.4029 20.9674 18.4992 15.2721 26.5357C6.28615 39.192 4.19765 55.2023 9.38672 70.5797Z" fill="#00C8C8"/>
<path d="M9.70312 31.8516H98.2969C103.549 31.8516 108 36.0912 108 41.3438V66.6562C108 71.9084 103.549 76.1484 98.2969 76.1484H9.70312C4.45057 76.1484 0 71.9084 0 66.6562V41.3438C0 36.0912 4.45057 31.8516 9.70312 31.8516Z" fill="#0053BF"/>
<path d="M0 41.3438V66.6562C0 71.9084 4.45057 76.1484 9.70312 76.1484H54V31.8516H9.70312C4.45057 31.8516 0 36.0912 0 41.3438Z" fill="#05377F"/>
<path d="M38.4969 49.0639L44.8251 61.7201C45.3946 62.7961 46.4704 63.4922 47.6727 63.4922C48.8751 63.4922 49.9508 62.7961 50.5204 61.7201L54.0008 54.7594L57.4813 61.7201C58.5569 63.8719 62.101 63.8719 63.1768 61.7201L69.505 49.0639C70.2643 47.5451 69.6313 45.6469 68.0493 44.8242C66.5305 44.0649 64.6323 44.6975 63.8096 46.2795L60.329 53.2406L56.8485 46.2795C56.2788 45.2039 55.1397 44.6342 54.0008 44.6342C52.862 44.6342 51.7227 45.2039 51.1532 46.2795L47.6727 53.2406L44.1922 46.2795C43.3696 44.6975 41.4711 44.0649 39.9526 44.8242C38.3706 45.6469 37.7376 47.5451 38.4969 49.0639Z" fill="#E1F1FA"/>
<path d="M16.0323 63.4926C17.2312 63.4926 18.325 62.8159 18.8626 61.7437L22.3604 54.7481L25.8582 61.7437C26.9335 63.8881 30.4435 63.8881 31.5189 61.7437L37.5812 49.6158C37.9736 49.1338 38.2271 48.5375 38.2704 47.8823C38.3815 46.1396 37.1549 44.6411 35.4124 44.5267C34.0898 44.4959 32.755 45.1201 32.1865 46.2571L28.6885 53.2526L25.1908 46.2571C24.1154 44.1127 20.6054 44.1127 19.53 46.2571L16.0323 53.2526L12.5345 46.2571C11.7496 44.6904 9.84948 44.0694 8.28897 44.8419C6.7255 45.6236 6.09205 47.524 6.87379 49.0874L13.2019 61.7437C13.7396 62.8159 14.8333 63.4926 16.0323 63.4926Z" fill="#BFE1FF"/>
<path d="M72.7792 44.5143C74.0244 44.5019 75.2449 45.1199 75.8135 46.2571L79.3113 53.2526L82.8091 46.2571C83.9488 43.9855 87.3425 44.0026 88.4698 46.2571L91.9676 53.2526L95.4653 46.2571C96.2502 44.6904 98.1535 44.0694 99.7109 44.8419C101.274 45.6236 101.908 47.524 101.126 49.0874L94.7979 61.7437C94.2602 62.8159 93.1665 63.4926 91.9676 63.4926C90.7686 63.4926 89.6749 62.8159 89.1372 61.7437L85.6394 54.7481L82.1417 61.7437C81.604 62.8159 80.5103 63.4926 79.3113 63.4926C78.1123 63.4926 77.0186 62.8159 76.481 61.7437L70.5205 49.8228C70.0693 49.3098 69.7788 48.6331 69.7295 47.8823C69.6183 46.1396 71.0364 44.6286 72.7792 44.5143Z" fill="#E1F1FA"/>
<path d="M38.4961 49.0639L44.8242 61.7201C45.3937 62.7961 46.4695 63.4922 47.6719 63.4922C48.8742 63.4922 49.95 62.7961 50.5195 61.7201L54 54.7594V44.6342C52.8609 44.6342 51.7219 45.2039 51.1523 46.2795L47.6719 53.2406L44.1914 46.2795C43.3687 44.6975 41.4703 44.0649 39.9518 44.8242C38.3697 45.6469 37.7367 47.5451 38.4961 49.0639Z" fill="#BFE1FF"/>
</svg>
