<svg width="12" height="12" viewBox="0 0 12 12" fill="none" xmlns="http://www.w3.org/2000/svg">
<path d="M12 2.40033V9.60131C12 10.927 10.9253 12.0016 9.59967 12.0016H2.40033C1.07467 12.0016 0 10.927 0 9.60131V2.40033C0 1.07467 1.07467 0 2.40033 0H9.59962C10.9253 0 12 1.07467 12 2.40033Z" fill="#43CF8C"/>
<path d="M6.00063 2H5.99813C3.79722 2 2.0025 3.79375 2.00125 5.99625L2 6L2.00125 6.00375C2.00375 8.2075 3.79597 10 5.99813 10H6.00063C8.18778 9.99875 10 8.21875 10 5.99875C10 3.795 8.20278 2.00125 6.00063 2ZM5.18825 2.33875C4.83456 2.6525 4.5371 3.1675 4.33214 3.81625C3.93345 3.72375 3.56976 3.59875 3.2598 3.4425C3.76847 2.89875 4.43582 2.505 5.18825 2.33875ZM3.09103 3.63625C3.42723 3.81125 3.82467 3.95375 4.26085 4.05625C4.11587 4.595 4.03088 5.2125 4.02088 5.875H2.25366C2.28116 5.0275 2.58991 4.25125 3.09103 3.63625ZM3.09103 8.3625C2.59111 7.7475 2.28241 6.97125 2.25366 6.125H4.02088C4.03088 6.7875 4.11587 7.405 4.26085 7.94375C3.82467 8.04625 3.42848 8.1875 3.09103 8.3625ZM3.26105 8.55625C3.571 8.40125 3.9347 8.275 4.33214 8.1825C4.53835 8.8325 4.83456 9.3475 5.1895 9.66125C4.44978 9.49636 3.77741 9.11109 3.26105 8.55625ZM5.87434 9.73875C5.34818 9.6525 4.8795 9.03 4.5858 8.12875C4.99198 8.05125 5.42691 8.0075 5.87434 8V9.73875ZM5.87434 7.75C5.40192 7.7575 4.94199 7.805 4.51331 7.88875C4.36833 7.36375 4.28084 6.76125 4.27085 6.125H5.87434V7.75ZM5.87434 5.875H4.27085C4.28084 5.2375 4.36833 4.635 4.51331 4.11125C4.94199 4.195 5.40192 4.2425 5.87434 4.25V5.875ZM5.87434 4C5.42691 3.9925 4.99073 3.94875 4.5858 3.87125C4.87825 2.97 5.34818 2.3475 5.87434 2.26125V4ZM8.90767 3.63625C9.40884 4.25125 9.71879 5.0275 9.74629 5.875H7.97907C7.97032 5.2125 7.88408 4.595 7.7391 4.05625C8.17529 3.95375 8.57272 3.81125 8.90767 3.63625ZM8.7389 3.4425C8.42895 3.59875 8.06525 3.72375 7.66906 3.81625C7.46285 3.1675 7.16539 2.6525 6.8117 2.34C7.56288 2.50625 8.23148 2.89875 8.7389 3.4425ZM6.12431 2.26125C6.65172 2.3475 7.12165 2.97 7.4141 3.87125C7.00792 3.94875 6.57174 3.9925 6.12431 4V2.26125ZM6.12431 4.25C6.59673 4.2425 7.05791 4.195 7.48659 4.11125C7.63157 4.635 7.71906 5.2375 7.72906 5.875H6.12431V4.25ZM6.12431 6.125H7.72906C7.71906 6.76125 7.63157 7.36375 7.48659 7.88875C7.05666 7.805 6.59673 7.7575 6.12431 7.75V6.125ZM6.12431 9.73875V8C6.57174 8.0075 7.00792 8.05125 7.4141 8.12875C7.12045 9.03 6.65052 9.6525 6.12431 9.73875ZM6.81045 9.66C7.16539 9.34625 7.4616 8.83125 7.66781 8.1825C8.06525 8.275 8.42895 8.4 8.7389 8.55625C8.23148 9.1 7.56288 9.49375 6.81045 9.66ZM8.90892 8.3625C8.57147 8.1875 8.17529 8.045 7.7391 7.9425C7.88408 7.405 7.96907 6.7875 7.97907 6.125H9.74629C9.71931 6.94235 9.42517 7.72831 8.90892 8.3625Z" fill="white" stroke="white" stroke-width="0.2"/>
</svg>
