<svg width="40" height="40" viewBox="0 0 40 40" fill="none" xmlns="http://www.w3.org/2000/svg">
<g clip-path="url(#clip0_6012_3235)">
<path d="M20 40C31.0457 40 40 31.0457 40 20C40 8.9543 31.0457 0 20 0C8.9543 0 0 8.9543 0 20C0 31.0457 8.9543 40 20 40Z" fill="#29A71A"/>
<path d="M28.8182 11.1818C26.7373 9.08023 23.974 7.79139 21.0266 7.54778C18.0792 7.30417 15.1417 8.12183 12.7441 9.85328C10.3465 11.5847 8.64648 14.116 7.95078 16.9904C7.25507 19.8649 7.60945 22.8934 8.95 25.5295L7.63409 31.9182C7.62043 31.9818 7.62005 32.0475 7.63295 32.1112C7.64586 32.175 7.67178 32.2354 7.70909 32.2886C7.76375 32.3695 7.84177 32.4317 7.93273 32.4671C8.0237 32.5024 8.12328 32.5091 8.21818 32.4864L14.4795 31.0023C17.1083 32.3089 20.1154 32.6405 22.9657 31.938C25.816 31.2356 28.3247 29.5447 30.0453 27.1663C31.766 24.7878 32.587 21.876 32.3623 18.9491C32.1376 16.0221 30.8817 13.2698 28.8182 11.1818ZM26.8659 26.7636C25.4262 28.1993 23.5722 29.147 21.5654 29.4732C19.5585 29.7994 17.4998 29.4876 15.6795 28.5818L14.8068 28.15L10.9682 29.0591L10.9795 29.0114L11.775 25.1477L11.3477 24.3045C10.4176 22.4779 10.0895 20.4037 10.4104 18.3792C10.7313 16.3546 11.6847 14.4836 13.1341 13.0341C14.9552 11.2135 17.4249 10.1908 20 10.1908C22.5751 10.1908 25.0448 11.2135 26.8659 13.0341C26.8814 13.0519 26.8981 13.0686 26.9159 13.0841C28.7145 14.9094 29.7185 17.3717 29.7092 19.9342C29.6998 22.4967 28.6778 24.9516 26.8659 26.7636Z" fill="white"/>
<path d="M26.525 23.9296C26.0545 24.6705 25.3114 25.5773 24.3773 25.8023C22.7409 26.1978 20.2295 25.816 17.1045 22.9023L17.0659 22.8682C14.3182 20.3205 13.6045 18.2 13.7773 16.5182C13.8727 15.5637 14.6682 14.7 15.3386 14.1364C15.4446 14.0459 15.5703 13.9815 15.7057 13.9483C15.841 13.9151 15.9822 13.9141 16.1181 13.9452C16.2539 13.9763 16.3806 14.0388 16.4879 14.1277C16.5953 14.2165 16.6804 14.3293 16.7364 14.4569L17.7477 16.7296C17.8134 16.877 17.8378 17.0394 17.8182 17.1996C17.7986 17.3597 17.7357 17.5115 17.6364 17.6387L17.125 18.3023C17.0153 18.4393 16.9491 18.6061 16.9349 18.781C16.9207 18.956 16.9592 19.1312 17.0455 19.2841C17.3318 19.7864 18.0182 20.525 18.7795 21.2091C19.6341 21.9819 20.5818 22.6887 21.1818 22.9296C21.3424 22.9952 21.5189 23.0112 21.6886 22.9755C21.8583 22.9399 22.0135 22.8542 22.1341 22.7296L22.7273 22.1319C22.8417 22.019 22.9841 21.9385 23.1398 21.8986C23.2955 21.8587 23.459 21.8607 23.6136 21.9046L26.0159 22.5864C26.1484 22.6271 26.2699 22.6975 26.371 22.7923C26.4721 22.8871 26.5503 23.0037 26.5994 23.1333C26.6485 23.2629 26.6673 23.4021 26.6545 23.5401C26.6416 23.6781 26.5973 23.8113 26.525 23.9296Z" fill="white"/>
</g>
<defs>
<clipPath id="clip0_6012_3235">
<rect width="40" height="40" fill="white"/>
</clipPath>
</defs>
</svg>
