<svg width="22" height="22" viewBox="0 0 22 22" fill="none" xmlns="http://www.w3.org/2000/svg">
<path d="M21.9757 5.44163C21.9757 5.41837 21.9757 5.41837 21.9757 5.39512C21.9514 5.34861 21.9514 5.3021 21.9272 5.25559V5.23233C21.9029 5.18582 21.8543 5.13931 21.83 5.11606L21.8057 5.0928C21.7815 5.06955 21.7329 5.0463 21.7086 5.02304L21.6843 4.99979H21.66L21.6358 4.97653L11.3157 0.0697645C11.1214 -0.0232548 10.8786 -0.0232548 10.66 0.0697645L7.18764 1.72086L17.5563 6.81366L17.5806 6.83692C17.6049 6.83692 17.6049 6.86017 17.6291 6.86017C17.6534 6.88343 17.6534 6.90668 17.6777 6.92994C17.6777 6.95319 17.6777 6.95319 17.6777 6.97645V6.9997V12.3948C17.6777 12.4878 17.6291 12.5576 17.5563 12.6041L15.468 13.6506C15.3466 13.7203 15.2009 13.6738 15.128 13.5576C15.1038 13.5343 15.1038 13.4878 15.1038 13.4413V8.16244L4.61369 2.97662L4.5894 2.95336L0.388521 4.95328L0.364238 4.97653H0.339956L0.315673 4.99979C0.291391 5.02304 0.242826 5.0463 0.218543 5.06955L0.19426 5.0928C0.145695 5.13931 0.121413 5.18582 0.0728477 5.23233V5.25559C0.0485651 5.3021 0.0242826 5.34861 0.0242826 5.39512C0.0242826 5.41837 0.0242826 5.41837 0.0242826 5.44163C0.0242826 5.48814 0 5.51139 0 5.5579V5.58116V16.4179C0 16.6737 0.145695 16.9295 0.412804 17.0458L10.6358 21.9293C10.7815 21.9991 10.9514 22.0223 11.1214 21.9758L11.17 21.9525C11.2185 21.9525 11.2428 21.9293 11.2914 21.906L21.5872 17.0225C21.83 16.9063 22 16.6737 22 16.3946V5.58116V5.5579C21.9757 5.51139 21.9757 5.48814 21.9757 5.44163Z" fill="#4F5A69"/>
</svg>
